<?xml version="1.0" encoding="UTF-8"?>
<svg version="1.1" xmlns="http://www.w3.org/2000/svg" width="512" height="512">
<path d="M0 0 C7.05011728 4.19452356 11.82747189 10.45080942 14.0625 18.375 C14.45261791 21.57396683 14.39383035 24.71751019 14.375 27.9375 C15.36306641 27.92178955 16.35113281 27.9060791 17.36914062 27.88989258 C21.06664747 27.83522147 24.76411924 27.80101608 28.46191406 27.77270508 C30.05637641 27.75770255 31.65079808 27.73729379 33.24511719 27.71118164 C35.54893077 27.67441866 37.8521946 27.65768845 40.15625 27.64453125 C40.85866821 27.62904739 41.56108643 27.61356354 42.28479004 27.59761047 C49.86300289 27.5950856 55.95885741 29.96149909 61.625 35.125 C62.43453125 35.84042969 63.2440625 36.55585937 64.078125 37.29296875 C66.0876388 39.60664365 67.2057853 41.3910961 68.51855469 44.1027832 C68.86907898 44.82142044 69.21960327 45.54005768 69.58074951 46.2804718 C69.84285217 46.82729111 70.10495483 47.37411041 70.375 47.9375 C71.53931549 47.94336624 72.70363098 47.94923248 73.90322876 47.95527649 C84.87973954 48.01250764 95.85605228 48.08527153 106.83236122 48.17321491 C112.47530309 48.21792832 118.1181726 48.25718249 123.76123047 48.28393555 C129.20784648 48.30995857 134.65418418 48.35035433 140.1006279 48.40068626 C142.17778434 48.41736166 144.25498892 48.42887174 146.33220291 48.43511391 C149.24341203 48.44474749 152.15390802 48.47279847 155.06494141 48.50512695 C156.35103806 48.50297432 156.35103806 48.50297432 157.66311646 48.5007782 C163.48037241 48.59204393 167.81059463 49.57201077 172.23828125 53.65625 C172.71652344 54.2440625 173.19476563 54.831875 173.6875 55.4375 C174.17863281 56.0253125 174.66976563 56.613125 175.17578125 57.21875 C177.2269718 60.15856708 177.50103496 62.74046224 177.50922108 66.21263695 C177.51367892 67.08985889 177.51813676 67.96708083 177.52272969 68.87088525 C177.52245315 70.3176036 177.52245315 70.3176036 177.52217102 71.79354858 C177.52584771 72.81755567 177.5295244 73.84156276 177.5333125 74.89660037 C177.54436782 78.34432062 177.54819628 81.79201075 177.55200195 85.23974609 C177.55826508 87.70495195 177.56491174 90.17015685 177.57191467 92.63536072 C177.59115301 100.04391045 177.60174333 107.45245218 177.61064246 114.86101955 C177.61502558 118.34905489 177.62039224 121.8370887 177.62563133 125.32512283 C177.64264114 136.91802594 177.65713648 148.51092811 177.66438007 160.10384178 C177.66628998 163.1118711 177.66821032 166.1199004 177.67016602 169.12792969 C177.67064976 169.87556594 177.6711335 170.62320219 177.6716319 171.39349408 C177.67993668 183.51147659 177.70528222 195.62936052 177.73774669 207.74729995 C177.77079782 220.18546756 177.78882697 232.62358503 177.79202431 245.06179678 C177.79419097 252.04671634 177.80296249 259.03149206 177.82848549 266.01636887 C177.85242964 272.58432633 177.85603046 279.15207105 177.84572411 285.72007942 C177.8452268 288.13360136 177.85160426 290.54713573 177.86528015 292.96061897 C177.88287923 296.24988858 177.87595153 299.53821517 177.86274719 302.82748413 C177.87371644 303.78750159 177.88468568 304.74751904 177.89598733 305.73662794 C177.8575439 309.6900534 177.61897548 312.4053507 175.9568615 316.03068542 C171.99430734 318.95720028 168.38677045 318.62140032 163.57746887 318.55654907 C162.06891131 318.56590754 162.06891131 318.56590754 160.52987784 318.57545507 C157.14948604 318.59041338 153.77024248 318.56969991 150.38989258 318.54931641 C147.97043446 318.55285617 145.55097873 318.55863209 143.13153076 318.56648254 C137.91552622 318.57868078 132.6997584 318.57578968 127.48377419 318.55965042 C119.93254438 318.53657546 112.38157748 318.54389503 104.83033892 318.55918162 C92.56615081 318.58346149 80.30204676 318.58765671 68.0378418 318.57714844 C67.30378275 318.57652461 66.5697237 318.57590079 65.81342044 318.57525806 C64.32785729 318.5739868 62.84229415 318.57271256 61.35673101 318.57143535 C60.62030006 318.57080297 59.88386911 318.57017059 59.12512207 318.56951904 C58.3881013 318.5688809 57.65108053 318.56824275 56.8917258 318.56758527 C48.71582222 318.56078674 40.53991985 318.55878842 32.36401367 318.55859375 C31.63236529 318.55857092 30.9007169 318.55854809 30.14689735 318.55852456 C17.9346675 318.55859387 5.72246952 318.57064382 -6.48974496 318.58955324 C-14.01846842 318.6005011 -21.54702445 318.59971211 -29.07573966 318.5836135 C-34.85020248 318.57188133 -40.62458252 318.57492612 -46.39904785 318.58324242 C-48.76412167 318.58405202 -51.12920379 318.57971077 -53.49425697 318.56979942 C-56.72719634 318.55690839 -59.95961244 318.56246905 -63.19255066 318.57241821 C-64.12467084 318.56416004 -65.05679101 318.55590186 -66.01715726 318.54739344 C-72.09723217 318.59163451 -76.96411259 319.79130258 -82.625 321.9375 C-92.37213485 324.32228975 -103.58350193 323.45824904 -112.625 318.9375 C-115.38035422 318.84093213 -118.11111421 318.80437476 -120.86669922 318.81152344 C-121.71888031 318.8096553 -122.5710614 318.80778717 -123.44906616 318.80586243 C-125.30318778 318.80185337 -127.15731436 318.79978313 -129.01144028 318.79940033 C-132.9493424 318.79599263 -136.88707824 318.77464126 -140.82492256 318.75416946 C-148.16178686 318.71609715 -155.49847494 318.68488736 -162.83544922 318.68701172 C-167.9343381 318.68779759 -173.03262078 318.66448815 -178.13135147 318.6251297 C-180.07619631 318.61464837 -182.02111093 318.6131613 -183.96596909 318.62078094 C-186.68615344 318.6303752 -189.40449403 318.60927383 -192.12451172 318.58105469 C-192.92985352 318.59125137 -193.73519531 318.60144806 -194.56494141 318.61195374 C-198.07467003 318.54657117 -200.13606929 318.36045238 -202.83169842 316.02858257 C-205.39187513 311.61565076 -205.17652608 307.86648262 -205.12620544 302.84767151 C-205.13173984 301.82266114 -205.13727424 300.79765077 -205.14297634 299.74157947 C-205.15660456 296.3021648 -205.14160121 292.86347303 -205.12670898 289.42407227 C-205.13049138 286.96019176 -205.13599075 284.49631339 -205.14308167 282.03244019 C-205.15561185 276.03185204 -205.14945728 270.03154791 -205.13440608 264.03098721 C-205.11754362 257.04216275 -205.1207566 250.05339069 -205.12450016 243.06455218 C-205.130379 230.59336662 -205.11620687 218.12228201 -205.09155273 205.65112305 C-205.06763703 193.55212621 -205.06054643 181.45326428 -205.07104492 169.35424805 C-205.08245756 156.17812799 -205.08437953 143.00207034 -205.06994683 129.82595104 C-205.068421 128.42055222 -205.06690064 127.01515339 -205.06538582 125.60975456 C-205.064628 124.9182821 -205.06387019 124.22680963 -205.06308941 123.51438345 C-205.05834885 118.64398975 -205.06019644 113.77362394 -205.06445122 108.90323067 C-205.06989611 102.34590623 -205.05912285 95.78874146 -205.03749657 89.2314415 C-205.03192708 86.82319075 -205.03146486 84.41492203 -205.03644943 82.00667 C-205.04239524 78.72234249 -205.02990984 75.43858799 -205.01268005 72.15431213 C-205.0186901 71.19857176 -205.02470014 70.24283138 -205.03089231 69.25812918 C-204.97280374 63.1794681 -204.18841198 58.71647163 -199.90625 54.07421875 C-199.3184375 53.59597656 -198.730625 53.11773437 -198.125 52.625 C-197.24328125 51.88830078 -197.24328125 51.88830078 -196.34375 51.13671875 C-192.18019787 48.23169488 -187.51187159 48.76437204 -182.65551758 48.73217773 C-181.27960701 48.71732834 -181.27960701 48.71732834 -179.87590027 48.70217896 C-176.84047029 48.6705622 -173.80502465 48.64580577 -170.76953125 48.62109375 C-168.66631155 48.60052438 -166.56309598 48.57952791 -164.45988464 48.55812073 C-158.92134956 48.50289833 -153.38277716 48.45348975 -147.84417725 48.40527344 C-142.19361038 48.35505967 -136.54309777 48.29937295 -130.89257812 48.24414062 C-119.80343176 48.13655698 -108.7142383 48.03511242 -97.625 47.9375 C-97.28930496 47.31708832 -96.95360992 46.69667664 -96.60774231 46.0574646 C-95.9410981 44.83865097 -95.9410981 44.83865097 -95.26098633 43.59521484 C-94.82216629 42.78917816 -94.38334625 41.98314148 -93.93122864 41.15267944 C-92.36818666 38.50198081 -90.63551091 36.575493 -88.3125 34.5625 C-87.61511719 33.93601563 -86.91773438 33.30953125 -86.19921875 32.6640625 C-80.16472461 28.61664762 -74.49328152 27.48830726 -67.40625 27.64453125 C-66.66290405 27.64877609 -65.91955811 27.65302094 -65.15368652 27.65739441 C-62.81040142 27.67400919 -60.46801923 27.71162546 -58.125 27.75 C-56.52345004 27.76506922 -54.92188642 27.77875368 -53.3203125 27.79101562 C-49.42153417 27.82385574 -45.52341944 27.87551437 -41.625 27.9375 C-41.63877686 26.27835571 -41.63877686 26.27835571 -41.65283203 24.58569336 C-41.59112176 16.4967755 -38.24610869 9.69662698 -32.625 3.9375 C-23.49989707 -3.02730394 -10.63278885 -4.95114595 0 0 Z " fill="#F3F6F7" transform="translate(269.625,2.0625)"/>
<path d="M0 0 C7.05011728 4.19452356 11.82747189 10.45080942 14.0625 18.375 C14.45261791 21.57396683 14.39383035 24.71751019 14.375 27.9375 C15.36306641 27.92178955 16.35113281 27.9060791 17.36914062 27.88989258 C21.06664747 27.83522147 24.76411924 27.80101608 28.46191406 27.77270508 C30.05637641 27.75770255 31.65079808 27.73729379 33.24511719 27.71118164 C35.54893077 27.67441866 37.8521946 27.65768845 40.15625 27.64453125 C40.85866821 27.62904739 41.56108643 27.61356354 42.28479004 27.59761047 C49.86300289 27.5950856 55.95885741 29.96149909 61.625 35.125 C62.43453125 35.84042969 63.2440625 36.55585937 64.078125 37.29296875 C66.0876388 39.60664365 67.2057853 41.3910961 68.51855469 44.1027832 C68.86907898 44.82142044 69.21960327 45.54005768 69.58074951 46.2804718 C69.84285217 46.82729111 70.10495483 47.37411041 70.375 47.9375 C71.53931549 47.94336624 72.70363098 47.94923248 73.90322876 47.95527649 C84.87973954 48.01250764 95.85605228 48.08527153 106.83236122 48.17321491 C112.47530309 48.21792832 118.1181726 48.25718249 123.76123047 48.28393555 C129.20784648 48.30995857 134.65418418 48.35035433 140.1006279 48.40068626 C142.17778434 48.41736166 144.25498892 48.42887174 146.33220291 48.43511391 C149.24341203 48.44474749 152.15390802 48.47279847 155.06494141 48.50512695 C156.35103806 48.50297432 156.35103806 48.50297432 157.66311646 48.5007782 C163.48037241 48.59204393 167.81059463 49.57201077 172.23828125 53.65625 C172.71652344 54.2440625 173.19476563 54.831875 173.6875 55.4375 C174.17863281 56.0253125 174.66976563 56.613125 175.17578125 57.21875 C177.2269718 60.15856708 177.50103496 62.74046224 177.50922108 66.21263695 C177.51367892 67.08985889 177.51813676 67.96708083 177.52272969 68.87088525 C177.52245315 70.3176036 177.52245315 70.3176036 177.52217102 71.79354858 C177.52584771 72.81755567 177.5295244 73.84156276 177.5333125 74.89660037 C177.54436782 78.34432062 177.54819628 81.79201075 177.55200195 85.23974609 C177.55826508 87.70495195 177.56491174 90.17015685 177.57191467 92.63536072 C177.59115301 100.04391045 177.60174333 107.45245218 177.61064246 114.86101955 C177.61502558 118.34905489 177.62039224 121.8370887 177.62563133 125.32512283 C177.64264114 136.91802594 177.65713648 148.51092811 177.66438007 160.10384178 C177.66628998 163.1118711 177.66821032 166.1199004 177.67016602 169.12792969 C177.67064976 169.87556594 177.6711335 170.62320219 177.6716319 171.39349408 C177.67993668 183.51147659 177.70528222 195.62936052 177.73774669 207.74729995 C177.77079782 220.18546756 177.78882697 232.62358503 177.79202431 245.06179678 C177.79419097 252.04671634 177.80296249 259.03149206 177.82848549 266.01636887 C177.85242964 272.58432633 177.85603046 279.15207105 177.84572411 285.72007942 C177.8452268 288.13360136 177.85160426 290.54713573 177.86528015 292.96061897 C177.88287923 296.24988858 177.87595153 299.53821517 177.86274719 302.82748413 C177.87371644 303.78750159 177.88468568 304.74751904 177.89598733 305.73662794 C177.85440579 310.01276877 177.75559486 312.3203454 175.46780682 316.03011417 C173.17900794 318.11612732 172.35239451 318.56436418 169.3125 318.56860352 C168.52488281 318.58113663 167.73726563 318.59366974 166.92578125 318.60658264 C165.66314453 318.58669533 165.66314453 318.58669533 164.375 318.56640625 C163.50230469 318.56881821 162.62960937 318.57123016 161.73046875 318.57371521 C159.88797454 318.57273704 158.04545084 318.55935055 156.203125 318.53442383 C153.38440016 318.50011442 150.56881063 318.51376475 147.75 318.53320312 C145.95832 318.5263045 144.16664809 318.51663196 142.375 318.50390625 C141.53324219 318.50886612 140.69148438 318.51382599 139.82421875 318.51893616 C133.98216606 318.40147211 133.98216606 318.40147211 130.875 316.02709961 C128.73684954 313.04851403 128.25012966 311.43051324 128.25195217 307.81829643 C128.24996112 306.95043223 128.24797007 306.08256803 128.24591869 305.18840492 C128.24883153 304.22927542 128.25174437 303.27014593 128.25474548 302.2819519 C128.25346385 300.76030715 128.25346385 300.76030715 128.25215632 299.2079221 C128.25050077 295.78687187 128.25602413 292.36586998 128.26147461 288.94482422 C128.26175649 286.50121054 128.26159873 284.05759678 128.2610321 281.61398315 C128.26080391 276.34179938 128.26365211 271.06963083 128.26926994 265.79745102 C128.27738717 258.17470802 128.28000039 250.551971 128.28125793 242.92922415 C128.2834481 230.56267599 128.29010724 218.19613442 128.29956055 205.82958984 C128.30873557 193.81461622 128.31581596 181.79964439 128.32006836 169.78466797 C128.32046244 168.67429378 128.32046244 168.67429378 128.32086449 167.5414878 C128.3221695 163.82797941 128.32343322 160.114471 128.32467639 156.40096259 C128.33504791 125.57980264 128.35348563 94.75865477 128.375 63.9375 C109.565 63.9375 90.755 63.9375 71.375 63.9375 C71.375 69.2175 71.375 74.4975 71.375 79.9375 C67.375 84.9375 67.375 84.9375 64.3639679 85.5667057 C62.585326 85.5695334 62.585326 85.5695334 60.77075195 85.57241821 C60.10862103 85.58021817 59.44649012 85.58801812 58.76429462 85.59605443 C56.54672327 85.61599057 54.33086515 85.60020614 52.11328125 85.58447266 C50.5231323 85.59124816 48.9329912 85.60015092 47.34286499 85.61102295 C43.02459376 85.63383126 38.70691931 85.62497389 34.38863754 85.60912752 C29.87146129 85.59647636 25.35433644 85.60820645 20.8371582 85.61605835 C13.25104591 85.62515722 5.66517692 85.61316084 -1.92089844 85.58935547 C-10.69386767 85.56214365 -19.46625593 85.57095765 -28.23921108 85.5984875 C-35.76885422 85.62117087 -43.29832236 85.62438246 -50.82798862 85.61129415 C-55.32628974 85.60349535 -59.82431771 85.60246969 -64.32260132 85.61897659 C-68.55158076 85.633411 -72.77981058 85.62341919 -77.00870895 85.59450531 C-78.56152475 85.58788888 -80.11440355 85.58980178 -81.66719437 85.60081863 C-83.7859009 85.61446571 -85.90219935 85.59737493 -88.02075195 85.57241821 C-89.20651321 85.57053308 -90.39227448 85.56864796 -91.6139679 85.5667057 C-94.625 84.9375 -94.625 84.9375 -98.625 79.9375 C-98.625 74.6575 -98.625 69.3775 -98.625 63.9375 C-117.435 63.9375 -136.245 63.9375 -155.625 63.9375 C-155.61452637 71.42920898 -155.60405273 78.92091797 -155.59326172 86.63964844 C-155.56117603 110.59790807 -155.5389212 134.55616644 -155.52286934 158.51444171 C-155.52036786 162.23456276 -155.51777923 165.95468374 -155.51513672 169.67480469 C-155.5146121 170.41542791 -155.51408748 171.15605113 -155.51354696 171.91911748 C-155.50483937 183.91829848 -155.48906745 195.91746035 -155.47069441 207.91663 C-155.4520052 220.22474319 -155.44088535 232.53284634 -155.43682301 244.84097314 C-155.43407592 252.43850681 -155.42539289 260.03598643 -155.40916707 267.63350347 C-155.3973663 273.45484459 -155.39608618 279.27615783 -155.39878464 285.09751129 C-155.3982328 287.48886956 -155.39423328 289.88022981 -155.38658905 292.27157593 C-155.37668615 295.52827459 -155.37901414 298.78473916 -155.38449097 302.04144287 C-155.37866528 302.99474668 -155.3728396 303.94805049 -155.36683738 304.9302423 C-155.37081948 305.8020886 -155.37480158 306.67393489 -155.37890434 307.57220078 C-155.3781449 308.32404703 -155.37738546 309.07589328 -155.37660301 309.85052276 C-155.66844166 312.30248736 -156.30616928 313.85349909 -157.625 315.9375 C-161.55356989 318.55654659 -164.96339032 318.27969474 -169.52734375 318.30859375 C-170.40145401 318.31762222 -171.27556427 318.3266507 -172.17616272 318.33595276 C-174.02455214 318.35045717 -175.87299292 318.35934247 -177.72143555 318.36303711 C-180.54889309 318.37494271 -183.37417443 318.42413167 -186.20117188 318.47460938 C-187.99738518 318.48407267 -189.79361189 318.49130815 -191.58984375 318.49609375 C-192.43473862 318.51562607 -193.27963348 318.53515839 -194.15013123 318.55528259 C-194.9409761 318.54920486 -195.73182098 318.54312714 -196.54663086 318.53686523 C-197.2392955 318.54193588 -197.93196014 318.54700653 -198.64561462 318.55223083 C-201.91306747 317.53746936 -202.84165544 315.82825638 -204.625 312.9375 C-205.21532133 309.5754159 -205.16035827 306.25395931 -205.12620544 302.84767151 C-205.13173984 301.82266114 -205.13727424 300.79765077 -205.14297634 299.74157947 C-205.15660456 296.3021648 -205.14160121 292.86347303 -205.12670898 289.42407227 C-205.13049138 286.96019176 -205.13599075 284.49631339 -205.14308167 282.03244019 C-205.15561185 276.03185204 -205.14945728 270.03154791 -205.13440608 264.03098721 C-205.11754362 257.04216275 -205.1207566 250.05339069 -205.12450016 243.06455218 C-205.130379 230.59336662 -205.11620687 218.12228201 -205.09155273 205.65112305 C-205.06763703 193.55212621 -205.06054643 181.45326428 -205.07104492 169.35424805 C-205.08245756 156.17812799 -205.08437953 143.00207034 -205.06994683 129.82595104 C-205.068421 128.42055222 -205.06690064 127.01515339 -205.06538582 125.60975456 C-205.064628 124.9182821 -205.06387019 124.22680963 -205.06308941 123.51438345 C-205.05834885 118.64398975 -205.06019644 113.77362394 -205.06445122 108.90323067 C-205.06989611 102.34590623 -205.05912285 95.78874146 -205.03749657 89.2314415 C-205.03192708 86.82319075 -205.03146486 84.41492203 -205.03644943 82.00667 C-205.04239524 78.72234249 -205.02990984 75.43858799 -205.01268005 72.15431213 C-205.0186901 71.19857176 -205.02470014 70.24283138 -205.03089231 69.25812918 C-204.97280374 63.1794681 -204.18841198 58.71647163 -199.90625 54.07421875 C-199.3184375 53.59597656 -198.730625 53.11773437 -198.125 52.625 C-197.24328125 51.88830078 -197.24328125 51.88830078 -196.34375 51.13671875 C-192.18019787 48.23169488 -187.51187159 48.76437204 -182.65551758 48.73217773 C-181.27960701 48.71732834 -181.27960701 48.71732834 -179.87590027 48.70217896 C-176.84047029 48.6705622 -173.80502465 48.64580577 -170.76953125 48.62109375 C-168.66631155 48.60052438 -166.56309598 48.57952791 -164.45988464 48.55812073 C-158.92134956 48.50289833 -153.38277716 48.45348975 -147.84417725 48.40527344 C-142.19361038 48.35505967 -136.54309777 48.29937295 -130.89257812 48.24414062 C-119.80343176 48.13655698 -108.7142383 48.03511242 -97.625 47.9375 C-97.28930496 47.31708832 -96.95360992 46.69667664 -96.60774231 46.0574646 C-95.9410981 44.83865097 -95.9410981 44.83865097 -95.26098633 43.59521484 C-94.82216629 42.78917816 -94.38334625 41.98314148 -93.93122864 41.15267944 C-92.36818666 38.50198081 -90.63551091 36.575493 -88.3125 34.5625 C-87.61511719 33.93601563 -86.91773438 33.30953125 -86.19921875 32.6640625 C-80.16472461 28.61664762 -74.49328152 27.48830726 -67.40625 27.64453125 C-66.66290405 27.64877609 -65.91955811 27.65302094 -65.15368652 27.65739441 C-62.81040142 27.67400919 -60.46801923 27.71162546 -58.125 27.75 C-56.52345004 27.76506922 -54.92188642 27.77875368 -53.3203125 27.79101562 C-49.42153417 27.82385574 -45.52341944 27.87551437 -41.625 27.9375 C-41.63877686 26.27835571 -41.63877686 26.27835571 -41.65283203 24.58569336 C-41.59112176 16.4967755 -38.24610869 9.69662698 -32.625 3.9375 C-23.49989707 -3.02730394 -10.63278885 -4.95114595 0 0 Z " fill="#010101" transform="translate(269.625,2.0625)"/>
<path d="M0 0 C3.64745375 3.01794396 6.97279992 6.29290448 10.27978516 9.67724609 C11.47861328 10.84513672 11.47861328 10.84513672 12.70166016 12.03662109 C27.94828967 27.70384728 35.08706995 49.55191156 35.52978516 71.11474609 C35.09110904 92.60987573 28.21799431 112.22197885 14.27978516 128.67724609 C13.50054687 129.67304688 13.50054687 129.67304688 12.70556641 130.68896484 C-0.68691615 147.19446997 -22.84766869 157.41147628 -43.72021484 159.67724609 C-69.39038399 161.18849318 -92.88296962 154.58784393 -112.50561523 137.73339844 C-126.37731783 125.30098201 -135.1562112 109.65804438 -139.72021484 91.67724609 C-139.94580078 90.81099609 -140.17138672 89.94474609 -140.40380859 89.05224609 C-145.42872549 66.31882898 -139.91110377 42.18266838 -127.72021484 22.67724609 C-125.51397594 19.56255587 -123.16129058 16.60988857 -120.72021484 13.67724609 C-120.24970703 13.07267578 -119.77919922 12.46810547 -119.29443359 11.84521484 C-91.44146503 -22.91215156 -34.34088503 -26.40631778 0 0 Z M-77.73193359 49.71630859 C-83.55489195 56.62573088 -86.38549842 64.31929662 -86.00146484 73.39208984 C-84.72025017 83.80195911 -79.90463432 91.80170208 -71.75537109 98.35693359 C-63.65215328 103.61391559 -54.71621803 105.04923375 -45.31005859 103.20458984 C-36.16009288 100.58358766 -29.67062637 94.65978468 -24.72021484 86.67724609 C-20.62591136 78.93645356 -19.60516696 71.30125131 -21.84521484 62.80224609 C-24.99147232 53.17323484 -30.65757553 46.39826474 -39.61083984 41.68115234 C-53.17223515 35.51956187 -67.47257553 39.31750294 -77.73193359 49.71630859 Z " fill="#8ECEF9" transform="translate(294.72021484375,352.32275390625)"/>
<path d="M0 0 C5.06421262 4.15174188 9.17340363 10.63710328 10.3125 17.125 C11.13113713 26.2776315 10.17839423 33.86738385 4.65234375 41.3828125 C-0.842132 47.49781426 -7.18246945 50.32305321 -15.26171875 51.5 C-22.7116746 51.8742521 -28.77658992 49.24240991 -35.234375 45.74609375 C-43.57306235 41.4163907 -52.2687758 40.32629635 -61.43359375 42.89453125 C-63.64308115 43.8297443 -65.63713636 44.8835351 -67.6875 46.125 C-68.739375 46.681875 -69.79125 47.23875 -70.875 47.8125 C-77.80495724 53.51046484 -81.84066169 61.69530172 -83.00390625 70.52734375 C-83.45495032 79.73737274 -80.16844122 88.28611284 -74.390625 95.40625 C-68.1088218 101.74568442 -59.56937493 104.97939549 -50.6875 105.125 C-42.33697011 104.23181938 -37.28040277 100.60547055 -31.1875 95 C-27.77898965 91.93802154 -25.28544121 89.98711398 -20.6875 89.125 C-20.01074219 88.99480469 -19.33398438 88.86460937 -18.63671875 88.73046875 C-10.40819446 87.43721191 -3.43938293 88.9572618 3.4609375 93.64453125 C8.43414086 97.62099554 12.97702001 102.76505019 14.3125 109.125 C15.2885137 118.63571128 14.79301127 126.15334724 9.3125 134.125 C8.91289062 134.723125 8.51328125 135.32125 8.1015625 135.9375 C0.53947018 145.83696631 -11.23648381 152.82414885 -22.6875 157.125 C-24.27304687 157.74375 -24.27304687 157.74375 -25.890625 158.375 C-42.99889242 163.99963586 -63.79188786 163.11008909 -80.6875 157.125 C-81.74582031 156.76277344 -82.80414063 156.40054688 -83.89453125 156.02734375 C-95.78866893 151.52314527 -105.68183739 143.98229914 -114.6875 135.125 C-115.45964844 134.36574219 -116.23179687 133.60648438 -117.02734375 132.82421875 C-132.99113981 116.15092065 -140.26755953 93.54246818 -140.10693359 70.7487793 C-139.32889877 44.37841831 -127.38011382 22.93435673 -108.5 5 C-78.29297496 -21.04961219 -32.60034289 -21.81619904 0 0 Z " fill="#010101" transform="translate(481.6875,350.875)"/>
<path d="M0 0 C1.07002258 -0.00287018 2.14004517 -0.00574036 3.24249268 -0.00869751 C5.49825573 -0.01073114 7.7540367 -0.0052506 10.00976562 0.00732422 C13.42879573 0.02332365 16.84663234 0.00748354 20.265625 -0.01171875 C22.46875257 -0.00973496 24.67187941 -0.00588849 26.875 0 C28.38498566 -0.00910904 28.38498566 -0.00910904 29.92547607 -0.0184021 C47.15516625 0.1488263 62.01249302 6.63307981 74.14453125 18.703125 C85.57360229 30.74290976 91.65327656 45.78922268 92.203125 62.3984375 C91.58724512 79.86161203 84.91166834 95.32250848 72.58984375 107.73828125 C58.60371842 120.62671339 42.20006856 124.87204345 23.703125 124.3984375 C23.71883545 125.45587158 23.71883545 125.45587158 23.73486328 126.53466797 C23.77687005 129.78088706 23.8025916 133.02704866 23.828125 136.2734375 C23.84488281 137.38203125 23.86164063 138.490625 23.87890625 139.6328125 C23.94633451 151.09561636 23.05878998 160.87551818 14.7734375 169.37890625 C7.97967961 175.59583564 1.85751266 177.28255918 -7.296875 177.3984375 C-16.11729945 176.43202578 -22.05056455 172.11446686 -27.71875 165.69140625 C-32.74539912 158.38783438 -32.73744315 151.94929929 -32.71679688 143.27807617 C-32.72526642 141.96663132 -32.73373596 140.65518646 -32.74246216 139.30400085 C-32.7646032 135.72115642 -32.76761251 132.13854248 -32.76571465 128.55563903 C-32.76559457 125.55641863 -32.77417379 122.55724641 -32.78249216 119.55803949 C-32.80170042 112.47672967 -32.80461985 105.39553771 -32.79785156 98.31420898 C-32.79121598 91.02898115 -32.81406117 83.74426029 -32.85116529 76.45913523 C-32.88194084 70.187098 -32.89321376 63.91522316 -32.88932848 57.643112 C-32.88726866 53.90472807 -32.89261992 50.16673861 -32.91722107 46.42842674 C-32.94378476 42.254275 -32.92970081 38.08118174 -32.91210938 33.90698242 C-32.92537262 32.68223206 -32.93863586 31.45748169 -32.95230103 30.19561768 C-32.86829596 21.59219328 -31.2601506 14.73370446 -25.33638763 8.25393963 C-17.85437413 1.01032482 -10.01098217 -0.05990971 0 0 Z M23.703125 56.3984375 C23.703125 60.3584375 23.703125 64.3184375 23.703125 68.3984375 C26.5632487 68.63678114 28.90070055 68.83081156 31.703125 68.3984375 C34.3909589 66.31089398 34.3909589 66.31089398 35.703125 63.3984375 C35.63002427 60.91301268 34.91617958 59.74935093 33.640625 57.6484375 C30.47235729 55.60439382 27.41149808 56.2160585 23.703125 56.3984375 Z " fill="#8ECFFA" transform="translate(48.296875,334.6015625)"/>
<path d="M0 0 C3.64745375 3.01794396 6.97279992 6.29290448 10.27978516 9.67724609 C11.47861328 10.84513672 11.47861328 10.84513672 12.70166016 12.03662109 C27.94828967 27.70384728 35.08706995 49.55191156 35.52978516 71.11474609 C35.09110904 92.60987573 28.21799431 112.22197885 14.27978516 128.67724609 C13.50054687 129.67304688 13.50054687 129.67304688 12.70556641 130.68896484 C-0.68691615 147.19446997 -22.84766869 157.41147628 -43.72021484 159.67724609 C-69.39038399 161.18849318 -92.88296962 154.58784393 -112.50561523 137.73339844 C-126.37731783 125.30098201 -135.1562112 109.65804438 -139.72021484 91.67724609 C-139.94580078 90.81099609 -140.17138672 89.94474609 -140.40380859 89.05224609 C-145.42872549 66.31882898 -139.91110377 42.18266838 -127.72021484 22.67724609 C-125.51397594 19.56255587 -123.16129058 16.60988857 -120.72021484 13.67724609 C-120.24970703 13.07267578 -119.77919922 12.46810547 -119.29443359 11.84521484 C-91.44146503 -22.91215156 -34.34088503 -26.40631778 0 0 Z M-109.97021484 25.11474609 C-124.4325773 41.99235218 -126.8105835 61.25677801 -125.72021484 82.67724609 C-125.16037348 86.91352605 -124.20078004 90.67733205 -122.72021484 94.67724609 C-122.37990234 95.66466797 -122.03958984 96.65208984 -121.68896484 97.66943359 C-118.83052545 105.25974902 -114.77629779 111.37419086 -109.72021484 117.67724609 C-109.16462891 118.39783203 -108.60904297 119.11841797 -108.03662109 119.86083984 C-98.00421335 132.20286663 -82.238924 140.64495695 -66.72021484 143.67724609 C-62.56287316 144.06605499 -58.45565206 144.09852636 -54.28271484 144.05224609 C-52.7194043 144.06964844 -52.7194043 144.06964844 -51.12451172 144.08740234 C-40.49352962 144.04785746 -30.87633386 141.83032151 -21.47021484 136.86474609 C-20.78983154 136.51436279 -20.10944824 136.16397949 -19.40844727 135.80297852 C-12.24067718 132.0321418 -6.25106099 127.6229057 -0.72021484 121.67724609 C-0.12595703 121.09974609 0.46830078 120.52224609 1.08056641 119.92724609 C14.31782385 106.35584429 19.52793347 88.09597061 19.45825195 69.59082031 C19.20525364 49.35506896 11.38373712 33.0239511 -2.72021484 18.67724609 C-3.64253906 17.73558594 -3.64253906 17.73558594 -4.58349609 16.77490234 C-19.97791579 2.23755955 -39.14489574 -1.96757434 -59.66503906 -1.41162109 C-80.1313691 -0.52664317 -96.41203002 10.5255206 -109.97021484 25.11474609 Z " fill="#010101" transform="translate(294.72021484375,352.32275390625)"/>
<path d="M0 0 C0.65548828 0.31517578 1.31097656 0.63035156 1.98632812 0.95507812 C7.06159923 3.59591262 10.64546749 6.91593497 13.25 12.125 C13.69196991 16.01433523 13.40595304 17.84094267 11.5 21.3125 C9.04615646 24.37980442 7.04254753 26.66175738 3.1640625 27.6640625 C-4.07137011 27.9356999 -9.26849482 25.25170986 -15.453125 21.8515625 C-25.50799618 16.58585982 -36.90738352 16.70620241 -47.6875 19.75 C-53.37530061 21.74670627 -58.0078427 24.43977322 -62.75 28.125 C-63.35199219 28.52976562 -63.95398438 28.93453125 -64.57421875 29.3515625 C-71.93851731 34.74653178 -77.5658329 45.37762488 -79.75 54.125 C-81.38143192 69.83980674 -79.43832264 82.9816665 -69.75 95.84375 C-61.81536042 104.89419827 -50.66521968 111.4713601 -38.5 112.36328125 C-26.15528503 112.60760373 -16.15988247 110.50760272 -6.75 102.125 C-6.18023437 101.5578125 -5.61046875 100.990625 -5.0234375 100.40625 C-1.89719568 97.37993372 0.31394091 95.69025293 4.75 95.375 C9.26511181 95.66879152 11.73844371 97.55142522 14.9375 100.6171875 C17.83137892 103.94170316 17.53624203 106.83136957 17.25 111.125 C14.14622273 120.64325028 4.76023177 127.00387162 -3.6171875 131.62109375 C-20.3567429 139.65691523 -39.25499206 140.69659155 -56.86669922 134.81396484 C-66.61111299 131.24918189 -75.04582033 126.08968599 -82.75 119.125 C-83.45769531 118.49851562 -84.16539062 117.87203125 -84.89453125 117.2265625 C-93.51789959 109.14730727 -98.81551322 99.16462226 -102.75 88.125 C-103.07097656 87.26132812 -103.39195312 86.39765625 -103.72265625 85.5078125 C-109.20891974 67.90073432 -106.71837939 47.4387462 -98.4375 31.25 C-95.3083898 25.8106744 -91.88319069 20.84477889 -87.75 16.125 C-87.18023437 15.46113281 -86.61046875 14.79726563 -86.0234375 14.11328125 C-63.9117869 -9.83316589 -28.52521922 -13.8535986 0 0 Z " fill="#8ECEF9" transform="translate(463.75,358.875)"/>
<path d="M0 0 C1.07002258 -0.00287018 2.14004517 -0.00574036 3.24249268 -0.00869751 C5.49825573 -0.01073114 7.7540367 -0.0052506 10.00976562 0.00732422 C13.42879573 0.02332365 16.84663234 0.00748354 20.265625 -0.01171875 C22.46875257 -0.00973496 24.67187941 -0.00588849 26.875 0 C28.38498566 -0.00910904 28.38498566 -0.00910904 29.92547607 -0.0184021 C47.15516625 0.1488263 62.01249302 6.63307981 74.14453125 18.703125 C85.57360229 30.74290976 91.65327656 45.78922268 92.203125 62.3984375 C91.58724512 79.86161203 84.91166834 95.32250848 72.58984375 107.73828125 C58.60371842 120.62671339 42.20006856 124.87204345 23.703125 124.3984375 C23.71883545 125.45587158 23.71883545 125.45587158 23.73486328 126.53466797 C23.77687005 129.78088706 23.8025916 133.02704866 23.828125 136.2734375 C23.84488281 137.38203125 23.86164063 138.490625 23.87890625 139.6328125 C23.94633451 151.09561636 23.05878998 160.87551818 14.7734375 169.37890625 C7.97967961 175.59583564 1.85751266 177.28255918 -7.296875 177.3984375 C-16.11729945 176.43202578 -22.05056455 172.11446686 -27.71875 165.69140625 C-32.74539912 158.38783438 -32.73744315 151.94929929 -32.71679688 143.27807617 C-32.72526642 141.96663132 -32.73373596 140.65518646 -32.74246216 139.30400085 C-32.7646032 135.72115642 -32.76761251 132.13854248 -32.76571465 128.55563903 C-32.76559457 125.55641863 -32.77417379 122.55724641 -32.78249216 119.55803949 C-32.80170042 112.47672967 -32.80461985 105.39553771 -32.79785156 98.31420898 C-32.79121598 91.02898115 -32.81406117 83.74426029 -32.85116529 76.45913523 C-32.88194084 70.187098 -32.89321376 63.91522316 -32.88932848 57.643112 C-32.88726866 53.90472807 -32.89261992 50.16673861 -32.91722107 46.42842674 C-32.94378476 42.254275 -32.92970081 38.08118174 -32.91210938 33.90698242 C-32.92537262 32.68223206 -32.93863586 31.45748169 -32.95230103 30.19561768 C-32.86829596 21.59219328 -31.2601506 14.73370446 -25.33638763 8.25393963 C-17.85437413 1.01032482 -10.01098217 -0.05990971 0 0 Z M-15.93434238 21.70226383 C-17.44221287 24.68603144 -17.67589344 26.49823144 -17.68455505 29.81871033 C-17.69445969 30.89392441 -17.70436432 31.96913849 -17.71456909 33.07693481 C-17.71006744 34.2464267 -17.7055658 35.41591858 -17.70092773 36.62084961 C-17.70779099 37.86039902 -17.71465424 39.09994843 -17.72172546 40.37705994 C-17.73687774 43.76980615 -17.73849112 47.16200234 -17.73278308 50.55474162 C-17.72968922 53.39020537 -17.73578588 56.22561954 -17.74182183 59.06107622 C-17.75586128 65.7519412 -17.75431074 72.44267848 -17.74291992 79.13354492 C-17.73143985 86.02908057 -17.74551348 92.92422723 -17.7723164 99.81971163 C-17.79449008 105.74684888 -17.80110703 111.67386417 -17.79523998 117.60103995 C-17.79187307 121.13805652 -17.79426744 124.67482377 -17.81149101 128.21180534 C-17.82986406 132.15690167 -17.81575577 136.10152148 -17.79858398 140.04663086 C-17.80825195 141.21409851 -17.81791992 142.38156616 -17.82788086 143.58441162 C-17.75812172 151.23152107 -16.76470286 154.68290765 -11.546875 160.2734375 C-8.15282843 161.97046078 -4.96203059 162.03401361 -1.296875 161.3984375 C3.17472376 159.12045323 5.59323248 156.92559896 7.703125 152.3984375 C8.12784571 149.42529855 8.12045533 146.48385687 8.109375 143.484375 C8.12021118 142.63291901 8.13104736 141.78146301 8.14221191 140.90420532 C8.18799363 137.27375663 8.19958614 133.64338117 8.21435547 130.01269531 C8.23002094 127.35716126 8.26300513 124.70222902 8.296875 122.046875 C8.29385376 121.22496674 8.29083252 120.40305847 8.28771973 119.5562439 C8.36359939 113.81939362 8.36359939 113.81939362 10.08880615 111.68041992 C12.28891984 109.93323901 13.7126628 110.04405826 16.5 110.0625 C17.92759644 110.04860229 17.92759644 110.04860229 19.3840332 110.03442383 C20.3968335 110.03079834 21.40963379 110.02717285 22.453125 110.0234375 C38.57175058 109.63586803 52.99334654 105.6683759 64.515625 93.7109375 C74.17037243 82.38452002 76.7797721 69.09921138 75.94140625 54.62841797 C74.64293578 42.47654375 66.99325641 32.54908513 57.859375 24.9609375 C44.99151971 15.63640468 31.15482656 14.88432226 15.83129883 14.95239258 C12.87967641 14.96096931 9.92995099 14.93195809 6.97851562 14.90039062 C5.08854224 14.89877986 3.19856546 14.89935376 1.30859375 14.90234375 C0.43349655 14.89110977 -0.44160065 14.87987579 -1.34321594 14.86830139 C-7.74880297 14.94114414 -12.03149319 16.21117019 -15.93434238 21.70226383 Z " fill="#000000" transform="translate(48.296875,334.6015625)"/>
<path d="M0 0 C4.19263347 0.67082136 5.59426627 2.15049948 8.125 5.5 C8.67784919 8.16203855 8.5560176 9.78967026 7.13378906 12.13354492 C5.74869173 13.97543517 4.30218646 15.74168156 2.8125 17.5 C-2.10013384 23.13403883 -2.10013384 23.13403883 -5.875 29.5 C-5.41643387 31.84661773 -5.41643387 31.84661773 -4.125 34 C1.0301895 43.76049211 0.03083407 55.35030749 -2.90234375 65.71875 C-7.33272449 78.38714795 -16.13715356 87.22731794 -27.875 93.5 C-39.28326574 97.86198396 -51.46524286 97.84448445 -62.875 93.5 C-77.30316478 85.94152674 -84.82309969 75.65570094 -89.875 60.5 C-91.25839579 46.2545256 -89.91028822 33.77855886 -80.58984375 22.37109375 C-73.67209957 14.82303119 -64.63553822 7.311783 -53.96484375 6.32299805 C-40.84295564 5.94940527 -30.46806165 6.54844152 -19.62890625 14.7421875 C-17.86824346 15.7222011 -17.86824346 15.7222011 -15.90625 14.94140625 C-13.34338719 13.12275937 -11.71606334 11.06023919 -9.8125 8.5625 C-3.74177012 0.65074263 -3.74177012 0.65074263 0 0 Z " fill="#030303" transform="translate(221.875,228.5)"/>
<path d="M0 0 C2.5 2.125 2.5 2.125 4 5 C3.86759057 10.80118795 1.1067793 13.86973263 -2.5 18.0625 C-7.29756493 23.3207677 -7.29756493 23.3207677 -9 30 C-8.25190573 32.39389579 -8.25190573 32.39389579 -7.0625 34.8125 C-2.94308653 45.33197107 -3.98005442 57.46069531 -8.1171875 67.7890625 C-14.14675543 81.24487794 -23.56367914 88.5040418 -37.046875 93.8046875 C-48.63722268 97.42047973 -61.08425887 95.19096178 -71.625 89.75 C-82.37981267 83.35012908 -89.61855106 74.41521444 -93.41333008 62.42236328 C-94.40616307 58.32295048 -94.48898323 54.32676105 -94.4375 50.125 C-94.42920166 49.24803467 -94.42090332 48.37106934 -94.41235352 47.4675293 C-94.08643364 34.9468708 -89.53188604 26.71400182 -80.8984375 17.83984375 C-71.74598977 9.18867849 -62.8163032 5.80973966 -50.4375 5.6875 C-49.48552734 5.65849609 -48.53355469 5.62949219 -47.55273438 5.59960938 C-38.56872665 5.52010488 -31.58578346 8.27277089 -23.875 12.75 C-23.12992187 13.17796875 -22.38484375 13.6059375 -21.6171875 14.046875 C-21.08351563 14.36140625 -20.54984375 14.6759375 -20 15 C-19.22914063 14.00097656 -18.45828125 13.00195312 -17.6640625 11.97265625 C-16.65124026 10.66911651 -15.63820855 9.3657395 -14.625 8.0625 C-13.86316406 7.0734668 -13.86316406 7.0734668 -13.0859375 6.06445312 C-12.59609375 5.43603516 -12.10625 4.80761719 -11.6015625 4.16015625 C-10.92601318 3.28822632 -10.92601318 3.28822632 -10.23681641 2.39868164 C-7.37587844 -0.83667439 -4.05604443 -0.4195908 0 0 Z " fill="#030403" transform="translate(226,116)"/>
<path d="M0 0 C2.79192205 -0.05380578 5.5828141 -0.09357669 8.375 -0.125 C9.1690625 -0.14175781 9.963125 -0.15851563 10.78125 -0.17578125 C12.85492015 -0.19335473 14.92883241 -0.10335168 17 0 C19.385599 2.385599 19.2505142 2.86406538 19.25333309 6.10803032 C19.25894849 6.97342772 19.26456388 7.83882513 19.27034944 8.7304467 C19.26636835 9.68684771 19.26238726 10.64324873 19.25828552 11.62863159 C19.26196123 12.64023916 19.26563693 13.65184674 19.26942402 14.69410908 C19.27945586 18.10585613 19.27524294 21.51744185 19.27124023 24.92919922 C19.2756243 27.36632461 19.28092528 29.8034485 19.28707886 32.24057007 C19.29860483 37.49965392 19.30423259 42.75869515 19.30496025 48.01778793 C19.30628413 55.62596967 19.32138035 63.23407759 19.34045542 70.84223332 C19.37131808 83.19087429 19.39547369 95.53951713 19.41333008 107.88818359 C19.41440276 108.62767581 19.41547544 109.36716803 19.41658062 110.1290691 C19.42839994 118.37889111 19.43860489 126.62871387 19.44702148 134.87854004 C19.45009531 137.86938479 19.45318411 140.86022951 19.45629883 143.85107422 C19.45706417 144.58906206 19.45782951 145.32704991 19.45861804 146.08740102 C19.47169326 158.38656955 19.49632469 170.68568476 19.53004223 182.98481381 C19.55035085 190.57480824 19.56061907 198.16468865 19.55805302 205.75471045 C19.55689697 211.56871753 19.57102675 217.38262251 19.59086227 223.19659805 C19.59647882 225.58472293 19.59693146 227.97286619 19.59192467 230.36099243 C19.58581937 233.61333451 19.59794996 236.86510862 19.61473083 240.11740112 C19.60851902 241.0693407 19.6023072 242.02128027 19.59590715 243.00206649 C19.60824187 244.30798584 19.60824187 244.30798584 19.62082577 245.6402874 C19.62164022 246.39104951 19.62245468 247.14181162 19.62329382 247.91532409 C19.93634165 250.53759369 19.93634165 250.53759369 23 254 C13.76 254 4.52 254 -5 254 C-3.68 252.35 -2.36 250.7 -1 249 C-0.41323129 246.78978923 -0.41323129 246.78978923 -0.49219131 244.49603558 C-0.48074373 243.61871484 -0.46929614 242.74139409 -0.45750165 241.83748788 C-0.46526207 240.88320596 -0.47302248 239.92892404 -0.48101807 238.94572449 C-0.46976619 237.41410949 -0.46976619 237.41410949 -0.458287 235.85155278 C-0.43796698 232.42581332 -0.44612127 229.00073299 -0.45410156 225.57495117 C-0.44536894 223.12103621 -0.43488425 220.66712694 -0.42277527 218.21322632 C-0.4006426 212.92795198 -0.3907147 207.64286997 -0.39188385 202.35756493 C-0.39355314 194.71596431 -0.37321794 187.07454659 -0.34752855 179.43299476 C-0.30644525 167.03484722 -0.28313407 154.63673257 -0.27099609 142.23852539 C-0.25916782 130.19552447 -0.23897153 118.15258549 -0.20751953 106.10961914 C-0.20558343 105.36717086 -0.20364733 104.62472258 -0.20165256 103.85977586 C-0.19188798 100.13509492 -0.18195887 96.41041444 -0.17194796 92.68573415 C-0.08912296 61.79051606 -0.03543512 30.89531052 0 0 Z " fill="#EEC667" transform="translate(413,66)"/>
<path d="M0 0 C1.57043101 0.01330874 3.14079971 0.03717648 4.7109375 0.0703125 C5.51273438 0.07933594 6.31453125 0.08835937 7.140625 0.09765625 C9.12252273 0.12125027 11.10426731 0.15712185 13.0859375 0.1953125 C13.08740406 1.47398288 13.08887062 2.75265326 13.09038162 4.07007122 C13.12607394 34.41457343 13.18230103 64.75896018 13.26385845 95.10337115 C13.27387606 98.83722426 13.28372016 102.5710778 13.29345703 106.30493164 C13.2953984 107.04828317 13.29733978 107.79163469 13.29933998 108.55751202 C13.33037171 120.59803525 13.3473439 132.63853942 13.35913172 144.67909511 C13.37153722 157.03133927 13.39902497 169.38348326 13.44055057 181.73566419 C13.4657033 189.35931577 13.4790535 196.98280127 13.47736707 204.60649494 C13.47733384 210.44968864 13.49827192 216.29268821 13.52710533 222.13581467 C13.53564247 224.5347976 13.53732859 226.93381593 13.53174019 229.33280754 C13.52513636 232.60259131 13.54293514 235.8713559 13.56695557 239.14103699 C13.55919515 240.09531891 13.55143473 241.04960082 13.54343915 242.03280038 C13.56061053 243.34878149 13.56061053 243.34878149 13.57812881 244.69134808 C13.5796477 245.44585237 13.58116658 246.20035667 13.58273149 246.97772473 C14.08533998 249.94009758 14.08533998 249.94009758 18.0859375 254.1953125 C8.8459375 254.1953125 -0.3940625 254.1953125 -9.9140625 254.1953125 C-8.4290625 252.2153125 -8.4290625 252.2153125 -6.9140625 250.1953125 C-6.47031382 248.09057949 -6.47031382 248.09057949 -6.53488827 245.8355999 C-6.52255355 244.52968055 -6.52255355 244.52968055 -6.50996965 243.19737899 C-6.51618147 242.24543942 -6.52239328 241.29349985 -6.52879333 240.31271362 C-6.52355764 239.29798607 -6.51832194 238.28325852 -6.51292759 237.23778164 C-6.49892545 233.82750925 -6.50627794 230.41761305 -6.51342773 227.00732422 C-6.50768762 224.56665713 -6.50060585 222.12599288 -6.49227905 219.68533325 C-6.47714615 214.42516911 -6.47102856 209.16511101 -6.47280693 203.90493393 C-6.47518905 196.29742872 -6.45920994 188.69004679 -6.43835438 181.08257379 C-6.40482372 168.73718709 -6.3831643 156.39181141 -6.37036133 144.04638672 C-6.36920709 142.93805796 -6.36920709 142.93805796 -6.36802954 141.80733873 C-6.36492701 138.81316969 -6.3618442 135.81900063 -6.3587895 132.82483154 C-6.35025523 124.57771702 -6.33935554 116.3306063 -6.32739258 108.08349609 C-6.32632456 107.34490289 -6.32525654 106.60630969 -6.32415616 105.84533487 C-6.30608321 93.54386626 -6.28010347 81.24242398 -6.24926144 68.94098103 C-6.2306787 61.3493294 -6.21978992 53.75773684 -6.21873952 46.16606213 C-6.21750881 40.35599097 -6.20646919 34.54596606 -6.19179916 28.73591232 C-6.18750173 26.34694283 -6.18667134 23.95796433 -6.18947411 21.56899261 C-6.19284939 18.32054993 -6.18415124 15.07236167 -6.17234802 11.82394409 C-6.17632912 10.86754308 -6.18031021 9.91114206 -6.18441194 8.9257592 C-6.17879655 8.06036179 -6.17318115 7.19496439 -6.16739559 6.30334282 C-6.16641744 5.17768671 -6.16641744 5.17768671 -6.16541952 4.02929008 C-5.6208933 0.05626047 -3.68634162 0.18394918 0 0 Z " fill="#EED877" transform="translate(85.9140625,65.8046875)"/>
<path d="M0 0 C8.58056895 6.74091645 16.77467986 17.87671145 18.49609375 28.9609375 C19.26153341 45.24878135 17.20271559 58.52524516 6.18359375 71.3359375 C-3.08107709 80.97119517 -13.41079735 85.93117908 -26.82373047 86.48461914 C-40.44350242 86.68659114 -51.41918513 83.47157582 -61.50390625 73.9609375 C-70.92460706 64.77960114 -76.61262052 54.16390435 -76.93505859 40.84301758 C-76.95809008 31.51969421 -76.3027957 24.20942653 -71.50390625 15.9609375 C-71.06949219 15.166875 -70.63507813 14.3728125 -70.1875 13.5546875 C-63.34787285 2.17479503 -53.02121117 -4.48974428 -40.6171875 -8.67578125 C-26.15231274 -11.16234937 -12.09762944 -8.32260719 0 0 Z M-53.515625 17 C-59.33858336 23.90942229 -62.16918983 31.60298803 -61.78515625 40.67578125 C-60.50394157 51.08565051 -55.68832573 59.08539348 -47.5390625 65.640625 C-39.43584468 70.897607 -30.49990944 72.33292516 -21.09375 70.48828125 C-11.94378428 67.86727906 -5.45431778 61.94347608 -0.50390625 53.9609375 C3.59039724 46.22014497 4.61114164 38.58494272 2.37109375 30.0859375 C-0.77516373 20.45692625 -6.44126693 13.68195615 -15.39453125 8.96484375 C-28.95592655 2.80325327 -43.25626693 6.60119435 -53.515625 17 Z " fill="#010102" transform="translate(270.50390625,385.0390625)"/>
<path d="M0 0 C0.98694855 -0.0071553 1.97389709 -0.01431061 2.99075317 -0.02168274 C4.0775235 -0.02437164 5.16429382 -0.02706055 6.28399658 -0.02983093 C7.4255722 -0.03640213 8.56714783 -0.04297333 9.74331665 -0.04974365 C13.5345465 -0.06951166 17.32573669 -0.08114705 21.11700439 -0.09111023 C22.4095237 -0.09518576 23.702043 -0.09926128 25.03372955 -0.10346031 C31.16865853 -0.12218159 37.30356755 -0.13674385 43.43851924 -0.14507228 C50.51680381 -0.15484018 57.59477528 -0.18114664 64.67294955 -0.22157317 C70.8057362 -0.25539601 76.93839143 -0.26721934 83.07126617 -0.27127647 C85.67878594 -0.27615385 88.28630208 -0.28780033 90.89376068 -0.30631447 C94.54232309 -0.33061051 98.19006587 -0.32975775 101.83868408 -0.32279968 C102.91735748 -0.33560974 103.99603088 -0.3484198 105.10739136 -0.36161804 C111.18040447 -0.31937329 114.70003177 0.09086055 119.32012939 4.14717102 C126.46326473 12.0625372 124.32012939 15.55574539 124.32012939 28.14717102 C78.12012939 28.14717102 31.92012939 28.14717102 -15.67987061 28.14717102 C-15.67987061 9.90392778 -15.67987061 9.90392778 -11.67987061 5.14717102 C-7.69629495 1.54298353 -5.32083271 0.02642362 0 0 Z " fill="#847F8D" transform="translate(201.67987060546875,44.85282897949219)"/>
<path d="M0 0 C18.81 0 37.62 0 57 0 C57.02505615 7.49170898 57.0501123 14.98341797 57.07592773 22.70214844 C57.1567496 46.6604288 57.24240756 70.61868937 57.33111694 94.57694171 C57.34488686 98.29706257 57.35861391 102.01718358 57.37231445 105.73730469 C57.37504276 106.47792791 57.37777106 107.21855113 57.38058204 107.98161748 C57.4246822 119.98077972 57.46530719 131.97995134 57.50465261 143.97913 C57.54508827 156.28725877 57.58924751 168.59537009 57.63687855 180.90347314 C57.66616226 188.50097611 57.69252586 196.09847778 57.71517897 203.69600347 C57.73284695 209.51735721 57.75569032 215.33868333 57.78049088 221.16001129 C57.78986194 223.55136002 57.79753702 225.94271607 57.80341911 228.33407593 C57.81167928 231.59073497 57.82595586 234.84731311 57.84178162 238.10394287 C57.84275972 239.05724668 57.84373783 240.01055049 57.84474558 240.9927423 C57.85022002 241.8645886 57.85569446 242.73643489 57.8613348 243.63470078 C57.86399284 244.38654703 57.86665089 245.13839328 57.86938947 245.91302276 C58.00692445 248.11064323 58.21723999 249.93634033 59 252 C59.99 252.33 60.98 252.66 62 253 C62 253.33 62 253.66 62 254 C55.73 254 49.46 254 43 254 C43 170.51 43 87.02 43 1 C28.81 1 14.62 1 0 1 C0 0.67 0 0.34 0 0 Z " fill="#E5ECF3" transform="translate(341,66)"/>
<path d="M0 0 C1.38333627 0.91462939 2.71683892 1.90407197 4.03515625 2.91015625 C2.68054393 5.84311931 1.12353371 8.20876922 -0.93359375 10.6953125 C-1.50464844 11.39076172 -2.07570312 12.08621094 -2.6640625 12.80273438 C-3.25832031 13.51880859 -3.85257813 14.23488281 -4.46484375 14.97265625 C-5.64308254 16.40008871 -6.82021123 17.82843838 -7.99609375 19.2578125 C-8.51751953 19.88695557 -9.03894531 20.51609863 -9.57617188 21.16430664 C-10.78621176 22.68557866 -11.88660229 24.29279407 -12.96484375 25.91015625 C-16.43159434 24.47823753 -18.00704591 22.77532905 -20.21484375 19.78515625 C-22.67775737 16.80478807 -22.67775737 16.80478807 -26.125 15.31640625 C-28.54690951 15.21615473 -28.54690951 15.21615473 -31.96484375 15.91015625 C-34.33627011 17.8803124 -34.33627011 17.8803124 -34.48046875 21.58203125 C-34.33997948 26.94484566 -31.40754008 29.58606901 -27.71484375 33.16015625 C-27.12832031 33.75828125 -26.54179687 34.35640625 -25.9375 34.97265625 C-24.80193129 36.12608784 -23.6548358 37.2683137 -22.49511719 38.39746094 C-21.22470725 39.65327778 -20.02230121 40.97744706 -18.83984375 42.31640625 C-16.47973271 44.32250063 -15.26401121 44.33951904 -12.21484375 44.16015625 C-11.01601562 44.10601562 -11.01601562 44.10601562 -9.79296875 44.05078125 C-9.1896875 44.004375 -8.58640625 43.95796875 -7.96484375 43.91015625 C-7.69389893 43.3260498 -7.4229541 42.74194336 -7.14379883 42.14013672 C-5.97275865 39.92512719 -4.6898522 38.16290911 -3.1015625 36.23046875 C-2.2652832 35.20759766 -2.2652832 35.20759766 -1.41210938 34.1640625 C-0.83138672 33.46152344 -0.25066406 32.75898438 0.34765625 32.03515625 C0.91677734 31.34035156 1.48589844 30.64554688 2.07226562 29.9296875 C5.37243436 25.90583079 8.69867086 21.90392301 12.03515625 17.91015625 C12.69515625 18.24015625 13.35515625 18.57015625 14.03515625 18.91015625 C14.63510108 29.54251182 13.66118827 37.59005615 7.03515625 46.16015625 C0.82499043 52.66101068 -6.72690498 56.23283886 -15.71484375 56.47265625 C-24.5703998 55.99768602 -31.60217971 53.22034471 -37.96484375 46.91015625 C-44.72144977 37.63264733 -45.62989396 30.27995697 -44.96484375 18.91015625 C-43.7096495 11.26602329 -38.18413316 5.04372893 -32.09765625 0.5234375 C-21.81871196 -5.62108697 -10.52939146 -5.84035828 0 0 Z " fill="#BAE8B5" transform="translate(191.96484375,140.08984375)"/>
<path d="M0 0 C1.890625 1.38671875 1.890625 1.38671875 3.890625 4.38671875 C3.48223389 4.88075195 3.07384277 5.37478516 2.65307617 5.88378906 C0.79382861 8.13399866 -1.06403538 10.38534661 -2.921875 12.63671875 C-3.56447266 13.41402344 -4.20707031 14.19132812 -4.86914062 14.9921875 C-5.80209961 16.12333984 -5.80209961 16.12333984 -6.75390625 17.27734375 C-7.32471924 17.96860352 -7.89553223 18.65986328 -8.48364258 19.37207031 C-10.07445178 21.34344102 -11.60239255 23.35079544 -13.109375 25.38671875 C-16.29356921 24.01517189 -18.08050096 22.52501892 -20.234375 19.82421875 C-22.31841134 17.17646209 -22.31841134 17.17646209 -25.109375 15.38671875 C-29.22020109 15.02395923 -29.22020109 15.02395923 -32.984375 16.44921875 C-34.30771598 18.728306 -34.89137162 20.6509874 -34.78515625 23.30078125 C-33.49945916 27.26934914 -30.41363094 29.94885352 -27.55078125 32.87890625 C-25.34904559 35.14052912 -23.43308613 37.4722693 -21.484375 39.94921875 C-19.05181559 42.71963364 -18.10778465 43.38729457 -14.484375 44.69921875 C-9.51314821 44.23891997 -7.55204496 41.08868931 -4.47802734 37.4621582 C-2.67360694 35.28204848 -0.88835193 33.08763252 0.890625 30.88671875 C4.70815848 26.16374464 8.4941255 21.58337736 12.890625 17.38671875 C14.78098049 19.27707424 14.15187302 22.3618846 14.203125 24.88671875 C14.10423325 34.6374451 11.27326591 40.58577136 4.6875 47.6640625 C-2.39292661 54.45203671 -9.01192353 55.85853802 -18.53125 55.69921875 C-26.68078385 54.98746907 -33.74266743 51.6021757 -39.109375 45.38671875 C-45.44749301 37.34813005 -46.41236582 29.21327941 -45.40771484 19.32080078 C-44.23055006 11.68945919 -39.98185615 6.49863869 -34.09765625 1.7890625 C-23.86507265 -5.42802495 -10.94980383 -6.03689516 0 0 Z " fill="#BAE8B5" transform="translate(192.109375,253.61328125)"/>
<path d="M0 0 C0.91541565 -0.00990463 1.8308313 -0.01980927 2.77398682 -0.03001404 C3.77098099 -0.02551239 4.76797516 -0.02101074 5.79518127 -0.01637268 C6.85087311 -0.02323593 7.90656494 -0.03009918 8.99424744 -0.03717041 C12.48735466 -0.05548639 15.9800148 -0.05159392 19.47315979 -0.0459137 C21.89927314 -0.0504732 24.3253852 -0.05577808 26.75149536 -0.0617981 C31.83821354 -0.07073867 36.92477481 -0.06829522 42.01148987 -0.05836487 C48.53308146 -0.0468746 55.05413167 -0.06708341 61.57565212 -0.09628201 C66.58650153 -0.11461995 71.59722063 -0.11435629 76.60809517 -0.10864449 C79.01267824 -0.10849097 81.41726998 -0.11455977 83.82182121 -0.12693596 C87.18307929 -0.14179799 90.54332992 -0.13120303 93.90455627 -0.11402893 C94.89952621 -0.1236969 95.89449615 -0.13336487 96.9196167 -0.14332581 C101.22343419 -0.09723269 103.75625081 0.00543344 107.5362854 2.20028687 C109.41456604 4.38768005 109.41456604 4.38768005 109.97706604 7.88768005 C109.41456604 11.38768005 109.41456604 11.38768005 108.04066467 13.5730896 C103.88954427 16.44144472 99.76596523 15.95276329 94.83448792 15.92112732 C93.21928001 15.93405067 93.21928001 15.93405067 91.57144165 15.94723511 C88.00848932 15.96995662 84.4463195 15.96314479 80.88331604 15.9540863 C78.40996567 15.9593189 75.9366173 15.96559404 73.46327209 15.97286987 C68.27815871 15.9832854 63.09331957 15.97869545 57.90821838 15.96409607 C51.25627984 15.94690181 44.60554323 15.97040559 37.95365143 16.00558567 C32.84588371 16.02752181 27.73832376 16.02612735 22.63052368 16.01782036 C20.17766371 16.01699886 17.72478877 16.02389984 15.27197266 16.03859138 C11.84565287 16.05596753 8.42090022 16.04155083 4.99464417 16.01878357 C3.46874413 16.03632187 3.46874413 16.03632187 1.91201782 16.05421448 C-4.92512235 15.96155311 -4.92512235 15.96155311 -8.24668884 13.07479858 C-10.0865004 9.38194349 -9.7450155 7.30126775 -8.58543396 3.38768005 C-5.77411768 0.71757445 -3.83811446 0.01175146 0 0 Z " fill="#030303" transform="translate(263.58543395996094,290.61231994628906)"/>
<path d="M0 0 C1.0654454 -0.00700928 2.13089081 -0.01401855 3.22862244 -0.02124023 C6.75432315 -0.0388605 10.27922261 -0.02718169 13.80493164 -0.01367188 C16.25346531 -0.01636581 18.70199795 -0.02024741 21.15052795 -0.02526855 C26.28437476 -0.03116926 31.41794333 -0.02258257 36.55175781 -0.00390625 C43.133905 0.01887111 49.71539938 0.00577081 56.29752254 -0.01819611 C61.35471008 -0.03264859 66.41174282 -0.0280503 71.46893501 -0.01768494 C73.89583984 -0.01501553 76.3227587 -0.01829488 78.74964714 -0.02760315 C82.14207057 -0.03775783 85.5334366 -0.02228067 88.92578125 0 C90.43226227 -0.01214539 90.43226227 -0.01214539 91.96917725 -0.02453613 C96.31439327 0.02835439 98.85176539 0.11757493 102.65113831 2.36633301 C104.52758789 4.51757812 104.52758789 4.51757812 105.15258789 7.45507812 C104.28938163 11.6847888 102.97728091 12.91767583 99.52758789 15.51757812 C96.03212489 16.25880207 92.59597273 16.20084725 89.03344727 16.16455078 C87.97760941 16.17331238 86.92177155 16.18207397 85.8339386 16.19110107 C82.34598624 16.2130965 78.859303 16.19854061 75.37133789 16.18164062 C72.9466528 16.18500868 70.52196935 16.18986122 68.09729004 16.19613647 C63.01643799 16.20350806 57.93602555 16.19279235 52.85522461 16.16943359 C46.34135701 16.14094655 39.82851944 16.15734887 33.31468964 16.18729591 C28.30808751 16.20536064 23.30172972 16.19961445 18.29512024 16.18665695 C15.89333474 16.1833207 13.49152708 16.18741764 11.08976746 16.19905472 C7.73315645 16.21174895 4.3782151 16.19240371 1.02172852 16.16455078 C0.02832962 16.17467194 -0.96506927 16.18479309 -1.98857117 16.19522095 C-6.63604196 16.12374849 -8.78697287 16.03352096 -12.59313965 13.16854858 C-14.47241211 10.51757812 -14.47241211 10.51757812 -15.03491211 7.45507812 C-13.45080779 -0.81746663 -6.95536426 -0.05596198 0 0 Z " fill="#020202" transform="translate(268.472412109375,177.482421875)"/>
<path d="M0 0 C0.89525391 -0.00193359 1.79050781 -0.00386719 2.71289062 -0.00585938 C3.63650391 0.01798828 4.56011719 0.04183594 5.51171875 0.06640625 C6.42373047 0.05544922 7.33574219 0.04449219 8.27539062 0.03320312 C15.94465012 0.11566828 21.27497367 2.02957729 27.01171875 7.12890625 C32.2347872 13.09812733 33.58941115 17.09582309 33.47265625 25.03515625 C32.77350752 31.66708132 29.28940498 36.05594834 24.37109375 40.3046875 C17.826757 44.29484965 11.9475848 45.10984863 4.44921875 45.00390625 C3.61261719 45.01550781 2.77601562 45.02710938 1.9140625 45.0390625 C-1.66028676 45.02196035 -4.12519823 44.9876786 -7.31640625 43.29296875 C-11.4489734 38.66014347 -10.10454818 30.4784052 -10.15087891 24.578125 C-10.16744374 23.03207349 -10.19474146 21.48609874 -10.23291016 19.94042969 C-10.28781013 17.70337504 -10.30956742 15.46810713 -10.32421875 13.23046875 C-10.34688812 12.54385162 -10.3695575 11.8572345 -10.39291382 11.14981079 C-10.37641775 7.38398543 -9.87103558 5.72128551 -7.56811523 2.69311523 C-4.67533799 0.53533565 -3.53133108 -0.00319 0 0 Z M6.19921875 16.62890625 C6.19921875 20.58890625 6.19921875 24.54890625 6.19921875 28.62890625 C9.05934245 28.86724989 11.3967943 29.06128031 14.19921875 28.62890625 C16.88705265 26.54136273 16.88705265 26.54136273 18.19921875 23.62890625 C18.12611802 21.14348143 17.41227333 19.97981968 16.13671875 17.87890625 C12.96845104 15.83486257 9.90759183 16.44652725 6.19921875 16.62890625 Z " fill="#020303" transform="translate(65.80078125,374.37109375)"/>
<path d="M0 0 C0.77283829 -0.00700928 1.54567657 -0.01401855 2.3419342 -0.02124023 C4.89376888 -0.03882884 7.44449215 -0.02719391 9.99633789 -0.01367188 C11.77226474 -0.01636683 13.54819014 -0.02024928 15.32411194 -0.02526855 C19.04564465 -0.03116498 22.76679321 -0.02259716 26.48828125 -0.00390625 C31.2544897 0.01886696 36.01979638 0.00577177 40.78597164 -0.01819611 C44.45348377 -0.03266445 48.12078285 -0.02804309 51.78830147 -0.01768494 C53.54534576 -0.01501964 55.3024095 -0.01828048 57.05943108 -0.02760315 C59.51800466 -0.03778421 61.97512794 -0.02224668 64.43359375 0 C65.15739227 -0.00809692 65.8811908 -0.01619385 66.62692261 -0.02453613 C70.1670693 0.03468796 72.19176296 0.46244002 75.23292542 2.33117676 C77.28149414 4.51757812 77.28149414 4.51757812 77.90649414 8.01757812 C77.28149414 11.51757812 77.28149414 11.51757812 75.23292542 13.70298767 C71.57241686 15.95353097 68.60253104 16.08861317 64.43359375 16.05102539 C63.65900314 16.05964096 62.88441254 16.06825653 62.08634949 16.07713318 C59.53516897 16.09977007 56.98508869 16.0930602 54.43383789 16.08398438 C52.6569435 16.08922017 50.8800519 16.09549649 49.10316467 16.10276794 C45.38342181 16.11316727 41.66406164 16.10861627 37.94433594 16.09399414 C33.17680258 16.07678724 28.41047225 16.10032689 23.64307308 16.13548374 C19.97559113 16.15743664 16.30839816 16.15602178 12.64087105 16.14771843 C10.88298788 16.14689812 9.12508367 16.15377668 7.36726189 16.16848946 C4.91075313 16.18590191 2.45642093 16.17142435 0 16.14868164 C-1.08873413 16.16621994 -1.08873413 16.16621994 -2.19946289 16.18411255 C-5.92897581 16.11382249 -7.43509062 15.78907023 -10.16966248 13.16954041 C-12.06408083 9.92587738 -12.34779852 8.21467249 -11.71850586 4.51757812 C-8.49440632 0.03950858 -5.1642174 -0.05760948 0 0 Z " fill="#010101" transform="translate(265.718505859375,246.482421875)"/>
<path d="M0 0 C0.78419815 -0.00700928 1.5683963 -0.01401855 2.37635803 -0.02124023 C4.96545955 -0.03882832 7.55346573 -0.02719518 10.14257812 -0.01367188 C11.94332082 -0.01636657 13.74406209 -0.0202488 15.5447998 -0.02526855 C19.31760521 -0.03116468 23.09003164 -0.02259707 26.86279297 -0.00390625 C31.69859736 0.01888351 36.53351377 0.00576102 41.36928558 -0.01819611 C45.08736867 -0.03265106 48.80524126 -0.02804952 52.52333069 -0.01768494 C54.30632126 -0.01501681 56.08933095 -0.01829045 57.87229919 -0.02760315 C60.36459969 -0.03776399 62.85546281 -0.02227559 65.34765625 0 C66.08440079 -0.00809692 66.82114532 -0.01619385 67.58021545 -0.02453613 C71.00227263 0.03212086 72.8604988 0.28152516 75.62780762 2.36633301 C77.17382812 4.51757812 77.17382812 4.51757812 77.73632812 7.45507812 C76.97100296 11.62184848 75.46530486 12.89540012 72.17382812 15.51757812 C69.38816992 16.01345084 67.21230292 16.20400184 64.43359375 16.16455078 C63.67036301 16.17331238 62.90713226 16.18207397 62.12077332 16.19110107 C59.60662397 16.21304547 57.09424425 16.19856151 54.58007812 16.18164062 C52.82799951 16.18501022 51.07592317 16.18986404 49.32385254 16.19613647 C45.65529076 16.20350103 41.98733848 16.19281614 38.31884766 16.16943359 C33.62086727 16.14094557 28.92431503 16.15735185 24.22638702 16.18729591 C20.60944902 16.20538045 16.99284855 16.19960567 13.37590027 16.18665695 C11.64397512 16.18332611 9.91201913 16.18739872 8.18013 16.19905472 C5.75728423 16.21178321 3.33673738 16.19236216 0.9140625 16.16455078 C0.20118576 16.17467194 -0.51169098 16.18479309 -1.24617004 16.19522095 C-5.09422599 16.11355778 -6.72698362 15.59659714 -9.77478027 13.16854858 C-11.82617188 10.51757812 -11.82617188 10.51757812 -12.38867188 7.45507812 C-11.04903128 0.45917724 -6.27877048 -0.06900455 0 0 Z " fill="#040404" transform="translate(265.826171875,133.482421875)"/>
<path d="M0 0 C2.70942393 -0.10861833 5.414439 -0.18758577 8.125 -0.25 C8.88554687 -0.28351562 9.64609375 -0.31703125 10.4296875 -0.3515625 C15.79972222 -0.44414931 18.72621568 0.46107452 23 4 C30.14313534 11.91536618 28 15.40857437 28 28 C-18.2 28 -64.4 28 -112 28 C-112 22.72 -112 17.44 -112 12 C-111.67 12 -111.34 12 -111 12 C-111 16.95 -111 21.9 -111 27 C-72.72 27 -34.44 27 5 27 C5.04349839 11.34164079 5.04349839 11.34164079 1 3 C0.505 1.515 0.505 1.515 0 0 Z " fill="#696773" transform="translate(298,45)"/>
<path d="M0 0 C4.05902667 1.5611641 7.06099411 3.01426566 9 7 C9 9.64 9 12.28 9 15 C1.08 15 -6.84 15 -15 15 C-15 7 -15 7 -12.6875 4.125 C-8.08954703 0.48940928 -5.89768319 -0.49980366 0 0 Z " fill="#73717F" transform="translate(259,15)"/>
</svg>
