<?xml version="1.0" encoding="UTF-8"?>
<svg version="1.1" xmlns="http://www.w3.org/2000/svg" width="433" height="202">
<path d="M0 0 C142.89 0 285.78 0 433 0 C433 66.66 433 133.32 433 202 C290.11 202 147.22 202 0 202 C0 135.34 0 68.68 0 0 Z " fill="#FEFEFE" transform="translate(0,0)"/>
<path d="M0 0 C2.97827897 -0.04293718 5.94063961 -0.00002113 8.91796875 0.08203125 C10.42230469 0.10716797 10.42230469 0.10716797 11.95703125 0.1328125 C38.50529621 1.28565279 61.72904642 15.97921808 79.54296875 34.83203125 C99.29004715 57.36529356 104.17802522 84.10539937 102.91796875 113.08203125 C102.49532332 117.92611957 101.40964621 122.45501664 99.91796875 127.08203125 C99.61995361 128.01934082 99.61995361 128.01934082 99.31591797 128.97558594 C94.50664417 143.76725503 87.37578549 156.4836808 76.91796875 168.08203125 C76.1703125 168.92378906 75.42265625 169.76554688 74.65234375 170.6328125 C57.66797765 188.71385125 32.69142433 199.48290366 7.97265625 200.41796875 C-21.29768718 200.84955327 -45.99511741 192.29256382 -67.3984375 171.73046875 C-86.62626899 152.75453024 -97.20805989 127.36159913 -97.58203125 100.45703125 C-97.55158944 85.00963678 -94.49241826 69.74214224 -87.08203125 56.08203125 C-86.6540625 55.210625 -86.22609375 54.33921875 -85.78515625 53.44140625 C-73.25827136 28.80989101 -50.98957507 11.6351843 -24.95703125 3.14453125 C-16.66511603 0.6180095 -8.60262069 0.22896709 0 0 Z " fill="#EFC78D" transform="translate(98.08203125,0.91796875)"/>
<path d="M0 0 C8.17761665 4.35683342 15.06101109 10.48459244 19 19 C19.34337127 22.14756999 19.14679909 24.82087186 18.7578125 27.9453125 C18.67273438 28.64398438 18.58765625 29.34265625 18.5 30.0625 C18.40332031 30.82046875 18.30664062 31.5784375 18.20703125 32.359375 C17.95829778 35.53189998 18.08593037 38.63231997 18.1875 41.8125 C18.25993429 47.92990493 17.04541897 52.50851669 14.8828125 58.1796875 C13.75324008 61.78832152 13.75895992 64.90684071 14.0546875 68.6484375 C14 71 14 71 13.03125 73.82421875 C11.84474034 77.47812919 11.72543554 80.60163493 11.625 84.4375 C10.86999414 100.50090058 5.61333287 117.48371952 -5.86328125 129.22265625 C-13.41646585 135.50546976 -22.55104922 136.07601626 -32.01464844 135.27050781 C-42.23339192 133.87818516 -51.41336001 128.49849685 -57.96484375 120.64453125 C-65.25616796 110.70181642 -69.35760069 100.21448088 -69.23046875 87.84375 C-69.23001053 87.0971814 -69.22955231 86.35061279 -69.2290802 85.5814209 C-69.22608147 84.015039 -69.21826746 82.44865945 -69.20581055 80.88232422 C-69.1875467 78.50607543 -69.18530144 76.13021802 -69.18554688 73.75390625 C-69.18063022 72.22135085 -69.17480125 70.68879805 -69.16796875 69.15625 C-69.16685593 68.45705444 -69.1657431 67.75785889 -69.16459656 67.03747559 C-69.1195465 62.27603693 -68.66000483 57.70594966 -68 53 C-68.99 53 -69.98 53 -71 53 C-71.55871154 34.00380776 -71.55871154 34.00380776 -68 25 C-67.56549848 23.69821149 -67.13627787 22.39465426 -66.7109375 21.08984375 C-63.56963721 11.70587009 -60.87346905 5.09653266 -51.76953125 0.296875 C-35.28893142 -7.53186721 -16.74195358 -7.49756889 0 0 Z " fill="#25201C" transform="translate(132,36)"/>
<path d="M0 0 C6.86307897 -0.15505544 12.89496935 0.7825934 19.52758789 2.47070312 C26.77046393 4.22306126 33.89786105 5.75732871 41.28930664 6.73632812 C43.65258789 7.09570312 43.65258789 7.09570312 46.65258789 8.09570312 C46.86915039 9.20945312 46.86915039 9.20945312 47.09008789 10.34570312 C47.6000517 13.01736081 47.6000517 13.01736081 48.27758789 15.28320312 C48.65258789 17.09570312 48.65258789 17.09570312 47.65258789 19.09570312 C48.31258789 19.09570312 48.97258789 19.09570312 49.65258789 19.09570312 C49.32258789 22.06570312 48.99258789 25.03570312 48.65258789 28.09570312 C47.26233398 28.29486328 47.26233398 28.29486328 45.84399414 28.49804688 C44.64645508 28.67464844 43.44891602 28.85125 42.21508789 29.03320312 C41.02012695 29.20722656 39.82516602 29.38125 38.59399414 29.56054688 C35.77303113 29.78555525 35.77303113 29.78555525 34.65258789 31.09570312 C35.9171582 31.16917969 35.9171582 31.16917969 37.20727539 31.24414062 C38.30297852 31.31890625 39.39868164 31.39367187 40.52758789 31.47070312 C41.61813477 31.5403125 42.70868164 31.60992187 43.83227539 31.68164062 C46.65258789 32.09570312 46.65258789 32.09570312 48.65258789 34.09570312 C48.92250695 36.78409697 48.73996146 39.38712249 48.65258789 42.09570312 C44.65258789 42.09570312 44.65258789 42.09570312 42.65258789 41.09570312 C37.58008993 40.38791271 34.98079915 41.80059393 30.97290039 44.61132812 C29.20951596 46.26273071 29.20951596 46.26273071 29.65258789 50.09570312 C33.61258789 50.09570312 37.57258789 50.09570312 41.65258789 50.09570312 C41.65258789 48.11570313 41.65258789 46.13570312 41.65258789 44.09570312 C44.55954888 45.16158882 45.49691751 45.79918811 46.96508789 48.59570312 C47.65258789 51.09570312 47.65258789 51.09570312 46.65258789 53.09570312 C46.45334952 56.42003223 46.30725475 59.73742154 46.22290039 63.06640625 C46.02527598 67.51707271 45.49855411 70.60077549 42.65258789 74.09570312 C39.71508789 74.59570312 39.71508789 74.59570312 36.65258789 74.09570312 C36.12020508 73.59425781 35.58782227 73.0928125 35.03930664 72.57617188 C31.32685639 70.27335904 27.67397511 70.7780593 23.40258789 70.90820312 C22.14188477 70.92850586 22.14188477 70.92850586 20.85571289 70.94921875 C18.78772851 70.98446848 16.72007518 71.03827292 14.65258789 71.09570312 C19.60258789 71.75570312 24.55258789 72.41570312 29.65258789 73.09570312 C30.65258789 79.09570312 30.65258789 79.09570312 29.15258789 82.40820312 C26.65258789 85.09570312 26.65258789 85.09570312 23.15258789 86.15820312 C19.65258789 86.09570312 19.65258789 86.09570312 17.83618164 84.58789062 C14.14013511 82.06214863 10.15851321 83.09589114 5.84399414 83.38085938 C1.89243642 83.02778261 0.43873298 81.85220837 -2.34741211 79.09570312 C-4.66952984 75.33227094 -5.8549101 72.5363105 -5.34741211 68.09570312 C-5.01741211 67.76570313 -4.68741211 67.43570313 -4.34741211 67.09570312 C1.19073157 67.2502007 6.39890651 68.4189963 11.65258789 70.09570312 C11.65258789 69.43570313 11.65258789 68.77570313 11.65258789 68.09570312 C10.22946289 67.87914063 10.22946289 67.87914063 8.77758789 67.65820312 C5.65258789 67.09570313 5.65258789 67.09570313 3.65258789 66.09570312 C-1.52113975 65.66346163 -1.52113975 65.66346163 -6.32788086 67.11132812 C-9.95219564 68.8779187 -13.5556566 68.12858276 -17.34741211 67.09570312 C-22.70445954 63.16720167 -25.29019491 57.26735471 -27.34741211 51.09570312 C-27.52271053 48.16448369 -27.62455012 45.27839086 -27.65991211 42.34570312 C-27.68891602 41.559375 -27.71791992 40.77304688 -27.74780273 39.96289062 C-27.81112274 34.09848408 -26.57967726 30.97660078 -23.34741211 26.09570312 C-22.49726539 24.47943582 -21.66191918 22.85522069 -20.84741211 21.22070312 C-20.42331055 20.3725 -19.99920898 19.52429688 -19.56225586 18.65039062 C-18.41800107 16.24414421 -17.41130486 13.81386618 -16.40991211 11.34570312 C-14.51665543 7.05736268 -12.21729604 3.80559666 -8.34741211 1.09570312 C-5.48633207 0.16418869 -2.98440787 0.12167321 0 0 Z " fill="#D7A98E" transform="translate(94.347412109375,57.904296875)"/>
<path d="M0 0 C37.95 0 75.9 0 115 0 C115 0.33 115 0.66 115 1 C114.06430176 1.02916504 113.12860352 1.05833008 112.16455078 1.08837891 C86.92499805 1.69259574 86.92499805 1.69259574 63 9 C62.37303223 9.27505371 61.74606445 9.55010742 61.10009766 9.83349609 C52.6789233 13.54558972 45.16390269 18.22335835 38 24 C37.15824219 24.67675781 36.31648438 25.35351562 35.44921875 26.05078125 C16.92653647 41.80802418 4.97816667 64.93319367 2 89 C-0.15850497 118.09586569 7.21865475 144.19432355 26.0234375 166.73828125 C41.33884285 184.26322136 60.4189384 194.25878066 83 199 C84.33519111 199.32581219 85.66967583 199.65485292 87 200 C87 200.66 87 201.32 87 202 C58.29 202 29.58 202 0 202 C0 135.34 0 68.68 0 0 Z " fill="#FEFEFE" transform="translate(0,0)"/>
<path d="M0 0 C0.97710937 -0.01998047 1.95421875 -0.03996094 2.9609375 -0.06054688 C10.82686639 -0.05531687 17.66882398 1.43337935 24.02734375 6.26171875 C24.53394531 6.87660156 25.04054688 7.49148437 25.5625 8.125 C26.08714844 8.72699219 26.61179687 9.32898438 27.15234375 9.94921875 C31.82025837 17.83638483 32.06553504 25.73244951 32.06640625 34.71484375 C32.08621803 36.58638878 32.08621803 36.58638878 32.10643005 38.4957428 C32.14023418 41.78450395 32.1627401 45.07304666 32.17797852 48.36193848 C32.20000023 53.0178377 32.23254562 57.67351953 32.27928162 62.32923889 C32.30370403 64.8031499 32.31850925 67.27717777 32.32289124 69.75120544 C32.33817116 71.41917931 32.33817116 71.41917931 32.35375977 73.12084961 C32.36017235 74.59236732 32.36017235 74.59236732 32.36671448 76.09361267 C32.3987322 78.62816635 32.3987322 78.62816635 34.625 80.4375 C37.31339385 80.70741906 39.91641936 80.52487357 42.625 80.4375 C43.7827506 83.91075181 43.69366652 86.79817448 43.625 90.4375 C39.35926691 92.57036654 35.3193544 93.02775281 30.625 92.4375 C25.94700518 90.72823266 23.31831877 88.62710698 20.625 84.4375 C19.875 81.625 19.875 81.625 19.625 79.4375 C18.635 79.4375 17.645 79.4375 16.625 79.4375 C16.46 80.13875 16.295 80.84 16.125 81.5625 C13.18307043 87.20119834 7.83821487 90.271796 1.9375 92.3125 C-8.89509379 95.09136815 -18.57873869 94.01759304 -28.18359375 88.375 C-33.56681724 84.50874472 -35.36582669 78.46501992 -37.375 72.4375 C-38.04414915 64.58786579 -37.66859342 57.09169469 -33.00390625 50.5 C-25.20385201 41.82080296 -14.63103444 39.91407486 -3.66943359 37.88598633 C6.75554571 36.18450163 6.75554571 36.18450163 15.34375 30.58984375 C17.49347985 26.97855977 17.27195234 23.50821133 16.625 19.4375 C14.74645829 16.0416746 13.49026516 14.78882 9.90234375 13.33203125 C1.93940962 11.15859631 -6.93749991 11.24976718 -14.34765625 15.0859375 C-17.35488369 17.09075579 -19.97134196 19.42385575 -22.55078125 21.94921875 C-24.375 23.4375 -24.375 23.4375 -28.375 24.4375 C-30.355 21.4675 -32.335 18.4975 -34.375 15.4375 C-31.64312738 11.72266387 -29.02972288 9.25574089 -25.125 6.8125 C-24.23296875 6.24273437 -23.3409375 5.67296875 -22.421875 5.0859375 C-14.84527947 0.98680505 -8.61989576 -0.06205422 0 0 Z " fill="#060606" transform="translate(349.375,72.5625)"/>
<path d="M0 0 C1.78589028 1.7130842 2.65918624 3.3014443 3.62890625 5.5625 C2.72861054 6.90694159 1.80802603 8.23781438 0.87890625 9.5625 C0.11320312 10.67625 0.11320312 10.67625 -0.66796875 11.8125 C-1.23 12.39 -1.79203125 12.9675 -2.37109375 13.5625 C-3.69109375 13.5625 -5.01109375 13.5625 -6.37109375 13.5625 C-7.45390625 12.44875 -7.45390625 12.44875 -8.55859375 11.3125 C-12.11882877 7.83138132 -15.8104178 6.39035441 -20.37109375 4.5625 C-21.03109375 4.2325 -21.69109375 3.9025 -22.37109375 3.5625 C-25.73976599 3.29482318 -29.11798086 3.33085931 -32.49609375 3.3125 C-33.88441406 3.2815625 -33.88441406 3.2815625 -35.30078125 3.25 C-41.60728602 3.21437003 -48.00467015 3.50240249 -52.92993164 7.97949219 C-57.34570733 13.04977545 -57.72057096 17.37140911 -57.65234375 23.8359375 C-57.14335117 28.77033784 -54.57054492 31.32777085 -51.24609375 34.75 C-48.6642283 36.37769778 -46.85223047 37.12909673 -43.97265625 37.96484375 C-43.08336426 38.22338135 -42.19407227 38.48191895 -41.27783203 38.74829102 C-38.28231827 39.58736698 -35.28157268 40.40363682 -32.27734375 41.2109375 C-30.70146484 41.63632813 -30.70146484 41.63632813 -29.09375 42.0703125 C-26.94726046 42.64791332 -24.79880167 43.21824556 -22.6484375 43.78125 C-10.75664308 47.02048725 -0.61258404 51.31755167 6.00390625 62.1875 C9.88473252 70.24767764 10.05265615 80.49964534 7.65234375 89.03515625 C3.73116746 98.74187179 -1.101493 103.83227726 -10.37109375 108.5625 C-23.99710857 114.29161987 -39.40330545 113.97913027 -53.37109375 109.5625 C-62.50158731 105.64943133 -69.8327832 100.86996582 -75.37109375 92.5625 C-75.37109375 87.31367266 -71.76571587 84.16474427 -68.37109375 80.5625 C-64.79949536 81.7530328 -64.37892422 82.71317619 -62.30859375 85.75 C-56.91757762 92.90762818 -50.01944996 96.54056762 -41.37109375 98.5625 C-31.28012073 99.35455395 -20.42947436 99.57588643 -11.93359375 93.3125 C-7.38825446 88.43457491 -6.20807367 84.5095499 -5.99609375 78 C-6.1879854 72.59751197 -7.00533901 69.0911855 -10.7890625 65.046875 C-18.58010632 58.2361612 -29.86537549 56.36680155 -39.69555664 54.04785156 C-49.59003612 51.70587928 -59.55983278 48.58696267 -66.37109375 40.5625 C-71.97367649 31.38008518 -73.36907864 23.29663985 -72.37109375 12.5625 C-70.23768499 5.17532294 -65.7945811 -0.2990893 -59.37109375 -4.4375 C-40.16051839 -14.04278768 -17.39218521 -12.92994779 0 0 Z " fill="#050505" transform="translate(285.37109375,53.4375)"/>
<path d="M0 0 C0.99 0.33 1.98 0.66 3 1 C3.02578125 2.18335937 3.0515625 3.36671875 3.078125 4.5859375 C3.40649935 14.93301324 3.99955911 23.39938275 10.1875 32.0625 C13.94293999 34.64958088 17.45831087 35.31686203 22 35 C23.34495283 34.35709712 24.67901614 33.69081391 26 33 C32.20507302 32.48291058 36.29927064 33.55683027 42 36 C42 36.66 42 37.32 42 38 C41.030625 37.855625 40.06125 37.71125 39.0625 37.5625 C34.71947831 36.93952558 30.36234766 36.46492141 26 36 C26.43045644 41.38070547 27.33251054 44.94645902 31 49 C34.14317785 49.84624019 36.84617879 50.0345068 40.08984375 49.9375 C45.69697377 49.77043467 45.69697377 49.77043467 48.0625 51.5625 C50.07475072 53.35378411 50.07475072 53.35378411 53.5625 53 C57.07203078 52.31061644 57.07203078 52.31061644 58.9375 49.8125 C60.12057918 46.68081981 60.23168419 44.32080666 60 41 C59.03900391 41.03480469 59.03900391 41.03480469 58.05859375 41.0703125 C52.59012904 41.18440863 48.16901723 40.79791904 43 39 C43 38.67 43 38.34 43 38 C46.24983 37.91271118 49.4993575 37.85951342 52.75 37.8125 C53.67039063 37.78736328 54.59078125 37.76222656 55.5390625 37.73632812 C56.42851563 37.72666016 57.31796875 37.71699219 58.234375 37.70703125 C59.05131836 37.6913208 59.86826172 37.67561035 60.70996094 37.65942383 C63.52695399 38.07836896 64.7882119 39.2624476 67 41 C70.5 41.58333333 70.5 41.58333333 74 41 C76.44098818 39.14579161 76.44098818 39.14579161 78 37 C77.45842266 50.99977429 72.51344886 63.40618594 63.20703125 74.05078125 C55.89873386 80.79046969 47.68788068 81.77368589 38.109375 81.41015625 C28.15903902 80.6692232 18.98717046 76.04186456 12 69 C3.44623483 58.7456851 -1.36737547 47.19024178 -1.23046875 33.80859375 C-1.23001053 33.05965347 -1.22955231 32.3107132 -1.2290802 31.53907776 C-1.22608176 29.96849974 -1.21826866 28.39792405 -1.20581055 26.82739258 C-1.18752037 24.44015828 -1.1853016 22.05331285 -1.18554688 19.66601562 C-1.1806313 18.13020502 -1.17480281 16.59439701 -1.16796875 15.05859375 C-1.16685593 14.35423691 -1.1657431 13.64988007 -1.16459656 12.92417908 C-1.12286759 8.51325935 -0.70912184 4.34067448 0 0 Z " fill="#26221E" transform="translate(64,90)"/>
<path d="M0 0 C0.66 0.33 1.32 0.66 2 1 C5.08100341 1.27571479 8.16171476 1.44663533 11.25 1.62109375 C14 2 14 2 16 4 C16.26991906 6.68839385 16.08737357 9.29141936 16 12 C12 12 12 12 10 11 C4.92750204 10.29220959 2.32821126 11.7048908 -1.6796875 14.515625 C-3.44307193 16.16702759 -3.44307193 16.16702759 -3 20 C0.96 20 4.92 20 9 20 C9 18.02 9 16.04 9 14 C11.90696099 15.06588569 12.84432962 15.70348499 14.3125 18.5 C15 21 15 21 14 23 C13.80076163 26.32432911 13.65466686 29.64171841 13.5703125 32.97070312 C13.37268809 37.42136958 12.84596622 40.50507237 10 44 C7.0625 44.5 7.0625 44.5 4 44 C3.46761719 43.49855469 2.93523437 42.99710938 2.38671875 42.48046875 C-1.3257315 40.17765591 -4.97861278 40.68235617 -9.25 40.8125 C-10.51070312 40.83280273 -10.51070312 40.83280273 -11.796875 40.85351562 C-13.86485938 40.88876536 -15.93251271 40.9425698 -18 41 C-13.05 41.66 -8.1 42.32 -3 43 C-2 49 -2 49 -3.5 52.3125 C-6 55 -6 55 -9.5 56.0625 C-13 56 -13 56 -14.81640625 54.4921875 C-18.51245278 51.96644551 -22.49407468 53.00018801 -26.80859375 53.28515625 C-30.76015147 52.93207949 -32.21385492 51.75650524 -35 49 C-37.32211773 45.23656782 -38.50749799 42.44060738 -38 38 C-37.67 37.67 -37.34 37.34 -37 37 C-31.46185633 37.15449757 -26.25368138 38.32329318 -21 40 C-21 39.34 -21 38.68 -21 38 C-21.94875 37.855625 -22.8975 37.71125 -23.875 37.5625 C-27 37 -27 37 -29 36 C-34.17372764 35.5677585 -34.17372764 35.5677585 -38.98046875 37.015625 C-42.60478353 38.78221557 -46.20824449 38.03287964 -50 37 C-55.35704744 33.07149855 -57.9427828 27.17165159 -60 21 C-60.08021999 19.59175107 -60.10765977 18.18002769 -60.09765625 16.76953125 C-60.09282227 15.56586914 -60.09282227 15.56586914 -60.08789062 14.33789062 C-60.07951172 13.50451172 -60.07113281 12.67113281 -60.0625 11.8125 C-60.05798828 10.96751953 -60.05347656 10.12253906 -60.04882812 9.25195312 C-60.03705403 7.16793845 -60.0191189 5.08396023 -60 3 C-59.67 3 -59.34 3 -59 3 C-58.99742188 4.01578125 -58.99484375 5.0315625 -58.9921875 6.078125 C-58.78348871 15.80752039 -56.97987572 22.46913336 -52 31 C-51.67 31.99 -51.34 32.98 -51 34 C-45.42393327 34.96139082 -42.3766648 34.9447511 -37 33 C-31.11619536 32.54739964 -25.70671026 33.71398079 -20 35 C-20.0825 34.0925 -20.165 33.185 -20.25 32.25 C-20 29 -20 29 -18 26.625 C-17.34 26.08875 -16.68 25.5525 -16 25 C-15 28 -15 28 -15 32 C-12.69 32.33 -10.38 32.66 -8 33 C-8.23396484 32.14341797 -8.23396484 32.14341797 -8.47265625 31.26953125 C-10.53235401 22.68973064 -10.98766853 13.10584257 -7 5 C-5.0625 3.875 -5.0625 3.875 -3 3 C-1.29078411 1.4587688 -1.29078411 1.4587688 0 0 Z " fill="#B38467" transform="translate(127,88)"/>
<path d="M0 0 C0.7528855 22.47502639 0.7528855 22.47502639 -7 32 C-13.64088639 38.3521522 -19.20155226 39.42732075 -28.15625 39.25 C-33.21138789 38.80559227 -35.91822342 37.16948819 -39.3125 33.5 C-42.77142788 28.37566239 -42.59157231 22.98431124 -42 17 C-39.5249493 11.32800881 -35.55628446 9.20810943 -30 7 C-26.11926414 5.92927347 -22.20102605 5.14003944 -18.25 4.375 C-16.21255528 3.97109001 -14.17604669 3.56242157 -12.140625 3.1484375 C-11.24891602 2.97489746 -10.35720703 2.80135742 -9.43847656 2.62255859 C-6.98921883 2.08982198 -6.98921883 2.08982198 -4.86621094 0.92822266 C-3 0 -3 0 0 0 Z " fill="#FAFAFA" transform="translate(368,116)"/>
<path d="M0 0 C4.29 0 8.58 0 13 0 C13 29.7 13 59.4 13 90 C8.71 90 4.42 90 0 90 C0 60.3 0 30.6 0 0 Z " fill="#000000" transform="translate(412,74)"/>
<path d="M0 0 C0.33 0 0.66 0 1 0 C1.00257812 1.01578125 1.00515625 2.0315625 1.0078125 3.078125 C1.21651129 12.80752039 3.02012428 19.46913336 8 28 C8.33 28.99 8.66 29.98 9 31 C14.57606673 31.96139082 17.6233352 31.9447511 23 30 C29.61483481 29.33851652 35.67834784 31.25609596 42 33 C42.33 31.68 42.66 30.36 43 29 C43.66 29.66 44.32 30.32 45 31 C47.65537372 31.56520003 50.29144713 31.73788198 53 32 C52.67 32.99 52.34 33.98 52 35 C54.31 35.33 56.62 35.66 59 36 C59 36.33 59 36.66 59 37 C50.585 37.495 50.585 37.495 42 38 C46.95 38.66 51.9 39.32 57 40 C58 46 58 46 56.5 49.3125 C54 52 54 52 50.5 53.0625 C47 53 47 53 45.18359375 51.4921875 C41.48754722 48.96644551 37.50592532 50.00018801 33.19140625 50.28515625 C29.23984853 49.93207949 27.78614508 48.75650524 25 46 C22.67788227 42.23656782 21.49250201 39.44060738 22 35 C22.33 34.67 22.66 34.34 23 34 C28.53814367 34.15449757 33.74631862 35.32329318 39 37 C39 36.34 39 35.68 39 35 C38.05125 34.855625 37.1025 34.71125 36.125 34.5625 C33 34 33 34 31 33 C25.82627236 32.5677585 25.82627236 32.5677585 21.01953125 34.015625 C17.39521647 35.78221557 13.79175551 35.03287964 10 34 C4.64295256 30.07149855 2.0572172 24.17165159 0 18 C-0.08021999 16.59175107 -0.10765977 15.18002769 -0.09765625 13.76953125 C-0.09282227 12.56586914 -0.09282227 12.56586914 -0.08789062 11.33789062 C-0.07951172 10.50451172 -0.07113281 9.67113281 -0.0625 8.8125 C-0.05798828 7.96751953 -0.05347656 7.12253906 -0.04882812 6.25195312 C-0.03705403 4.16793845 -0.0191189 2.08396023 0 0 Z " fill="#463F3A" transform="translate(67,91)"/>
<path d="M0 0 C2.90696099 1.06588569 3.84432962 1.70348499 5.3125 4.5 C6 7 6 7 5 9 C4.80076163 12.32432911 4.65466686 15.64171841 4.5703125 18.97070312 C4.37237187 23.42849106 3.82482864 26.48585911 1 30 C-2.17122411 30.79280603 -3.99773156 30.50830792 -6.91015625 29.03125 C-9.96407534 26.8740669 -11.70066125 25.1410089 -12.6640625 21.46875 C-12.94370437 18.62439271 -13.02361543 15.8574674 -13 13 C-13.01289062 12.10539062 -13.02578125 11.21078125 -13.0390625 10.2890625 C-13.05890131 8.19276177 -13.03436251 6.09611296 -13 4 C-12.67 4.66 -12.34 5.32 -12 6 C-8.04 6 -4.08 6 0 6 C0 4.02 0 2.04 0 0 Z " fill="#D4A589" transform="translate(136,102)"/>
<path d="M0 0 C5.58360153 5.40348535 5.29660754 9.21629059 5.625 16.75 C5.70234375 18.235 5.70234375 18.235 5.78125 19.75 C6.00516771 24.67618969 6.02540828 29.14736363 5 34 C4.72869242 36.60756732 4.50289017 39.21593726 4.28125 41.828125 C4 44 4 44 3 46 C2.7677354 48.71262116 2.58063765 51.40773126 2.4375 54.125 C2.39431641 54.87910156 2.35113281 55.63320312 2.30664062 56.41015625 C2.2005168 58.27321888 2.09974999 60.13658524 2 62 C1.34 61.67 0.68 61.34 0 61 C-1.32 62.32 -2.64 63.64 -4 65 C-3.125 61.125 -3.125 61.125 -2 60 C-1.78779678 57.39166878 -1.62343661 54.80024168 -1.5 52.1875 C-1.12803594 44.43824873 -1.12803594 44.43824873 -0.31640625 41.66015625 C-0.21199219 41.11230469 -0.10757813 40.56445312 0 40 C-2.35426499 37.22877725 -2.35426499 37.22877725 -5 35 C-5 36.98 -5 38.96 -5 41 C-8.96 41 -12.92 41 -17 41 C-17.33 39.68 -17.66 38.36 -18 37 C-11.18163616 31.18535469 -11.18163616 31.18535469 -6.8125 30.5 C-3.97686795 31.00411236 -1.60270135 31.77519936 1 33 C1.020625 31.700625 1.04125 30.40125 1.0625 29.0625 C1.07410156 28.33160156 1.08570313 27.60070312 1.09765625 26.84765625 C1.20561184 24.98267859 1.20561184 24.98267859 0 24 C-2.18292774 23.76518307 -4.37203174 23.58636677 -6.5625 23.4375 C-7.76003906 23.35371094 -8.95757812 23.26992187 -10.19140625 23.18359375 C-11.58166016 23.09271484 -11.58166016 23.09271484 -13 23 C-11 20 -11 20 -8 19 C-6.27204648 18.93197033 -4.54164635 18.91504355 -2.8125 18.9375 C-1.91144531 18.94652344 -1.01039063 18.95554687 -0.08203125 18.96484375 C0.60503906 18.97644531 1.29210937 18.98804687 2 19 C2.33 16.03 2.66 13.06 3 10 C2.34 10 1.68 10 1 10 C0.505 5.05 0.505 5.05 0 0 Z " fill="#8F6448" transform="translate(141,67)"/>
<path d="M0 0 C2.625 2 2.625 2 4 5 C4.19797203 8.89117436 4.10771991 12.52191781 1.71484375 15.71484375 C-1.47808219 18.10771991 -5.10882564 18.19797203 -9 18 C-12 16.625 -12 16.625 -14 14 C-14.96331225 10.93906109 -15.30781064 8.19781051 -15 5 C-11.06295758 -1.516484 -6.97466577 -1.75603287 0 0 Z " fill="#080808" transform="translate(424,39)"/>
<path d="M0 0 C2.82566368 0.43471749 4.30061967 1.20973466 6.6875 2.875 C14.291571 7.75308328 22.02255335 9.00038118 31 8 C33.28088999 7.07277355 33.28088999 7.07277355 35 6 C36.24679971 9.53259917 36.10095722 10.78125935 34.5 14.25 C32 17 32 17 28.5 18.0625 C25 18 25 18 23.18359375 16.4921875 C19.48754722 13.96644551 15.50592532 15.00018801 11.19140625 15.28515625 C7.23984853 14.93207949 5.78614508 13.75650524 3 11 C0.65295294 7.1961651 -0.39477697 4.47413897 0 0 Z " fill="#B4846A" transform="translate(89,126)"/>
<path d="M0 0 C0 0.66 0 1.32 0 2 C-1.32 2 -2.64 2 -4 2 C-3.67 2.99 -3.34 3.98 -3 5 C-3.31802943 6.66965451 -3.64984951 8.33678518 -4 10 C-3.67 10.33 -3.34 10.66 -3 11 C-2.95936168 12.66617115 -2.957279 14.33388095 -3 16 C-7.59144677 15.23475887 -7.59144677 15.23475887 -9.75390625 13.9921875 C-13.69195713 12.25259633 -17.94747178 12.53292673 -22.19921875 12.34375 C-23.12347656 12.2303125 -24.04773438 12.116875 -25 12 C-25.33 11.34 -25.66 10.68 -26 10 C-22.54640109 8.27320055 -18.32801873 8.71255467 -14.49804688 8.65820312 C-10.27309806 8.4833358 -10.27309806 8.4833358 -7.02734375 5.95703125 C-6.68832031 5.31121094 -6.34929687 4.66539063 -6 4 C-12.25948114 1.86608597 -18.42208127 1.41044485 -25 1 C-24.67 0.01 -24.34 -0.98 -24 -2 C-16.83829944 -5.58085028 -7.11304796 -2.31139663 0 0 Z " fill="#C39579" transform="translate(110,88)"/>
<path d="M0 0 C14.09894873 -0.99133233 27.89739291 1.6584961 39 11 C40.01477867 11.98499962 41.01979625 12.9805881 42 14 C38.51038791 14 36.88519705 13.09620626 33.8125 11.5 C32.91144531 11.0359375 32.01039063 10.571875 31.08203125 10.09375 C30.39496094 9.7328125 29.70789063 9.371875 29 9 C27.729536 12.04013112 27.729536 12.04013112 28.5625 15.5 C29 19 29 19 27 22 C26.67 19.36 26.34 16.72 26 14 C25.67 16.31 25.34 18.62 25 21 C24.67 21 24.34 21 24 21 C23.91363281 20.18015625 23.82726562 19.3603125 23.73828125 18.515625 C23.02588563 11.91973006 23.02588563 11.91973006 19.75 6.375 C16.88038133 4.94019066 14.08968732 3.86223832 11 3 C10.67 3.66 10.34 4.32 10 5 C8.948125 4.5359375 8.948125 4.5359375 7.875 4.0625 C4.91063343 2.96697322 2.12301892 2.43577008 -1 2 C-0.67 1.34 -0.34 0.68 0 0 Z " fill="#322E29" transform="translate(102,31)"/>
<path d="M0 0 C0.66 0.33 1.32 0.66 2 1 C1.67 1.33 1.34 1.66 1 2 C1.61746094 2.09796875 2.23492187 2.1959375 2.87109375 2.296875 C11.00538014 3.7330656 19.00344457 6.00344457 25 12 C25.8125 14.25 25.8125 14.25 26 16 C21.88726239 15.32224549 18.24641726 14.03076729 14.375 12.5 C9.02684903 10.39500694 4.56053805 8.87014803 -1.1875 8.4375 C-2.27417969 8.35371094 -3.36085938 8.26992188 -4.48046875 8.18359375 C-5.31191406 8.12300781 -6.14335938 8.06242187 -7 8 C-7 7.34 -7 6.68 -7 6 C-5.35 5.67 -3.7 5.34 -2 5 C-2 4.34 -2 3.68 -2 3 C-2.66 2.67 -3.32 2.34 -4 2 C-2.125 0.9375 -2.125 0.9375 0 0 Z " fill="#413E3A" transform="translate(87,33)"/>
<path d="M0 0 C1.16306443 3.54950034 0.92365049 6.55823948 0.5625 10.25 C0.46066406 11.32765625 0.35882813 12.4053125 0.25390625 13.515625 C0.17011719 14.33546875 0.08632812 15.1553125 0 16 C0.66 16 1.32 16 2 16 C2.33 15.01 2.66 14.02 3 13 C3.66 19.93 4.32 26.86 5 34 C3.02 33.67 1.04 33.34 -1 33 C-1 32.34 -1 31.68 -1 31 C-2.11375 30.87625 -3.2275 30.7525 -4.375 30.625 C-8 30 -8 30 -10 28 C-10.33 28.99 -10.66 29.98 -11 31 C-12.32 30.67 -13.64 30.34 -15 30 C-14.34 30 -13.68 30 -13 30 C-13.0825 29.0925 -13.165 28.185 -13.25 27.25 C-13 24 -13 24 -11 21.625 C-10.34 21.08875 -9.68 20.5525 -9 20 C-8 23 -8 23 -8 27 C-5.69 27.33 -3.38 27.66 -1 28 C-1.15597656 27.42894531 -1.31195313 26.85789062 -1.47265625 26.26953125 C-3.57890926 17.49580184 -3.76478176 8.3473235 0 0 Z " fill="#BB8A6C" transform="translate(120,93)"/>
<path d="M0 0 C0.33 0.66 0.66 1.32 1 2 C2.32407669 2.68486725 3.65909241 3.34870203 5 4 C8.80434783 6.60869565 8.80434783 6.60869565 10 9 C10.01642167 11.25290594 9.96404159 13.50645584 9.87890625 15.7578125 C9.85529526 16.42086395 9.83168427 17.08391541 9.80735779 17.76705933 C9.73073184 19.88659129 9.64670357 22.00575685 9.5625 24.125 C9.50927819 25.56117994 9.4565378 26.9973778 9.40429688 28.43359375 C9.27511856 31.95595436 9.1392997 35.47802352 9 39 C8.67 39 8.34 39 8 39 C8 35.37 8 31.74 8 28 C6.35 28 4.7 28 3 28 C-0.26417577 24.19179494 -1.52723379 20.96404523 -2 16 C0 18 0 18 1.375 21.5625 C1.91125 22.696875 2.4475 23.83125 3 25 C5.03860963 25.76292378 5.03860963 25.76292378 7 26 C6.7834375 24.95199219 6.566875 23.90398437 6.34375 22.82421875 C6.06234693 21.44534373 5.78110536 20.06643574 5.5 18.6875 C5.35691406 17.99720703 5.21382812 17.30691406 5.06640625 16.59570312 C4.47374956 13.67475227 4 10.98891878 4 8 C2.02 7.34 0.04 6.68 -2 6 C-1.125 1.125 -1.125 1.125 0 0 Z " fill="#BE8E6E" transform="translate(54,88)"/>
<path d="M0 0 C6.40679154 0.44959941 12.20480081 1.80733169 18.38525391 3.54882812 C23.58140475 4.97589362 28.62607807 5.74710956 34 6 C31.90509877 8.47937722 30.6594975 9.85400437 27.44140625 10.56640625 C18.40750994 10.55414859 8.37822968 8.80262822 1.6875 2.1875 C1.130625 1.465625 0.57375 0.74375 0 0 Z " fill="#8A6D61" transform="translate(90,125)"/>
<path d="M0 0 C0.33 0.99 0.66 1.98 1 3 C2.93618425 3.67156616 2.93618425 3.67156616 5 4 C5.66 4.33 6.32 4.66 7 5 C7.64259881 7.47017339 8.16873874 9.87021882 8.625 12.375 C8.7590625 13.06078125 8.893125 13.7465625 9.03125 14.453125 C9.58338211 17.34900157 10 20.04560993 10 23 C8.35 22.67 6.7 22.34 5 22 C4.01 19.03 3.02 16.06 2 13 C1.34 13 0.68 13 0 13 C0 8.71 0 4.42 0 0 Z " fill="#D4A587" transform="translate(51,91)"/>
<path d="M0 0 C2.875 2 2.875 2 5 4 C4.67 5.32 4.34 6.64 4 8 C2.35 6.68 0.7 5.36 -1 4 C-1 5.98 -1 7.96 -1 10 C-4.96 10 -8.92 10 -13 10 C-13.33 8.68 -13.66 7.36 -14 6 C-5.52465897 -1.22770199 -5.52465897 -1.22770199 0 0 Z " fill="#140F0C" transform="translate(137,98)"/>
<path d="M0 0 C4.7415352 0.70244966 7.73377477 3.60715225 10.875 7.0625 C13.69405459 9.63281448 16.4475103 10.63365781 20 12 C20 12.33 20 12.66 20 13 C14.93663274 14.75667844 11.32757874 15.5078053 6 14 C2.58889894 10.58889894 0.0967448 7.12838567 -0.125 2.25 C-0.063125 1.13625 -0.063125 1.13625 0 0 Z " fill="#CD9F85" transform="translate(89,126)"/>
<path d="M0 0 C0.33 0 0.66 0 1 0 C1.00257812 1.01578125 1.00515625 2.0315625 1.0078125 3.078125 C1.21651129 12.80752039 3.02012428 19.46913336 8 28 C8.33 28.99 8.66 29.98 9 31 C10.258125 31.185625 11.51625 31.37125 12.8125 31.5625 C13.52019531 31.66691406 14.22789063 31.77132812 14.95703125 31.87890625 C17.2025342 32.13904799 17.2025342 32.13904799 20 31 C22.33299825 30.96045766 24.66708189 30.95598268 27 31 C25.66666667 31.66666667 24.33333333 32.33333333 23 33 C22.38511719 33.35449219 21.77023438 33.70898438 21.13671875 34.07421875 C17.39718279 35.69445645 13.85603112 35.05038841 10 34 C4.64295256 30.07149855 2.0572172 24.17165159 0 18 C-0.08021999 16.59175107 -0.10765977 15.18002769 -0.09765625 13.76953125 C-0.09282227 12.56586914 -0.09282227 12.56586914 -0.08789062 11.33789062 C-0.07951172 10.50451172 -0.07113281 9.67113281 -0.0625 8.8125 C-0.05798828 7.96751953 -0.05347656 7.12253906 -0.04882812 6.25195312 C-0.03705403 4.16793845 -0.0191189 2.08396023 0 0 Z " fill="#413A35" transform="translate(67,91)"/>
<path d="M0 0 C0 0.66 0 1.32 0 2 C-8.25 1.67 -16.5 1.34 -25 1 C-24.67 0.01 -24.34 -0.98 -24 -2 C-16.83829944 -5.58085028 -7.11304796 -2.31139663 0 0 Z " fill="#4A3C34" transform="translate(110,88)"/>
<path d="M0 0 C1.0625 1.875 1.0625 1.875 2 4 C1.67 4.66 1.34 5.32 1 6 C0.80076163 9.32432911 0.65466686 12.64171841 0.5703125 15.97070312 C0.37303685 20.41351522 -0.12900491 23.52778476 -3 27 C-6.1875 27.3125 -6.1875 27.3125 -9 27 C-8.01 26.67 -7.02 26.34 -6 26 C-4.89363605 23.60931266 -4.89363605 23.60931266 -4 21 C-3.34 20.01 -2.68 19.02 -2 18 C-1.83300768 14.87478167 -1.83300768 14.87478167 -2 12 C-2.66 11.67 -3.32 11.34 -4 11 C-3.67 8.36 -3.34 5.72 -3 3 C-2.01 3 -1.02 3 0 3 C0 2.01 0 1.02 0 0 Z " fill="#B7886A" transform="translate(140,105)"/>
<path d="M0 0 C1.80644881 3.61289762 0.98958751 8.15231909 0.87304688 12.14648438 C0.81304758 15.9970275 0.80936836 17.71405254 3 21 C3.99 20.01 4.98 19.02 6 18 C6.66 23.28 7.32 28.56 8 34 C1.40791451 27.40791451 -1.2407263 21.13973981 -1.39160156 11.84619141 C-1.32089218 1.32089218 -1.32089218 1.32089218 0 0 Z " fill="#AB8064" transform="translate(69,88)"/>
<path d="M0 0 C1.07765625 0.11085937 2.1553125 0.22171875 3.265625 0.3359375 C4.08546875 0.43132812 4.9053125 0.52671875 5.75 0.625 C3.58326979 3.23023513 2.40567077 4.50604259 -0.984375 5.12109375 C-7.43184708 4.99581903 -12.37728008 4.33548612 -18.25 1.625 C-15.25 0.625 -15.25 0.625 -12.8125 1.1875 C-10.29394442 1.89448874 -10.29394442 1.89448874 -8.48046875 0.62890625 C-5.46041324 -0.73038318 -3.26836443 -0.355257 0 0 Z " fill="#69493E" transform="translate(118.25,130.375)"/>
<path d="M0 0 C0.33 0 0.66 0 1 0 C1.32098157 8.35740901 1.21819111 15.22270481 -2 23 C-2.33 23 -2.66 23 -3 23 C-3 16.73 -3 10.46 -3 4 C-2.34 3.67 -1.68 3.34 -1 3 C-0.67 2.01 -0.34 1.02 0 0 Z " fill="#342920" transform="translate(149,71)"/>
<path d="M0 0 C3.35641407 0.59935965 5.42187962 1.77748243 8 4 C9.47308269 6.94616538 9.00294692 9.47762594 8.87890625 12.7578125 C8.85529526 13.42086395 8.83168427 14.08391541 8.80735779 14.76705933 C8.73073184 16.88659129 8.64670357 19.00575685 8.5625 21.125 C8.50927819 22.56117994 8.4565378 23.9973778 8.40429688 25.43359375 C8.27511856 28.95595436 8.1392997 32.47802352 8 36 C7.67 36 7.34 36 7 36 C6.98598145 34.92685547 6.98598145 34.92685547 6.97167969 33.83203125 C6.91761155 30.55401808 6.83403529 27.27737639 6.75 24 C6.73582031 22.87464844 6.72164062 21.74929687 6.70703125 20.58984375 C6.50437405 13.65896743 5.76177385 8.88307489 2 3 C1.34 2.67 0.68 2.34 0 2 C0 1.34 0 0.68 0 0 Z " fill="#A57A5B" transform="translate(55,91)"/>
<path d="M0 0 C1.17755859 -0.02126953 1.17755859 -0.02126953 2.37890625 -0.04296875 C4.4375 0.1875 4.4375 0.1875 6.4375 2.1875 C6.4375 3.5075 6.4375 4.8275 6.4375 6.1875 C5.4475 5.8575 4.4575 5.5275 3.4375 5.1875 C1.21175665 4.96298542 -1.01831519 4.77967122 -3.25 4.625 C-5.01923828 4.49931641 -5.01923828 4.49931641 -6.82421875 4.37109375 C-7.72785156 4.31050781 -8.63148438 4.24992187 -9.5625 4.1875 C-6.85091575 0.12012363 -4.6062872 0.03794306 0 0 Z " fill="#4A392E" transform="translate(137.5625,85.8125)"/>
<path d="M0 0 C0.33 0 0.66 0 1 0 C1 1.65 1 3.3 1 5 C1.99 5 2.98 5 4 5 C4 6.98 4 8.96 4 11 C-0.33685836 11 -1.9443327 8.91985986 -5 6 C-5 5.01 -5 4.02 -5 3 C-3.35 3 -1.7 3 0 3 C0 2.01 0 1.02 0 0 Z " fill="#D3A587" transform="translate(60,84)"/>
<path d="M0 0 C1.21816406 0.03480469 1.21816406 0.03480469 2.4609375 0.0703125 C3.68683594 0.09738281 3.68683594 0.09738281 4.9375 0.125 C5.87722656 0.15980469 5.87722656 0.15980469 6.8359375 0.1953125 C6.5059375 1.8453125 6.1759375 3.4953125 5.8359375 5.1953125 C2.8659375 5.1953125 -0.1040625 5.1953125 -3.1640625 5.1953125 C-3.4940625 4.2053125 -3.8240625 3.2153125 -4.1640625 2.1953125 C-2.1640625 0.1953125 -2.1640625 0.1953125 0 0 Z " fill="#150E07" transform="translate(127.1640625,101.8046875)"/>
<path d="M0 0 C7.59498961 -0.26442904 14.57359158 0.39118425 22 2 C22 3.32 22 4.64 22 6 C19.88038841 5.54579752 18.15778039 5.0923069 16.27734375 3.9921875 C12.31747362 2.26696106 8.06814224 2.53362146 3.80078125 2.34375 C2.87652344 2.2303125 1.95226562 2.116875 1 2 C0.67 1.34 0.34 0.68 0 0 Z " fill="#87654F" transform="translate(84,98)"/>
<path d="M0 0 C0 1.65 0 3.3 0 5 C-2.31 5 -4.62 5 -7 5 C-7.33 3.35 -7.66 1.7 -8 0 C-5.13822943 -1.43088528 -3.06624227 -0.59991697 0 0 Z " fill="#DAAB90" transform="translate(119,116)"/>
<path d="M0 0 C0.33 0 0.66 0 1 0 C1 5.94 1 11.88 1 18 C0.34 17.67 -0.32 17.34 -1 17 C-2.32 18.32 -3.64 19.64 -5 21 C-4.47876706 18.74132391 -3.86018081 16.61782754 -3.0625 14.4375 C-1.59818948 9.70002478 -0.81704655 4.8848953 0 0 Z " fill="#8F674B" transform="translate(142,111)"/>
<path d="M0 0 C1 3 1 3 1 7 C3.31 7.33 5.62 7.66 8 8 C8 8.33 8 8.66 8 9 C1.84765625 9.09765625 1.84765625 9.09765625 0 9 C-0.33 8.67 -0.66 8.34 -1 8 C-1.33 8.99 -1.66 9.98 -2 11 C-3.32 10.67 -4.64 10.34 -6 10 C-5.34 10 -4.68 10 -4 10 C-4.0825 9.0925 -4.165 8.185 -4.25 7.25 C-4 4 -4 4 -2 1.625 C-1.34 1.08875 -0.68 0.5525 0 0 Z " fill="#CA997B" transform="translate(111,113)"/>
<path d="M0 0 C0.33 0.66 0.66 1.32 1 2 C1.66 2.33 2.32 2.66 3 3 C1.23776224 8.53846154 1.23776224 8.53846154 -0.0625 11.0625 C-1.16476608 13.34051656 -1.58549652 15.51297909 -2 18 C-2.33 18 -2.66 18 -3 18 C-3.02725341 16.2709226 -3.04650987 14.54171824 -3.0625 12.8125 C-3.07410156 11.84957031 -3.08570313 10.88664062 -3.09765625 9.89453125 C-3.00486622 7.14423487 -2.62111685 4.67520409 -2 2 C-1.34 2 -0.68 2 0 2 C0 1.34 0 0.68 0 0 Z " fill="#A27455" transform="translate(143,104)"/>
<path d="M0 0 C6.6 0 13.2 0 20 0 C20 0.33 20 0.66 20 1 C18.02 1 16.04 1 14 1 C14 1.66 14 2.32 14 3 C8.80790596 3.21192221 4.873261 2.5912689 0 1 C0 0.67 0 0.34 0 0 Z " fill="#2F2924" transform="translate(107,128)"/>
<path d="M0 0 C1.984375 1.515625 1.984375 1.515625 4 4 C4.2911521 6.73682971 4.38322418 9.03940039 4.25 11.75 C4.23195312 12.44738281 4.21390625 13.14476563 4.1953125 13.86328125 C4.14838554 15.57611539 4.07664605 17.28823824 4 19 C3.34 19 2.68 19 2 19 C2.495 14.545 2.495 14.545 3 10 C2.34 10 1.68 10 1 10 C0.67 6.7 0.34 3.4 0 0 Z " fill="#A97A5B" transform="translate(141,67)"/>
<path d="M0 0 C0.33 0 0.66 0 1 0 C0.98839844 0.98742187 0.97679688 1.97484375 0.96484375 2.9921875 C0.95582031 4.27351563 0.94679688 5.55484375 0.9375 6.875 C0.92589844 8.15117188 0.91429688 9.42734375 0.90234375 10.7421875 C0.76823431 13.88664652 0.76823431 13.88664652 2 16 C-0.31 16 -2.62 16 -5 16 C-5.66 14.68 -6.32 13.36 -7 12 C-5.02 11.34 -3.04 10.68 -1 10 C-0.67 6.7 -0.34 3.4 0 0 Z " fill="#D3A285" transform="translate(117,100)"/>
<path d="M0 0 C0 0.66 0 1.32 0 2 C-1.65 2.33 -3.3 2.66 -5 3 C-5 3.66 -5 4.32 -5 5 C-1.04 5 2.92 5 7 5 C7 5.33 7 5.66 7 6 C-0.92 6.495 -0.92 6.495 -9 7 C-8.34 6.01 -7.68 5.02 -7 4 C-7.33 3.34 -7.66 2.68 -8 2 C-4.91190305 0.23537317 -3.76687864 0 0 0 Z " fill="#2D2A27" transform="translate(85,36)"/>
<path d="M0 0 C1.485 0.99 1.485 0.99 3 2 C5.0492094 2.45139459 5.0492094 2.45139459 7.1875 2.625 C8.445625 2.74875 9.70375 2.8725 11 3 C10.67 3.99 10.34 4.98 10 6 C6.37 5.67 2.74 5.34 -1 5 C-0.67 3.35 -0.34 1.7 0 0 Z " fill="#835A40" transform="translate(109,120)"/>
<path d="M0 0 C1.32 0.66 2.64 1.32 4 2 C4 3.32 4 4.64 4 6 C3.01 6 2.02 6 1 6 C0.67 9.63 0.34 13.26 0 17 C-0.33 17 -0.66 17 -1 17 C-0.67 11.39 -0.34 5.78 0 0 Z " fill="#D1BCAE" transform="translate(136,102)"/>
<path d="M0 0 C0.66 0.66 1.32 1.32 2 2 C2.33 1.67 2.66 1.34 3 1 C5.33297433 0.95907063 7.66705225 0.95758277 10 1 C10 1.66 10 2.32 10 3 C5.545 4.485 5.545 4.485 1 6 C0.34 5.34 -0.32 4.68 -1 4 C-0.625 1.875 -0.625 1.875 0 0 Z " fill="#332E29" transform="translate(66,55)"/>
<path d="M0 0 C1.95387664 3.90775329 2.34762234 5.99687587 2.625 10.25 C2.69976562 11.32765625 2.77453125 12.4053125 2.8515625 13.515625 C2.92503906 14.74539062 2.92503906 14.74539062 3 16 C1.68 15.67 0.36 15.34 -1 15 C-0.67 10.05 -0.34 5.1 0 0 Z " fill="#C29274" transform="translate(122,111)"/>
<path d="M0 0 C3.3 0.66 6.6 1.32 10 2 C10.33 2.99 10.66 3.98 11 5 C6.45194365 5.17835515 3.1205746 4.99785435 -1 3 C-0.67 2.01 -0.34 1.02 0 0 Z " fill="#92786B" transform="translate(102,128)"/>
<path d="M0 0 C1.65 0 3.3 0 5 0 C4.01 0.495 4.01 0.495 3 1 C3 2.98 3 4.96 3 7 C-0.96 7 -4.92 7 -9 7 C-9 6.67 -9 6.34 -9 6 C-4.545 5.505 -4.545 5.505 0 5 C0 3.35 0 1.7 0 0 Z " fill="#70553D" transform="translate(133,101)"/>
<path d="M0 0 C4.19469571 0.59924224 8.00999834 1.57499941 12 3 C12 3.66 12 4.32 12 5 C8.53058454 4.54177532 5.32604951 4.10868317 2 3 C2 2.34 2 1.68 2 1 C1.34 0.67 0.68 0.34 0 0 Z " fill="#302C28" transform="translate(94,123)"/>
<path d="M0 0 C-0.33 0.33 -0.66 0.66 -1 1 C0.65 1.33 2.3 1.66 4 2 C4 2.33 4 2.66 4 3 C0.37 3 -3.26 3 -7 3 C-6.67 2.01 -6.34 1.02 -6 0 C-3.50907189 -1.24546405 -2.58919267 -0.7767578 0 0 Z " fill="#655145" transform="translate(92,86)"/>
<path d="M0 0 C0.33 0 0.66 0 1 0 C1 5.28 1 10.56 1 16 C0.34 16.33 -0.32 16.66 -1 17 C-1.66 15.68 -2.32 14.36 -3 13 C-2.01 13 -1.02 13 0 13 C0 8.71 0 4.42 0 0 Z " fill="#96694D" transform="translate(145,73)"/>
<path d="M0 0 C-0.5775 0.268125 -1.155 0.53625 -1.75 0.8125 C-4.06461975 1.93880119 -4.06461975 1.93880119 -6.0625 3.6875 C-6.701875 4.120625 -7.34125 4.55375 -8 5 C-8.99 4.67 -9.98 4.34 -11 4 C-7.26280719 0.48264206 -5.13496308 -0.47767098 0 0 Z " fill="#3A2C24" transform="translate(137,98)"/>
<path d="M0 0 C0.98120464 3.05263664 0.98120464 4.94736336 0 8 C-1.32 7.67 -2.64 7.34 -4 7 C-3.34 7 -2.68 7 -2 7 C-2 5.02 -2 3.04 -2 1 C-1.34 0.67 -0.68 0.34 0 0 Z " fill="#BA8D70" transform="translate(109,116)"/>
<path d="M0 0 C2.97 0.33 5.94 0.66 9 1 C8.67 1.66 8.34 2.32 8 3 C5.6875 3.1875 5.6875 3.1875 3 3 C2.01 2.01 1.02 1.02 0 0 Z " fill="#71574B" transform="translate(90,125)"/>
<path d="M0 0 C0.66 0.33 1.32 0.66 2 1 C0.63016497 4.16115776 0.0109362 4.9927092 -3 7 C-2.25 2.25 -2.25 2.25 0 0 Z " fill="#C59679" transform="translate(124,86)"/>
<path d="M0 0 C1.65 0 3.3 0 5 0 C5 0.99 5 1.98 5 3 C3.02 3 1.04 3 -1 3 C-0.67 2.01 -0.34 1.02 0 0 Z " fill="#E4B89F" transform="translate(113,117)"/>
<path d="M0 0 C0 0.66 0 1.32 0 2 C-1.98 2.66 -3.96 3.32 -6 4 C-6.66 3.34 -7.32 2.68 -8 2 C-4.91190305 0.23537317 -3.76687864 0 0 0 Z " fill="#363029" transform="translate(85,36)"/>
</svg>
