<?xml version="1.0" encoding="UTF-8"?>
<svg version="1.1" xmlns="http://www.w3.org/2000/svg" width="365" height="92">
<path d="M0 0 C5.61 0 11.22 0 17 0 C17.33 13.86 17.66 27.72 18 42 C25.69834665 33.15910805 25.69834665 33.15910805 33 24 C35.26831055 23.54589844 35.26831055 23.54589844 37.88671875 23.609375 C38.82451172 23.62226563 39.76230469 23.63515625 40.72851562 23.6484375 C41.70498047 23.68195312 42.68144531 23.71546875 43.6875 23.75 C44.67556641 23.76804687 45.66363281 23.78609375 46.68164062 23.8046875 C49.12206842 23.85184553 51.56054769 23.91763958 54 24 C49.96680738 29.5524855 45.70288922 34.63996046 40.96875 39.59765625 C37.88277929 42.88412788 35.3979442 46.20606951 33 50 C33.75023437 50.87140625 34.50046875 51.7428125 35.2734375 52.640625 C40.46090427 58.67365226 45.63635266 64.71668683 50.75 70.8125 C51.56984375 71.78832031 52.3896875 72.76414062 53.234375 73.76953125 C55 76 55 76 55 77 C36.561728 78.46236295 36.561728 78.46236295 31.10546875 75.34765625 C29.09017051 73.0122088 27.56672178 70.65526296 26 68 C24.52185046 66.12836757 23.02189993 64.27373382 21.5 62.4375 C20.345 60.973125 19.19 59.50875 18 58 C17.67 64.27 17.34 70.54 17 77 C11.39 77 5.78 77 0 77 C0 51.59 0 26.18 0 0 Z " fill="#000000" transform="translate(310,1)"/>
<path d="M0 0 C0.495 0.495 0.495 0.495 1 1 C1.33 -0.32 1.66 -1.64 2 -3 C7.28 -3 12.56 -3 18 -3 C18 14.49 18 31.98 18 50 C12.72 50 7.44 50 2 50 C1.505 48.02 1.505 48.02 1 46 C0.236875 46.639375 -0.52625 47.27875 -1.3125 47.9375 C-6.85757689 52.19302412 -13.29309679 51.54896361 -20 51 C-26.73736639 49.26879456 -31.05968539 44.51853081 -35 39 C-39.22322039 31.53897731 -40.08246369 22.46463379 -37.84765625 14.19140625 C-34.95321162 6.70853328 -29.97879966 0.95559495 -23 -3 C-14.80157239 -5.72723204 -7.19860399 -4.39914688 0 0 Z M-20 15 C-22.40943467 18.41984276 -23.24719111 20.95135056 -22.9375 25.0625 C-22.12440672 29.68475851 -19.99862843 32.50102868 -16.25 35.3125 C-12.039002 36.59919383 -8.04318368 36.82979874 -3.9609375 35.171875 C-0.36046942 33.22330319 -0.36046942 33.22330319 2 30 C3.0231474 22.22741351 3.0231474 22.22741351 0.73046875 15.06640625 C-3.31803483 11.74683032 -6.7130195 10.63789415 -11.90234375 10.72265625 C-15.40903514 11.18629701 -17.38925777 12.69283245 -20 15 Z " fill="#000000" transform="translate(228,28)"/>
<path d="M0 0 C4.4346895 3.11437914 8.48799407 6.33898221 10.23046875 11.56640625 C8.27527491 12.73832672 6.31621485 13.90379915 4.35546875 15.06640625 C3.26492188 15.71609375 2.174375 16.36578125 1.05078125 17.03515625 C-1.76953125 18.56640625 -1.76953125 18.56640625 -3.76953125 18.56640625 C-5.45715976 16.92096845 -7.12356615 15.25352048 -8.76953125 13.56640625 C-11.84148033 12.03043171 -14.37197418 12.33990245 -17.76953125 12.56640625 C-21.99703446 14.12012664 -21.99703446 14.12012664 -24.91015625 17.3671875 C-26.46988695 21.35868015 -26.45594583 25.36636456 -25.76953125 29.56640625 C-23.57930207 32.39064913 -21.93935918 33.98149228 -18.76953125 35.56640625 C-13.3737721 35.92022652 -10.2096506 35.96179163 -5.76953125 32.56640625 C-5.10953125 31.90640625 -4.44953125 31.24640625 -3.76953125 30.56640625 C0.00792172 30.91558257 2.79431655 32.23789974 6.04296875 34.12890625 C6.83316406 34.58394531 7.62335938 35.03898437 8.4375 35.5078125 C9.02917969 35.85714844 9.62085938 36.20648438 10.23046875 36.56640625 C8.61135125 43.24526592 2.6765995 47.01885414 -2.83203125 50.50390625 C-9.68030502 53.04439491 -19.19727379 52.68372888 -26.14453125 50.62890625 C-32.42515588 47.72909926 -37.30981288 42.02968099 -40.76953125 36.19140625 C-43.33735555 26.88304317 -43.6672979 18.13903442 -39.14453125 9.44140625 C-29.05873147 -2.7677198 -14.82656944 -8.48960175 0 0 Z " fill="#000000" transform="translate(294.76953125,27.43359375)"/>
<path d="M0 0 C0.66 0.33 1.32 0.66 2 1 C1.40895235 5.84659077 0.02055843 9.60748167 -2 14 C-2.85722656 13.6390625 -3.71445313 13.278125 -4.59765625 12.90625 C-13.04131858 9.31996409 -13.04131858 9.31996409 -22 9 C-22.99 9.495 -22.99 9.495 -24 10 C-24.65213292 12.02463255 -24.65213292 12.02463255 -25 14 C-24.33355469 14.17015625 -23.66710937 14.3403125 -22.98046875 14.515625 C-19.97512956 15.30584006 -16.98681103 16.14240079 -14 17 C-13.0203125 17.2784375 -12.040625 17.556875 -11.03125 17.84375 C-4.67829338 19.86831859 -0.52158539 22.20685762 3 28 C4.41114498 32.23343493 4.91699236 35.88143144 3.09375 40.09375 C-0.12221582 45.61861436 -3.83491984 48.94497328 -10 51 C-20.01345279 51.62075266 -29.98137816 52.09748191 -39 47 C-39.99 46.01 -40.98 45.02 -42 44 C-40.68 40.7 -39.36 37.4 -38 34 C-34.54478804 34.69104239 -31.93992681 35.33969472 -28.75 36.5625 C-24.13882978 38.14590016 -19.84657116 38.53281543 -15 38 C-14.01 37.505 -14.01 37.505 -13 37 C-12.34786708 34.97536745 -12.34786708 34.97536745 -12 33 C-13.08539063 32.74605469 -14.17078125 32.49210937 -15.2890625 32.23046875 C-16.73446724 31.88319618 -18.17977465 31.53551836 -19.625 31.1875 C-20.33785156 31.02185547 -21.05070312 30.85621094 -21.78515625 30.68554688 C-28.84713567 28.96864362 -34.11284001 26.58532571 -39 21 C-40.70726778 15.87819666 -40.61357146 10.95575903 -39 5.8125 C-36.04578688 1.6581378 -32.06096104 -1.9025496 -27.19140625 -3.6484375 C-17.58234539 -5.18999807 -8.65978167 -4.53954871 0 0 Z " fill="#000000" transform="translate(158,28)"/>
<path d="M0 0 C5.61 0 11.22 0 17 0 C17 25.41 17 50.82 17 77 C11.39 77 5.78 77 0 77 C0 51.59 0 26.18 0 0 Z " fill="#000000" transform="translate(167,1)"/>
<path d="M0 0 C3.56640972 2.67480729 5.23924839 4.66434213 6 9 C6.22669944 13.3095754 6.1851511 17.62256233 6.1875 21.9375 C6.19974609 23.11763672 6.21199219 24.29777344 6.22460938 25.51367188 C6.22750977 27.22200195 6.22750977 27.22200195 6.23046875 28.96484375 C6.23457764 30.0024585 6.23868652 31.04007324 6.24291992 32.10913086 C5.87758735 36.45677203 4.80852571 39.14527282 1.8125 42.3125 C-1.7483857 44.44903142 -3.90698552 44.44651067 -8 44 C-10.88767477 43.11765493 -11.78893794 42.28739742 -13.58227539 39.84545898 C-16.05925205 34.8740171 -15.48043369 29.59503739 -15.44604492 24.13500977 C-15.43753675 22.0714125 -15.46631856 20.01058975 -15.49804688 17.94726562 C-15.49740234 16.63564453 -15.49675781 15.32402344 -15.49609375 13.97265625 C-15.49794678 12.77906494 -15.4997998 11.58547363 -15.50170898 10.35571289 C-14.90081049 6.3365646 -13.51476206 4.15452081 -11 1 C-7.52200335 -0.73899832 -3.794318 -0.58979036 0 0 Z " fill="#2EB67C" transform="translate(63,0)"/>
<path d="M0 0 C1.44905704 -0.01652178 2.89803384 -0.04376266 4.34667969 -0.08203125 C6.44394873 -0.13710911 8.53930991 -0.15871937 10.63720703 -0.17333984 C11.89178711 -0.19315918 13.14636719 -0.21297852 14.43896484 -0.23339844 C19.05828419 0.53777879 20.64339559 2.07728868 23.93408203 5.35009766 C25.36712267 8.21617894 25.24052359 10.16310549 24.93408203 13.35009766 C21.77618729 18.92904502 21.77618729 18.92904502 18.93408203 20.35009766 C14.2784686 20.63273307 9.62212303 20.66377417 4.95874023 20.70019531 C3.40585326 20.71674127 1.85304203 20.74401407 0.30053711 20.78222656 C-1.94310838 20.8371418 -4.18497122 20.85888903 -6.42919922 20.87353516 C-7.46383049 20.90753922 -7.46383049 20.90753922 -8.5193634 20.94223022 C-12.41185218 20.92526348 -13.93826521 20.45554296 -16.98071289 17.94238281 C-19.19766132 15.18631696 -19.96826018 14.06625477 -20.44091797 10.60009766 C-19.91875807 6.07471185 -18.22362419 4.58298735 -15.06591797 1.35009766 C-10.69056036 -0.83758115 -4.85885439 0.0405727 0 0 Z " fill="#ECB22D" transform="translate(68.06591796875,47.64990234375)"/>
<path d="M0 0 C2.24566003 -0.0171905 4.48983863 -0.06107399 6.73510742 -0.10522461 C8.16803932 -0.11535399 9.60098372 -0.12386933 11.03393555 -0.13061523 C12.98650269 -0.15248901 12.98650269 -0.15248901 14.97851562 -0.17480469 C19.00120375 0.36948959 20.61230166 1.45622398 23.4519043 4.29516602 C25.05277057 7.49689855 24.95107519 10.8209366 24.4519043 14.29516602 C22.65826519 17.10520062 21.43309494 18.80457069 18.4519043 20.29516602 C13.9579707 20.57755605 9.46034818 20.60888108 4.95874023 20.64526367 C3.46118592 20.66178796 1.96370934 20.68903207 0.46655273 20.72729492 C-1.70020156 20.78234944 -3.86510914 20.80397992 -6.0324707 20.81860352 C-7.32894531 20.83842285 -8.62541992 20.85824219 -9.96118164 20.87866211 C-14.66805149 20.11297882 -16.23943151 18.66812179 -19.5480957 15.29516602 C-20.52684422 11.88007038 -20.2513924 8.76476304 -19.5480957 5.29516602 C-14.65648652 -1.3900332 -7.5107148 0.04008551 0 0 Z " fill="#35C5F0" transform="translate(19.548095703125,23.704833984375)"/>
<path d="M0 0 C2.47576818 1.92559748 3.15356097 2.85079142 4.25 5.75 C4.64849093 10.16722168 4.62161465 14.58891981 4.62060547 19.02172852 C4.6249795 21.17739841 4.6613243 23.33102005 4.69921875 25.48632812 C4.7050876 26.86457637 4.70905654 28.24283429 4.7109375 29.62109375 C4.71915527 30.86818115 4.72737305 32.11526855 4.73583984 33.40014648 C4.16583352 37.33032577 3.01530498 38.95731896 0.25 41.75 C-2.95173254 43.35086627 -6.27577059 43.24917089 -9.75 42.75 C-12.5600346 40.95636089 -14.25940468 39.73119065 -15.75 36.75 C-15.98525839 32.37954082 -15.97841656 28.00519006 -15.99023438 23.62915039 C-15.9999169 21.45615017 -16.03092826 19.28410537 -16.0625 17.11132812 C-16.06903269 15.72396394 -16.07428212 14.336593 -16.078125 12.94921875 C-16.0874707 11.68940186 -16.09681641 10.42958496 -16.10644531 9.1315918 C-15.72390163 5.5024051 -14.91558126 3.64883832 -12.75 0.75 C-8.70831417 -2.17673801 -4.4400365 -2.01819841 0 0 Z " fill="#DF1D59" transform="translate(39.75,49.25)"/>
<path d="M0 0 C3.16614383 1.33681628 4.58374759 2.3188597 6.375 5.25 C7.19780531 8.87034336 6.91464645 11.40674608 6 15 C4.10888889 17.3181362 2.66171969 18.66914015 0 20 C-2.37402501 20.07116382 -4.75000677 20.08409085 -7.125 20.0625 C-8.40632813 20.05347656 -9.68765625 20.04445313 -11.0078125 20.03515625 C-12.48894531 20.01775391 -12.48894531 20.01775391 -14 20 C-14.05449838 18.27119018 -14.09301688 16.54187288 -14.125 14.8125 C-14.14820312 13.84957031 -14.17140625 12.88664062 -14.1953125 11.89453125 C-13.90098706 7.53262819 -12.8119108 4.85830571 -9.8125 1.6875 C-6.21852832 -0.46888301 -4.13327601 -0.5166595 0 0 Z " fill="#2EB57C" transform="translate(86,24)"/>
<path d="M0 0 C13.48463708 -0.58913463 13.48463708 -0.58913463 18 3 C20.46902011 7.01215768 21.13970492 9.06863387 20.4375 13.75 C18.31154551 18.5565058 18.31154551 18.5565058 15 20 C11.88871662 20.51854723 9.10249288 20.60833194 6 20 C3.24430553 17.81840855 1.56411253 16.12822506 0 13 C-0.07092842 10.7927077 -0.08415025 8.58332548 -0.0625 6.375 C-0.05347656 5.18648438 -0.04445312 3.99796875 -0.03515625 2.7734375 C-0.02355469 1.85820313 -0.01195312 0.94296875 0 0 Z " fill="#ECB22E" transform="translate(48,72)"/>
<path d="M0 0 C1.18851563 0.00902344 2.37703125 0.01804688 3.6015625 0.02734375 C4.51679688 0.03894531 5.43203125 0.05054688 6.375 0.0625 C7.06374748 12.95738342 7.06374748 12.95738342 4.5 16.8125 C1.68087171 19.79745937 0.05610908 20.26298935 -3.9375 20.4375 C-7.49405532 20.37439983 -8.55615282 20.10605638 -11.6875 18.125 C-13.94489201 14.55686424 -14.34666614 12.37499004 -14.125 8.21875 C-13.32500747 4.76878222 -11.36907005 3.15322004 -8.625 1.0625 C-5.74084117 -0.37957941 -3.20778472 -0.03144887 0 0 Z " fill="#DF1E59" transform="translate(13.625,47.9375)"/>
<path d="M0 0 C2.8100346 1.79363911 4.50940468 3.01880935 6 6 C6.07116382 8.37402501 6.08409085 10.75000677 6.0625 13.125 C6.05347656 14.40632812 6.04445313 15.68765625 6.03515625 17.0078125 C6.02355469 17.99523437 6.01195313 18.98265625 6 20 C3.93816367 20.08150744 1.87538651 20.1394194 -0.1875 20.1875 C-1.91033203 20.23970703 -1.91033203 20.23970703 -3.66796875 20.29296875 C-7.30487336 19.97319402 -9.09391786 19.1532384 -12 17 C-14.56570589 13.57905881 -14.43708054 10.15226516 -14 6 C-10.26747896 0.27680107 -6.74763808 -0.96948823 0 0 Z " fill="#36C4EF" transform="translate(38,0)"/>
</svg>
