<?xml version="1.0" encoding="UTF-8"?>
<svg version="1.1" xmlns="http://www.w3.org/2000/svg" width="512" height="512">
<path d="M0 0 C1.00417969 0.84175781 2.00835937 1.68351562 3.04296875 2.55078125 C22.6852568 19.50991722 35.07004788 42.9186229 37.15332031 68.91308594 C38.2961111 86.4166944 34.81671235 103.79408262 32 121 C32.59530518 121.05115967 33.19061035 121.10231934 33.80395508 121.1550293 C39.94287672 121.74690542 44.53908415 123.12965144 50 126 C51.03125 126.53625 52.0625 127.0725 53.125 127.625 C60.84366382 134.0012875 64.82041442 142.13325813 66 152 C66.4515354 163.66936788 63.29470647 173.58985226 55.625 182.4375 C48.15128984 190.10756379 40.24261067 195.26861342 29.2265625 196.24609375 C27.14942381 196.24936999 25.07254073 196.13816938 23 196 C22.89816406 196.69480469 22.79632813 197.38960937 22.69140625 198.10546875 C21.88282994 201.49052552 20.53324287 204.22287019 18.9375 207.3125 C18.11572266 208.91544922 18.11572266 208.91544922 17.27734375 210.55078125 C16.64505859 211.76314453 16.64505859 211.76314453 16 213 C16.9178125 213.02578125 17.835625 213.0515625 18.78125 213.078125 C26.29373269 213.42534059 31.53737651 214.14728215 38 218 C40.13971575 218.23166418 40.13971575 218.23166418 41.63671875 216.41796875 C42.31347656 215.68191406 42.99023438 214.94585937 43.6875 214.1875 C62.13320733 195.47702175 87.70634984 183.9135909 114.0949707 183.67089844 C115.65671021 183.67911621 115.65671021 183.67911621 117.25 183.6875 C118.34465576 183.69168945 119.43931152 183.69587891 120.56713867 183.70019531 C129.05490248 183.81810705 136.80054404 184.68450571 145 187 C145.99257813 187.26683594 146.98515625 187.53367188 148.0078125 187.80859375 C174.41136916 195.72966075 195.81651188 213.91170246 209.0390625 237.88378906 C221.12076354 260.70345865 224.61654367 290.18853199 217 315 C216.80664062 315.63228516 216.61328125 316.26457031 216.4140625 316.91601562 C212.63461126 328.89594287 206.87636763 342.82912756 197 351 C194.859375 351.171875 194.859375 351.171875 192.75 350.75 C189.30869103 350.50213352 188.27404774 350.78732532 185.48828125 352.94921875 C183.90363577 354.57469245 182.35433075 356.23559551 180.84765625 357.93359375 C179 360 179 360 177 361 C176.7636589 363.19979026 176.74921875 365.36640645 176.734375 367.578125 C175.32534357 372.22493079 170.90726663 374.45169033 166.94921875 376.84375 C152.04504184 384.411859 136.11086554 389.06851485 119.27880859 389.01635742 C118.2898056 389.01399582 117.30080261 389.01163422 116.28182983 389.00920105 C115.52882599 389.0061647 114.77582214 389.00312836 114 389 C114.00888245 389.7383609 114.01776489 390.4767218 114.0269165 391.23745728 C114.10721259 398.21095089 114.16804057 405.18437501 114.20724869 412.15821266 C114.22808423 415.74320901 114.25632651 419.32782194 114.30175781 422.91259766 C114.34536192 426.3750419 114.36916743 429.83711841 114.37950897 433.29981613 C114.39044821 435.25742482 114.42165128 437.21488648 114.45318604 439.17227173 C114.45596184 450.20470432 114.45596184 450.20470432 110 455 C105.46099161 459.24616914 100.43241288 459.12495734 94.45409584 459.13142776 C93.80715342 459.1334804 93.160211 459.13553303 92.49366426 459.13764787 C90.32295629 459.14330832 88.15231195 459.14186181 85.9815979 459.14044189 C84.41072179 459.14302606 82.83984634 459.14603937 81.2689718 459.1494453 C76.94977992 459.1575122 72.63060466 459.15930469 68.31140614 459.16004276 C63.65418871 459.16189381 58.9969799 459.16944131 54.33976746 459.17617798 C44.1560352 459.18975869 33.97230687 459.19578535 23.78856707 459.20018864 C17.43132347 459.20295098 11.0740814 459.20718826 4.71683884 459.21169281 C-12.8809951 459.22388414 -30.47882781 459.23418437 -48.07666588 459.2375679 C-49.20288923 459.23778747 -50.32911257 459.23800703 -51.4894639 459.23823325 C-53.18285361 459.23856067 -53.18285361 459.23856067 -54.9104532 459.2388947 C-57.19811463 459.23933817 -59.48577607 459.23978473 -61.7734375 459.24023438 C-62.90819805 459.2404558 -64.04295859 459.24067723 -65.21210583 459.24090537 C-83.60757831 459.24485511 -102.00301123 459.26231508 -120.39846842 459.2855939 C-139.28003929 459.30929529 -158.1615903 459.32176917 -177.04317629 459.32293582 C-187.64649589 459.32385316 -198.2497639 459.32962039 -208.85306931 459.34775543 C-217.87998078 459.36313991 -226.90682471 459.36828658 -235.9337468 459.36001733 C-240.54015577 459.35610524 -245.14642866 459.35706774 -249.75282097 459.37107468 C-253.96956452 459.38377972 -258.18606926 459.38264608 -262.40281232 459.37048396 C-263.92835159 459.36852109 -265.45390758 459.37163259 -266.97942333 459.38032833 C-269.05404289 459.3914055 -271.12781732 459.38394393 -273.20241356 459.3719368 C-274.35443272 459.37253389 -275.50645188 459.37313097 -276.69338071 459.37374616 C-282.54325321 458.71253688 -287.15223697 456.58771746 -291 452 C-292.41214509 449.17570982 -292.1507565 446.79161031 -292.17700195 443.6328125 C-292.18357315 442.97868378 -292.19014435 442.32455505 -292.19691467 441.65060425 C-292.21668838 439.47540156 -292.22833288 437.30026882 -292.23828125 435.125 C-292.24235678 434.37702148 -292.2464323 433.62904297 -292.25063133 432.85839844 C-292.27153121 428.88248979 -292.28580347 424.90661582 -292.29516602 420.93066406 C-292.30394968 417.67200578 -292.32463339 414.41378459 -292.35668945 411.15527344 C-292.62768888 383.01568237 -292.01039467 355.53865546 -271.3125 333.8125 C-261.69468973 324.67268331 -251.27828155 319.45763605 -239 315 C-237.91332031 314.58492188 -236.82664063 314.16984375 -235.70703125 313.7421875 C-228.44886364 311 -228.44886364 311 -225 311 C-225.01110306 310.01996002 -225.02220612 309.03992004 -225.03364563 308.03018188 C-225.13531608 298.76222988 -225.21010598 289.49439208 -225.25906086 280.22600746 C-225.28507599 275.46179457 -225.32032496 270.69803442 -225.37719727 265.93408203 C-225.43180724 261.3304542 -225.46148124 256.7272599 -225.47438622 252.12333298 C-225.48357437 250.3731441 -225.50151622 248.62297705 -225.52865028 246.8729744 C-225.79750752 228.80281326 -225.79750752 228.80281326 -220 221 C-217.6484375 218.74609375 -217.6484375 218.74609375 -215.375 217.4375 C-214.61960937 216.98246094 -213.86421875 216.52742187 -213.0859375 216.05859375 C-208.86889015 213.9184817 -205.48840527 213.89460179 -200.8125 213.9375 C-199.54019531 213.94652344 -198.26789063 213.95554688 -196.95703125 213.96484375 C-195.49330078 213.98224609 -195.49330078 213.98224609 -194 214 C-197.11049088 205.04864732 -197.11049088 205.04864732 -202 197 C-205.40604059 195.45421565 -207.90197781 195.32217848 -211.62109375 195.21875 C-220.47162281 194.64576777 -229.22339588 188.52614112 -235 182 C-242.4283676 171.96578136 -245.33334806 161.43459424 -244 149 C-241.85300295 139.70847605 -237.49291716 132.2356014 -229.6875 126.6875 C-223.79675868 123.03186289 -217.74447311 121.32843574 -211 120 C-211.15146484 119.16154541 -211.30292969 118.32309082 -211.45898438 117.45922852 C-221.43664299 61.18139638 -221.43664299 61.18139638 -206 36 C-203.23921139 32.38561067 -200.25715135 29.16880185 -197 26 C-196.48308594 25.45085937 -195.96617187 24.90171875 -195.43359375 24.3359375 C-190.42552234 19.44554923 -183.88261657 16.72990969 -177.64453125 13.734375 C-176.6841394 13.2710376 -176.6841394 13.2710376 -175.7043457 12.79833984 C-174.3949162 12.18498438 -173.06097619 11.62374731 -171.71875 11.0859375 C-169.20063595 9.49494726 -168.17875855 7.43042634 -166.6875 4.875 C-155.68135031 -12.97218142 -138.13276805 -22.95406573 -118 -28 C-114.3473224 -28.83518524 -110.7108553 -29.48445426 -107 -30 C-105.74123047 -30.185625 -105.74123047 -30.185625 -104.45703125 -30.375 C-68.29364364 -34.54970564 -27.9000637 -23.55917685 0 0 Z " fill="#010101" transform="translate(292,42)"/>
<path d="M0 0 C1.27841263 -0.00571014 2.55682526 -0.01142029 3.87397766 -0.01730347 C5.28869619 -0.01854876 6.70341483 -0.01967387 8.11813354 -0.02069092 C9.60986961 -0.02532097 11.1016045 -0.03034588 12.59333801 -0.03573608 C16.64529581 -0.04884706 20.69723705 -0.0553029 24.74921274 -0.05974674 C27.28340152 -0.06268054 29.8175858 -0.06678601 32.35177231 -0.07125092 C40.28820338 -0.08492457 48.22462414 -0.09459096 56.16106617 -0.09845281 C65.30789318 -0.10292853 74.45457038 -0.12045436 83.60135186 -0.1494534 C90.68008957 -0.17111281 97.75878528 -0.18115941 104.83755577 -0.18249393 C109.0610244 -0.18353923 113.28435219 -0.18938783 117.5077858 -0.20731354 C121.48542409 -0.22386726 125.46281678 -0.22591458 129.44047737 -0.21717453 C130.89403888 -0.21640795 132.34761399 -0.22069643 133.80114174 -0.23063278 C144.60643528 -0.30011815 154.56636797 -0.00154493 162.75827026 7.77325439 C167.04419442 12.79698755 170.44131774 18.45734401 173.77780151 24.14044189 C174.14043091 24.69272461 174.5030603 25.24500732 174.87667847 25.81402588 C176.23891681 29.33089642 176.08288202 32.85058537 176.07858276 36.57012939 C176.08286789 37.39691193 176.08715302 38.22369446 176.09156799 39.07553101 C176.09730816 40.82892952 176.09781386 42.58235185 176.09347534 44.33575439 C176.09035343 46.97160694 176.11364351 49.60629372 176.13912964 52.24200439 C176.19667458 67.26887032 173.88634254 80.23644444 167.70303917 94.03202057 C167.09295651 95.42227018 166.50366736 96.82185722 165.93702126 98.23036957 C163.88599274 103.26188863 161.69774313 108.27927726 157.77780151 112.14044189 C152.02582992 114.34992803 146.71175066 114.06673289 140.63327026 113.78106689 C138.97426033 113.76347585 137.3151528 113.75357375 135.65605164 113.75097656 C131.30931584 113.72634041 126.97018172 113.60970371 122.62582397 113.46948242 C115.65930467 113.26251655 108.68944583 113.20612545 101.7205143 113.13176727 C99.29075132 113.09407082 96.86384988 113.02292285 94.43507385 112.94519043 C92.9480066 112.91255158 91.46093112 112.8802845 89.97384644 112.84844971 C88.67750778 112.80907288 87.38116913 112.76969604 86.04554749 112.72912598 C82.718437 112.88036991 82.718437 112.88036991 80.32023621 114.93212891 C78.41616715 117.18737025 78.41616715 117.18737025 78.90280151 120.76544189 C79.48520865 124.18586245 79.48520865 124.18586245 81.77780151 126.14044189 C83.72127038 126.44499565 83.72127038 126.44499565 85.9776001 126.39872742 C87.29828239 126.40896942 87.29828239 126.40896942 88.64564514 126.41941833 C90.09817436 126.41558891 90.09817436 126.41558891 91.58004761 126.41168213 C92.5980394 126.41690887 93.61603119 126.42213562 94.66487122 126.42752075 C96.8807559 126.43778145 99.09666482 126.44354474 101.31257248 126.44540215 C104.81726182 126.44905233 108.32166475 126.46574199 111.82629395 126.48616028 C121.79249758 126.54170263 131.75874396 126.57227598 141.72506714 126.59674072 C147.81583341 126.61259601 153.90639727 126.64279575 159.99705887 126.6815052 C162.32149739 126.69317535 164.64597209 126.69908573 166.97043991 126.69918633 C170.21943086 126.6993779 173.4678621 126.71760997 176.71676636 126.73980713 C178.16322289 126.73294136 178.16322289 126.73294136 179.63890076 126.72593689 C180.52499527 126.73558472 181.41108978 126.74523254 182.32403564 126.75517273 C183.47606759 126.75818972 183.47606759 126.75818972 184.65137291 126.76126766 C187.32073181 127.23725454 188.74264008 128.39574644 190.77780151 130.14044189 C190.18136413 134.08118888 188.93905425 136.97032414 187.02780151 140.45294189 C184.49759931 145.37311823 182.59451293 150.24729302 180.96530151 155.51544189 C180.75872925 156.18100098 180.55215698 156.84656006 180.33932495 157.5322876 C178.47397263 163.77338027 177.60640473 169.04902834 178.27780151 175.53887939 C179.99133305 199.28482703 173.01594495 216.76954087 162.7819519 237.9475708 C156.79653969 249.05844786 156.79653969 249.05844786 155.77780151 261.14044189 C157.86367695 263.80500491 159.06198284 264.99661567 162.41574097 265.67047119 C163.39760376 265.68505371 164.37946655 265.69963623 165.39108276 265.71466064 C166.47453979 265.74237549 167.55799683 265.77009033 168.67428589 265.79864502 C169.80157104 265.80831299 170.9288562 265.81798096 172.09030151 265.82794189 C174.31562419 265.87036572 176.54089086 265.91585679 178.76608276 265.96466064 C179.75132935 265.97585938 180.73657593 265.98705811 181.75167847 265.99859619 C185.1116341 266.15608988 188.44796308 266.66475069 191.77780151 267.14044189 C191.77780151 278.03044189 191.77780151 288.92044189 191.77780151 300.14044189 C112.24780151 300.14044189 32.71780151 300.14044189 -49.22219849 300.14044189 C-49.32532349 272.52356689 -49.42844849 244.90669189 -49.53469849 216.45294189 C-49.58021851 207.72768066 -49.62573853 199.00241943 -49.67263794 190.01275635 C-49.69522095 179.37127686 -49.69522095 179.37127686 -49.69941711 174.39207458 C-49.70408203 170.90879954 -49.72284475 167.42590417 -49.75007629 163.94273376 C-49.78434181 159.5010968 -49.79466028 155.06001286 -49.78755987 150.61825597 C-49.78904483 148.98730355 -49.79897857 147.35633203 -49.81827414 145.72549307 C-49.84312671 143.52284254 -49.83716124 141.32234351 -49.82347107 139.11964417 C-49.82808003 137.88536336 -49.832689 136.65108255 -49.83743763 135.3793993 C-49.04193447 131.19143293 -47.56484539 129.71304917 -44.22219849 127.14044189 C-42.08483696 126.52075863 -42.08483696 126.52075863 -39.9206543 126.52812195 C-38.67996689 126.51386169 -38.67996689 126.51386169 -37.41421509 126.49931335 C-36.52053223 126.51422318 -35.62684937 126.529133 -34.70608521 126.54449463 C-33.75432404 126.5404361 -32.80256287 126.53637756 -31.82196045 126.53219604 C-29.75998804 126.52668392 -27.69795982 126.53267293 -25.63604355 126.54885674 C-22.37473816 126.574247 -19.11469834 126.56948912 -15.85333252 126.55696106 C-8.93448214 126.53620841 -2.01602312 126.55591428 4.90280151 126.57794189 C12.92668104 126.5990216 20.95015507 126.60367955 28.97402573 126.57744026 C32.19114072 126.57406915 35.40748805 126.59533467 38.62451172 126.61784363 C40.5898353 126.6153334 42.55515792 126.6117744 44.52047729 126.60699463 C45.41820862 126.61988022 46.31593994 126.63276581 47.24087524 126.64604187 C51.9705493 126.7111359 51.9705493 126.7111359 55.86419678 124.33784485 C57.2558866 120.99055119 56.67130102 118.58679712 55.77780151 115.14044189 C52.1733268 112.73745875 50.68752412 112.93247405 46.41378784 113.02789307 C45.09844559 113.04998337 43.78310333 113.07207367 42.42790222 113.09483337 C41.72470667 113.11011267 41.02151112 113.12539196 40.29700661 113.14113426 C36.56111134 113.21334623 32.82482053 113.22332469 29.08834839 113.24395752 C24.33832543 113.27353089 19.59076075 113.32132378 14.8420105 113.4385376 C10.99906921 113.53176117 7.16019142 113.5608366 3.31619835 113.54815102 C1.85719139 113.55493542 0.39809045 113.58484558 -1.05992699 113.63899803 C-5.68240591 113.80372479 -9.80153446 113.70293179 -14.22219849 112.14044189 C-17.96661357 108.20264197 -20.02440183 104.12353763 -22.22219849 99.14044189 C-22.79816208 97.92514742 -23.37728067 96.71134277 -23.95967102 95.49911499 C-30.78284284 80.91167269 -32.96893641 67.33371514 -32.96340942 51.40631104 C-32.97220345 48.57634317 -33.04521877 45.75252534 -33.12063599 42.92364502 C-33.30565439 27.83056853 -29.45064117 17.88843329 -18.94876099 6.69122314 C-13.20742527 1.53441256 -7.56353845 0.02024019 0 0 Z " fill="#796C78" transform="translate(131.22219848632813,143.85955810546875)"/>
<path d="M0 0 C3.50417809 2.84151203 6.78449927 5.83669895 10 9 C10.7734375 9.76054687 11.546875 10.52109375 12.34375 11.3046875 C21.78554046 21.16683164 27.80933544 33.07878427 32 46 C32.3196875 46.96679688 32.639375 47.93359375 32.96875 48.9296875 C39.70059599 72.9274718 33.09138892 96.44482877 21.4296875 117.625 C20 120 20 120 18.33984375 122.125 C16.41087198 124.82443571 16.66236408 126.75869515 17 130 C17.62973992 131.35116611 18.29072737 132.68883466 19 134 C17.44716875 135.63424183 15.8823119 137.25706248 14.3125 138.875 C13.44238281 139.77992188 12.57226562 140.68484375 11.67578125 141.6171875 C9.12056021 143.89263982 7.23098186 144.98704352 4 146 C4 145.34 4 144.68 4 144 C-3.80805501 143.05764853 -8.71770208 145.56634667 -15.5078125 149.18359375 C-33.91801097 158.75936812 -57.08911896 160.1724413 -76.9609375 154.40234375 C-84.73523606 151.84847712 -93.08406305 148.50954839 -99.77513123 143.73271179 C-105.18391175 139.87885284 -109.58050346 139.21749865 -116.125 139.109375 C-117.07133301 139.07442932 -118.01766602 139.03948364 -118.99267578 139.003479 C-121.99487418 138.89695617 -124.99680419 138.82242434 -128 138.75 C-131.00263486 138.65634869 -134.00497746 138.55611708 -137.00732422 138.45367432 C-138.8681208 138.39248475 -140.72913741 138.33754542 -142.59033203 138.28997803 C-147.79253754 138.1449137 -152.84631676 137.73090229 -158 137 C-156.96828149 134.41014283 -155.93533482 131.82079737 -154.89990234 129.23242188 C-153.9959443 126.96312084 -153.09931872 124.69088734 -152.20947266 122.41601562 C-150.09246979 117.04030584 -147.9448394 111.75711468 -145.33203125 106.6015625 C-139.13928521 94.00410556 -138.16298736 82.82339019 -138.89208984 69.02148438 C-139.52036816 56.07967655 -137.19500065 44.09031498 -131.4375 32.375 C-131.10089355 31.67826172 -130.76428711 30.98152344 -130.41748047 30.26367188 C-120.06503235 9.79162422 -101.43935711 -5.24533892 -80 -13 C-52.82504906 -21.48470324 -22.99346044 -17.18347426 0 0 Z " fill="#E3DFE3" transform="translate(462,258)"/>
<path d="M0 0 C1.27841263 -0.00571014 2.55682526 -0.01142029 3.87397766 -0.01730347 C5.28869619 -0.01854876 6.70341483 -0.01967387 8.11813354 -0.02069092 C9.60986961 -0.02532097 11.1016045 -0.03034588 12.59333801 -0.03573608 C16.64529581 -0.04884706 20.69723705 -0.0553029 24.74921274 -0.05974674 C27.28340152 -0.06268054 29.8175858 -0.06678601 32.35177231 -0.07125092 C40.28820338 -0.08492457 48.22462414 -0.09459096 56.16106617 -0.09845281 C65.30789318 -0.10292853 74.45457038 -0.12045436 83.60135186 -0.1494534 C90.68008957 -0.17111281 97.75878528 -0.18115941 104.83755577 -0.18249393 C109.0610244 -0.18353923 113.28435219 -0.18938783 117.5077858 -0.20731354 C121.48542409 -0.22386726 125.46281678 -0.22591458 129.44047737 -0.21717453 C130.89403888 -0.21640795 132.34761399 -0.22069643 133.80114174 -0.23063278 C144.60643528 -0.30011815 154.56636797 -0.00154493 162.75827026 7.77325439 C167.04419442 12.79698755 170.44131774 18.45734401 173.77780151 24.14044189 C174.14043091 24.69272461 174.5030603 25.24500732 174.87667847 25.81402588 C176.23891681 29.33089642 176.08288202 32.85058537 176.07858276 36.57012939 C176.08286789 37.39691193 176.08715302 38.22369446 176.09156799 39.07553101 C176.09730816 40.82892952 176.09781386 42.58235185 176.09347534 44.33575439 C176.09035343 46.97160694 176.11364351 49.60629372 176.13912964 52.24200439 C176.19667458 67.26887032 173.88634254 80.23644444 167.70303917 94.03202057 C167.09295651 95.42227018 166.50366736 96.82185722 165.93702126 98.23036957 C163.88599274 103.26188863 161.69774313 108.27927726 157.77780151 112.14044189 C152.02582992 114.34992803 146.71175066 114.06673289 140.63327026 113.78106689 C138.97426033 113.76347585 137.3151528 113.75357375 135.65605164 113.75097656 C131.30931584 113.72634041 126.97018172 113.60970371 122.62582397 113.46948242 C115.65930467 113.26251655 108.68944583 113.20612545 101.7205143 113.13176727 C99.29075132 113.09407082 96.86384988 113.02292285 94.43507385 112.94519043 C92.9480066 112.91255158 91.46093112 112.8802845 89.97384644 112.84844971 C88.67750778 112.80907288 87.38116913 112.76969604 86.04554749 112.72912598 C82.71590462 112.8690189 82.71590462 112.8690189 80.39054871 114.97119141 C78.60581179 117.13601001 78.60581179 117.13601001 77.77780151 120.14044189 C71.17780151 120.14044189 64.57780151 120.14044189 57.77780151 120.14044189 C56.78780151 118.16044189 55.79780151 116.18044189 54.77780151 114.14044189 C51.95972962 112.73140595 49.67779084 113.07723503 46.52731323 113.14141846 C44.55418655 113.17444061 44.55418655 113.17444061 42.54119873 113.20812988 C41.48266001 113.22730343 41.48266001 113.22730343 40.40273666 113.24686432 C35.87581937 113.31739496 31.34826836 113.32366927 26.82089043 113.34071732 C22.84495661 113.35934464 18.87189677 113.40111881 14.89694214 113.49346924 C11.04856832 113.58161122 7.20441996 113.60560403 3.35513687 113.58708954 C1.89338508 113.59137354 0.43150432 113.61850412 -1.02936172 113.66956329 C-5.66280526 113.82356868 -9.7937162 113.71167185 -14.22219849 112.14044189 C-17.96732369 108.20205994 -20.02484388 104.12478915 -22.22219849 99.14044189 C-22.79809199 97.92518174 -23.37716491 96.71142276 -23.95953369 95.49925232 C-30.78298134 80.91192522 -32.9689364 67.33368717 -32.96340942 51.40631104 C-32.97220345 48.57634317 -33.04521877 45.75252534 -33.12063599 42.92364502 C-33.30565439 27.83056853 -29.45064117 17.88843329 -18.94876099 6.69122314 C-13.20742527 1.53441256 -7.56353845 0.02024019 0 0 Z " fill="#FCD1A3" transform="translate(131.22219848632813,143.85955810546875)"/>
<path d="M0 0 C1.88773491 1.48394135 3.76372292 2.98300539 5.625 4.5 C6.41390625 5.12390625 7.2028125 5.7478125 8.015625 6.390625 C17.18542915 14.02144104 23.91488503 23.3117762 29.0625 34 C29.53925171 34.97634399 29.53925171 34.97634399 30.02563477 35.97241211 C34.82263851 46.51962901 36.13892886 57.39269533 36 68.875 C35.99129883 70.63130737 35.99129883 70.63130737 35.98242188 72.4230957 C35.85283738 81.08785919 34.97448141 89.15094998 32.625 97.5 C31.51511719 96.38818359 31.51511719 96.38818359 30.3828125 95.25390625 C29.47273437 94.34511719 28.56265625 93.43632812 27.625 92.5 C26.94179688 91.80777344 26.25859375 91.11554688 25.5546875 90.40234375 C17.22828149 82.44002014 7.59971779 79.396025 -3.81115723 79.35282898 C-5.1118515 79.34567368 -6.41254578 79.33851837 -7.75265503 79.33114624 C-9.18731665 79.32830626 -10.62197854 79.3255945 -12.05664062 79.32299805 C-13.57321324 79.31672879 -15.08978433 79.31008158 -16.60635376 79.30308533 C-21.58130839 79.28209044 -26.55626315 79.27168445 -31.53125 79.26171875 C-33.24869299 79.25766892 -34.96613582 79.25355193 -36.68357849 79.24936867 C-44.75723108 79.23032385 -52.83087459 79.2160936 -60.90454531 79.2077567 C-70.19909618 79.1979988 -79.49340799 79.17171425 -88.7878747 79.13125581 C-95.98727183 79.10100182 -103.18660082 79.0862789 -110.38606024 79.08297569 C-114.67840544 79.08063501 -118.97049507 79.07180407 -123.26277161 79.04651451 C-127.3077851 79.02306681 -131.35237777 79.01906679 -135.39744186 79.02927589 C-136.87232751 79.0297674 -138.34723505 79.02356219 -139.82205582 79.00971985 C-153.35138577 78.88996571 -165.35145015 80.77897177 -175.375 90.5 C-177.46720678 92.77356086 -179.41971564 95.10477666 -181.375 97.5 C-181.705 97.5 -182.035 97.5 -182.375 97.5 C-186.67502727 76.11994421 -190.76283521 55.16858373 -178.0390625 35.76953125 C-170.5334721 25.53303354 -160.05843969 19.91729913 -148.08203125 16.14453125 C-144.98927513 15.00860923 -144.44858853 14.60508382 -142.44921875 11.75 C-141.76279297 10.14125 -141.76279297 10.14125 -141.0625 8.5 C-134.70245515 -4.37765837 -123.60211296 -13.36567457 -110.18847656 -18.30517578 C-73.54935293 -30.56803403 -31.04148906 -22.70663503 0 0 Z " fill="#544D55" transform="translate(277.375,50.5)"/>
<path d="M0 0 C5.28 0 10.56 0 16 0 C16.16276042 2.50651042 16.32552083 5.01302083 16.48828125 7.51953125 C17.09012725 10.43687637 17.61079352 11.26098794 20 13 C21.84948392 13.81088484 23.729157 14.55436768 25.625 15.25 C29.97139549 16.96444068 33.25803259 18.78416718 36.8125 21.8125 C39.78536263 24.2809419 40.73622856 24.95976368 44.6875 25.5625 C47.96343809 25.00620863 50.90614117 24.20735955 54 23 C54.98635837 24.41166886 55.96381255 25.82956184 56.9375 27.25 C57.48277344 28.03890625 58.02804688 28.8278125 58.58984375 29.640625 C59.91167419 31.85221941 60.44868167 33.52021131 61 36 C59.86304688 36.4846875 58.72609375 36.969375 57.5546875 37.46875 C54.57265348 39.60630089 54.04634816 40.77002921 53.30957031 44.42578125 C53.01908876 48.01855046 53.01707677 51.59959958 53.08740234 55.20166016 C53.12493137 57.49580478 53.08775317 59.78037046 53.04296875 62.07421875 C52.7942568 69.52849538 52.7942568 69.52849538 55.62011719 76.14453125 C57.69709935 77.73934655 57.69709935 77.73934655 61 79 C60.20299564 82.55840951 58.86224456 85.13764709 56.9375 88.25 C56.38964844 89.14203125 55.84179688 90.0340625 55.27734375 90.953125 C54.85582031 91.62859375 54.43429688 92.3040625 54 93 C52.989375 92.484375 51.97875 91.96875 50.9375 91.4375 C46.86433289 89.74782947 44.30823151 89.66296263 40 91 C37.75608706 92.62325617 35.66167041 94.37694608 33.54296875 96.16015625 C29.85492558 98.82846398 25.86893634 100.24553295 21.6015625 101.76171875 C18.68451078 103.15016529 17.57136552 104.20245417 16 107 C15.43672257 109.11818257 15.43672257 109.11818257 15.3125 111.25 C15.209375 112.4875 15.10625 113.725 15 115 C10.05 115 5.1 115 0 115 C-0.16276042 112.75390625 -0.32552083 110.5078125 -0.48828125 108.26171875 C-1.10430471 105.53898909 -1.92141937 104.81253431 -4 103 C-5.71178886 101.97154609 -5.71178886 101.97154609 -7.58203125 101.1328125 C-8.26716797 100.80410156 -8.95230469 100.47539062 -9.65820312 100.13671875 C-11.0817951 99.46815969 -12.506261 98.801458 -13.93164062 98.13671875 C-17.4040423 96.46710747 -20.40250004 94.80909638 -23.3203125 92.2734375 C-25.81632938 89.75979351 -25.81632938 89.75979351 -29.0625 89.5 C-32.32043084 90.05454142 -34.27165811 91.18110541 -37 93 C-37.66 93 -38.32 93 -39 93 C-40.7265625 90.4453125 -40.7265625 90.4453125 -42.625 87.125 C-43.57246094 85.48917969 -43.57246094 85.48917969 -44.5390625 83.8203125 C-46 81 -46 81 -46 79 C-44.20963542 78.0234375 -42.41927083 77.046875 -40.62890625 76.0703125 C-38.83381685 75.08589976 -38.83381685 75.08589976 -38 73 C-37.76525596 68.59285849 -37.77161564 64.18193686 -37.75976562 59.76928711 C-37.75005232 57.57432267 -37.71902591 55.38029178 -37.6875 53.18554688 C-37.68097052 51.79167223 -37.67571983 50.39779089 -37.671875 49.00390625 C-37.6625293 47.73361572 -37.65318359 46.4633252 -37.64355469 45.15454102 C-37.73088729 42.08651786 -37.73088729 42.08651786 -39.20800781 40.31225586 C-39.79936523 39.87921143 -40.39072266 39.44616699 -41 39 C-42.65 37.68 -44.3 36.36 -46 35 C-43.69 31.04 -41.38 27.08 -39 23 C-34 24 -34 24 -33 25 C-27.04950358 25.61632762 -24.36024076 24.35784467 -19.6875 20.75 C-14.96122453 17.21747805 -10.59299903 14.68807497 -4.92578125 12.8515625 C-2.64507694 12.04897804 -2.64507694 12.04897804 -1 9 C-0.54605448 6.72087062 -0.54605448 6.72087062 -0.375 4.3125 C-0.25125 2.889375 -0.1275 1.46625 0 0 Z " fill="#E1DDE1" transform="translate(195,300)"/>
<path d="M0 0 C1.62905273 -0.04930664 1.62905273 -0.04930664 3.29101562 -0.09960938 C12.0520389 -0.15749001 18.51235612 1.79891671 25.25 7.5 C31.8125 15.6375 31.8125 15.6375 31.8125 21.4375 C32.8025 21.1075 33.7925 20.7775 34.8125 20.4375 C36.91491416 20.34206331 39.02042643 20.30764516 41.125 20.3125 C42.23488281 20.30992187 43.34476562 20.30734375 44.48828125 20.3046875 C47.68051125 20.43222665 50.67758827 20.83992227 53.8125 21.4375 C53.92464844 20.58478516 53.92464844 20.58478516 54.0390625 19.71484375 C55.10634799 13.44715741 56.99933488 9.60588262 61.8125 5.4375 C69.12899919 0.5740794 75.66598196 -0.34470942 84.3125 -0.1875 C85.90771484 -0.21650391 85.90771484 -0.21650391 87.53515625 -0.24609375 C95.68809568 -0.19607572 102.59406651 1.56880908 108.7265625 7.19287109 C115.82399828 14.73844625 116.31219397 22.28200281 116.25 32.25 C116.26998047 33.37470703 116.28996094 34.49941406 116.31054688 35.65820312 C116.30571315 43.97704353 115.17925622 51.16831428 109.91796875 57.83984375 C109.28503906 58.34644531 108.65210938 58.85304687 108 59.375 C107.37480469 59.89964844 106.74960937 60.42429688 106.10546875 60.96484375 C98.90641837 65.58842466 92.93865554 65.95748497 84.5 65.9375 C83.42298828 65.96585937 82.34597656 65.99421875 81.23632812 66.0234375 C72.97861249 66.04344408 66.00595541 64.41751449 59.86987305 58.59375 C55.39557841 53.65582332 53.5403865 49.95472086 53.6875 43.1875 C53.70554687 42.10984375 53.72359375 41.0321875 53.7421875 39.921875 C53.76539063 39.10203125 53.78859375 38.2821875 53.8125 37.4375 C50.25325986 36.62506475 46.96122305 36.30225078 43.3125 36.3125 C42.3946875 36.30992187 41.476875 36.30734375 40.53125 36.3046875 C37.86245546 36.43505965 35.41384847 36.84371394 32.8125 37.4375 C32.70292969 38.23414063 32.59335938 39.03078125 32.48046875 39.8515625 C30.97844909 49.88944999 28.6180883 55.38101987 20.875 62.125 C14.56696334 66.13920515 7.78918368 65.83678604 0.5625 65.875 C-0.51902344 65.90787109 -1.60054687 65.94074219 -2.71484375 65.97460938 C-10.20311403 66.0242903 -15.9951501 64.80861325 -22.1875 60.4375 C-30.08443534 52.10680891 -30.57517172 44.38385272 -30.625 33.25 C-30.65787109 31.97318359 -30.69074219 30.69636719 -30.72460938 29.38085938 C-30.76985963 21.3797922 -30.00333795 15.02215993 -25.1875 8.4375 C-17.42740308 1.11196111 -10.38876995 0.05451833 0 0 Z " fill="#030303" transform="translate(160.1875,162.5625)"/>
<path d="M0 0 C93.72 0 187.44 0 284 0 C284 17.53092685 284 17.53092685 280 22 C274.1329668 26.31908198 268.18638744 26.57138734 261.13180542 26.50793457 C259.52306634 26.51729451 259.52306634 26.51729451 257.88182747 26.52684355 C254.29973603 26.54275705 250.71832658 26.53017516 247.13623047 26.51757812 C244.56353357 26.52299987 241.99083977 26.53012283 239.41815186 26.53881836 C233.1633454 26.55657356 226.9087313 26.55277744 220.65391742 26.5411678 C215.57023806 26.53212349 210.4866125 26.53091377 205.4029274 26.53526306 C204.67859901 26.53587599 203.95427062 26.53648893 203.20799289 26.53712043 C201.73642553 26.53839936 200.26485819 26.53969622 198.79329087 26.5410108 C185.00605564 26.55240738 171.21892694 26.53931656 157.43170919 26.51780933 C145.6049729 26.49993158 133.77839363 26.50304976 121.95166016 26.52148438 C108.20968133 26.54289436 94.46779571 26.5513168 80.72580254 26.53903532 C79.26034873 26.53776115 77.79489491 26.53650366 76.32944107 26.53526306 C75.60844835 26.53464596 74.88745564 26.53402886 74.14461466 26.53339306 C69.06678366 26.5299411 63.98901186 26.535765 58.91119003 26.54518127 C52.07717544 26.55757603 45.24346255 26.54874182 38.40947723 26.52560425 C35.89963143 26.52030937 33.38976069 26.52184415 30.87992477 26.53065491 C27.45768665 26.54156232 24.03640429 26.52790353 20.61422729 26.50793457 C19.11948562 26.5213189 19.11948562 26.5213189 17.59454715 26.53497362 C11.74073441 26.46857854 8.48876779 25.84248188 4 22 C-2.02522128 15.14371371 0 10.27766504 0 0 Z " fill="#544D55" transform="translate(61,459)"/>
<path d="M0 0 C1.82917969 -0.03673828 1.82917969 -0.03673828 3.6953125 -0.07421875 C11.79623425 -0.10075015 15.61083723 0.49925663 21.4375 6.125 C22.625 8.375 22.625 8.375 22.6875 12.3125 C22.75563748 14.43415304 22.75563748 14.43415304 23.625 16.375 C26.73851519 18.60532776 30.10044634 19.92238843 33.625 21.375 C34.615 22.035 35.605 22.695 36.625 23.375 C39.85101907 23.00840692 42.95073492 22.30519966 46.125 21.625 C50.54354127 21.30938991 52.03375902 21.75638678 55.625 24.375 C58.2997622 27.50900212 60.47000562 30.86848975 62.625 34.375 C63.615 35.97408203 63.615 35.97408203 64.625 37.60546875 C68.22089371 43.78953595 71.27704075 49.11511449 69.625 56.375 C68.21455802 59.86398807 67.47257263 61.00885876 64.01171875 62.50390625 C63.22410156 62.79136719 62.43648437 63.07882812 61.625 63.375 C61.63101832 66.44133164 61.67846283 69.49757941 61.75 72.5625 C61.74742187 73.42681641 61.74484375 74.29113281 61.7421875 75.18164062 C61.80206632 79.95671309 61.80206632 79.95671309 63.98339844 84.03369141 C65.79313833 85.54877813 65.79313833 85.54877813 68.625 87.375 C70.39383994 90.91267988 70.15348929 94.51307548 69.625 98.375 C68.27575382 102.01136587 66.44616928 105.27718549 64.5 108.625 C64.025625 109.49640625 63.55125 110.3678125 63.0625 111.265625 C59.82980515 116.9971056 56.6471069 121.36394655 50.625 124.375 C46.20015032 124.62082498 43.51034522 124.38466132 39.625 122.375 C35.99332226 122.89036003 33.15361618 124.63968377 30 126.4375 C24.84382353 129.375 24.84382353 129.375 22.625 129.375 C22.7075 130.57125 22.79 131.7675 22.875 133 C22.86704257 137.48799004 21.63262446 139.9609398 18.625 143.375 C12.65763021 146.40834266 6.22679413 145.78254903 -0.3125 145.8125 C-1.57513672 145.84537109 -2.83777344 145.87824219 -4.13867188 145.91210938 C-14.49692125 145.97223642 -14.49692125 145.97223642 -18.16796875 142.96484375 C-22.19012651 138.24503738 -22.61640183 135.65144761 -22.375 129.375 C-23.6125 129.0346875 -23.6125 129.0346875 -24.875 128.6875 C-27.86963523 127.56451179 -29.84303951 126.45980697 -32.4375 124.6875 C-35.56592407 122.62806463 -35.56592407 122.62806463 -39.3125 122.5 C-41.32794588 123.20301615 -41.32794588 123.20301615 -42.375 124.375 C-47.36962414 124.79827323 -50.5067232 124.96257244 -54.75805664 121.92456055 C-58.39409777 118.440044 -60.73791698 113.94441877 -63.25 109.625 C-64.13945312 108.17867187 -64.13945312 108.17867187 -65.046875 106.703125 C-68.43126238 100.96370309 -70.30518617 97.05745746 -69.375 90.375 C-66.85387772 85.33275545 -65.786026 84.5394104 -60.375 82.375 C-60.375 76.105 -60.375 69.835 -60.375 63.375 C-62.025 62.715 -63.675 62.055 -65.375 61.375 C-68.0152716 58.30657625 -69.26507059 56.26103105 -69.765625 52.2265625 C-69.25315302 47.17358879 -67.35124171 43.77046171 -64.8125 39.4375 C-64.35504395 38.64351807 -63.89758789 37.84953613 -63.42626953 37.03149414 C-55.49435388 23.53276019 -55.49435388 23.53276019 -50.34375 21.62109375 C-46.10425516 20.86969075 -43.21148626 21.71597892 -39.375 23.375 C-33.42881629 22.64441087 -28.0597094 20.05693664 -23.375 16.375 C-22.2928003 14.00664757 -21.96563604 12.06962011 -21.68359375 9.4921875 C-21.21551469 6.28080964 -19.65648401 4.58938154 -17.375 2.375 C-12.17464261 -0.9127155 -5.93559156 0.00623487 0 0 Z M-7.375 15.375 C-7.4575 16.7775 -7.54 18.18 -7.625 19.625 C-7.97792382 22.55380939 -8.23974006 24.15740793 -9.8125 26.6875 C-12.91937346 28.73348984 -16.10253113 29.81958366 -19.5859375 31.09375 C-22.7962923 32.56853484 -25.28309111 34.45047624 -28.0625 36.625 C-33.71041935 40.92285093 -33.71041935 40.92285093 -37.375 41 C-40.375 40.375 -40.375 40.375 -43.375 38.375 C-45.43863025 38.22290727 -45.43863025 38.22290727 -47.375 39.375 C-49.17850547 42.13205177 -49.17850547 42.13205177 -50.625 45.4375 C-51.14578125 46.54222656 -51.6665625 47.64695312 -52.203125 48.78515625 C-52.58984375 49.63980469 -52.9765625 50.49445313 -53.375 51.375 C-52.240625 51.99375 -51.10625 52.6125 -49.9375 53.25 C-46.5 55.125 -46.5 55.125 -45.375 57.375 C-45.11687595 61.76346485 -45.1039991 66.15568944 -45.07983398 70.55078125 C-45.06261813 72.7350131 -45.01872966 74.91773175 -44.97460938 77.1015625 C-44.96448223 78.49217638 -44.95596619 79.88280311 -44.94921875 81.2734375 C-44.93463623 82.53849121 -44.92005371 83.80354492 -44.9050293 85.10693359 C-45.45659875 88.9424186 -46.35666127 90.04161745 -49.375 92.375 C-51.625 93.625 -51.625 93.625 -53.375 94.375 C-51.61070801 99.34709562 -48.9810834 103.80938061 -46.375 108.375 C-42.82981116 106.97740095 -42.82981116 106.97740095 -39.375 105.375 C-35.81428768 105.00852891 -33.933319 105.03605133 -30.83984375 106.9140625 C-30.00582031 107.60242188 -29.17179687 108.29078125 -28.3125 109 C-23.15368067 113.0021652 -17.93112738 115.62077223 -11.9296875 118.1484375 C-9.375 119.375 -9.375 119.375 -8.375 121.375 C-7.93763499 124.3663607 -7.67592551 127.36574485 -7.375 130.375 C-2.425 130.375 2.525 130.375 7.625 130.375 C7.8725 128.786875 8.12 127.19875 8.375 125.5625 C8.86229062 122.4357185 9.1108819 120.86783652 11.41796875 118.65625 C13.64877904 117.36119553 15.74649183 116.5118932 18.1875 115.6875 C22.51359838 114.06680827 25.69330569 111.92395665 29.3125 109.0625 C34.1425625 105.3905625 34.1425625 105.3905625 38.5 105.25 C41.2358134 106.23489282 43.92896269 107.28744597 46.625 108.375 C47.79991582 106.60962904 48.96468684 104.83750287 50.125 103.0625 C50.7746875 102.07636719 51.424375 101.09023438 52.09375 100.07421875 C53.8717127 97.45732361 53.8717127 97.45732361 53.625 94.375 C52.48804688 93.8284375 51.35109375 93.281875 50.1796875 92.71875 C47.14981045 90.67538012 46.67295182 89.61211393 45.93457031 85.9609375 C45.64451711 82.36423381 45.6420007 78.77929639 45.71240234 75.17333984 C45.74993137 72.87919522 45.71275317 70.59462954 45.66796875 68.30078125 C45.63740559 57.68226782 45.63740559 57.68226782 48.24511719 54.23046875 C50.1796875 52.84375 50.1796875 52.84375 53.625 51.375 C52.21332253 46.11329306 49.87649768 42.65328642 46.625 38.375 C45.779375 38.705 44.93375 39.035 44.0625 39.375 C40.02715053 40.54891985 37.81140788 41.06129637 33.625 40.375 C30.8025992 38.55651088 28.19595748 36.54758433 25.55078125 34.48046875 C21.85615067 31.8217159 18.03520388 30.10429456 13.83984375 28.3828125 C11.625 27.375 11.625 27.375 9.625 25.375 C9.04769825 22.05279179 8.88400988 18.74212849 8.625 15.375 C3.345 15.375 -1.935 15.375 -7.375 15.375 Z " fill="#020202" transform="translate(202.375,284.625)"/>
<path d="M0 0 C0 24.42 0 48.84 0 74 C-3.63 74.33 -7.26 74.66 -11 75 C-15.52229797 77.26114898 -17.96012995 79.3942189 -20 84 C-20.41808708 87.83914318 -20.37270099 91.64232057 -20.3125 95.5 C-20.31572266 96.53253906 -20.31894531 97.56507813 -20.32226562 98.62890625 C-20.28637942 103.68559888 -19.95565418 107.30915494 -18 112 C-18 112.99 -18 113.98 -18 115 C-29.22 115 -40.44 115 -52 115 C-52.06320747 107.40808098 -52.12327664 99.81713535 -52.15525055 92.22518158 C-52.17098122 88.68849735 -52.19194077 85.15203482 -52.22631836 81.61547852 C-52.26566158 77.54180972 -52.27980199 73.46836944 -52.29296875 69.39453125 C-52.31619453 67.52653618 -52.31619453 67.52653618 -52.33988953 65.62080383 C-52.34326091 47.76258638 -47.2525804 29.43614299 -34.75 16.25 C-26.10308037 8.09063471 -12.22713593 0 0 0 Z " fill="#98E4FA" transform="translate(67,370)"/>
<path d="M0 0 C1.88773491 1.48394135 3.76372292 2.98300539 5.625 4.5 C6.41390625 5.12390625 7.2028125 5.7478125 8.015625 6.390625 C17.18542915 14.02144104 23.91488503 23.3117762 29.0625 34 C29.53925171 34.97634399 29.53925171 34.97634399 30.02563477 35.97241211 C34.82263851 46.51962901 36.13892886 57.39269533 36 68.875 C35.99129883 70.63130737 35.99129883 70.63130737 35.98242188 72.4230957 C35.85283738 81.08785919 34.97448141 89.15094998 32.625 97.5 C27.625 92.5 27.625 92.5 25.625 90.4375 C19.67340203 84.67188946 13.45860755 82.0183777 5.625 79.5 C5.46064453 77.63408203 5.46064453 77.63408203 5.29296875 75.73046875 C2.91916037 50.19147617 -5.97080948 27.33543686 -26 10.37890625 C-47.95401528 -6.98931966 -71.68411044 -15.97117599 -99.375 -19.5 C-99.045 -20.16 -98.715 -20.82 -98.375 -21.5 C-66.24482814 -30.87406045 -26.28210465 -19.22517818 0 0 Z " fill="#423E42" transform="translate(277.375,50.5)"/>
<path d="M0 0 C6.59024296 4.47858061 11.13174834 10.2643484 13.61328125 17.8828125 C15.05480347 25.77478263 15.00085703 34.88455174 11 42 C5.43806568 49.61939782 -0.53729161 55.12100066 -10 57 C-19.28895738 57.81892571 -26.14482125 57.15167555 -34 52 C-34.9075 51.443125 -35.815 50.88625 -36.75 50.3125 C-42.52614949 44.37590191 -47.2756532 36.15107115 -47.3125 27.75 C-47.13539093 18.97719723 -44.44275219 11.60430682 -38.28125 5.21875 C-27.35947794 -5.00957621 -13.39603486 -7.75318456 0 0 Z " fill="#030303" transform="translate(219,331)"/>
<path d="M0 0 C15.95441017 0 15.95441017 0 22 4.1875 C23.33978043 5.02541575 24.68495492 5.85476313 26.03515625 6.67578125 C26.69402832 7.07748535 27.35290039 7.47918945 28.03173828 7.89306641 C33.02877825 10.70335904 38.55668794 12.27576011 44 14 C46.97 14.99 49.94 15.98 53 17 C53 35.48 53 53.96 53 73 C41.45 73 29.9 73 18 73 C18.99 70.03 19.98 67.06 21 64 C21.44035411 61.2117728 21.44035411 61.2117728 21.3984375 58.703125 C21.40230469 57.80722656 21.40617187 56.91132813 21.41015625 55.98828125 C21.39855469 55.08464844 21.38695312 54.18101562 21.375 53.25 C21.38660156 52.33089844 21.39820313 51.41179687 21.41015625 50.46484375 C21.38821096 45.41011195 21.11458058 42.18573263 18 38 C18 37.34 18 36.68 18 36 C11.85172338 33.32232855 11.85172338 33.32232855 0 32 C0 21.44 0 10.88 0 0 Z " fill="#96E3F8" transform="translate(338,412)"/>
<path d="M0 0 C17.1455616 3.4990942 31.57897804 11.78061801 44 24 C44.7734375 24.76054687 45.546875 25.52109375 46.34375 26.3046875 C55.78554046 36.16683164 61.80933544 48.07878427 66 61 C66.3196875 61.96679688 66.639375 62.93359375 66.96875 63.9296875 C73.70059599 87.9274718 67.09138892 111.44482877 55.4296875 132.625 C54 135 54 135 52.33984375 137.125 C50.41087198 139.82443571 50.66236408 141.75869515 51 145 C51.62973992 146.35116611 52.29072737 147.68883466 53 149 C51.44716875 150.63424183 49.8823119 152.25706248 48.3125 153.875 C47.44238281 154.77992188 46.57226562 155.68484375 45.67578125 156.6171875 C43.12056021 158.89263982 41.23098186 159.98704352 38 161 C38 160.34 38 159.68 38 159 C30.18901718 158.05729518 25.14727888 160.54279816 18.4296875 164.17578125 C9.35974304 169 9.35974304 169 5 169 C5 168.34 5 167.68 5 167 C6.54287884 165.95825306 8.13800326 164.9937241 9.75 164.0625 C30.84872277 150.93681643 44.02833386 129.76578065 50 106 C55.25024335 82.27769627 50.91329623 57.7534039 38.81640625 36.78125 C30.01204322 23.3001608 19.75261691 12.81736808 5.78515625 4.7265625 C3.47127238 3.29214922 1.78305396 2.02535049 0 0 Z " fill="#D4CDD3" transform="translate(428,243)"/>
<path d="M0 0 C9.22324805 0.37800197 15.51781632 2.09014627 22 8.875 C31.71397033 20.93565368 35.26032043 29.58067756 34.76831055 44.94970703 C34.68757533 47.49762271 34.66581454 50.04076356 34.65429688 52.58984375 C34.39440598 75.0584194 27.2951468 92.89865175 16 112 C12.7 112 9.4 112 6 112 C7.35299537 107.3396826 8.73322489 102.70942598 10.359375 98.13671875 C19.37388212 72.63204346 26.28977446 43.44557019 14.4921875 17.7109375 C11.14083432 11.42909876 7.25817432 6.88931252 1.72265625 2.42578125 C1.15417969 1.95527344 0.58570313 1.48476562 0 1 C0 0.67 0 0.34 0 0 Z " fill="#FCBB85" transform="translate(273,144)"/>
<path d="M0 0 C1.9453125 0.4140625 1.9453125 0.4140625 4.5078125 2.5390625 C6.61967388 6.76278526 5.47005191 9.83774025 4.01676941 14.20341492 C3.6402272 15.15811172 3.263685 16.11280853 2.87573242 17.09643555 C2.44826218 18.18744064 2.02079193 19.27844574 1.58036804 20.4025116 C1.1168544 21.56519058 0.65334076 22.72786957 0.17578125 23.92578125 C-0.3016301 25.13095901 -0.77904144 26.33613678 -1.2709198 27.57783508 C-2.27960403 30.12043091 -3.29320738 32.66100177 -4.30981445 35.20043945 C-5.60997865 38.4504933 -6.89336931 41.70688976 -8.17264271 44.96521282 C-9.39980709 48.08141908 -10.64431378 51.19062015 -11.88671875 54.30078125 C-12.3441597 55.46953293 -12.80160065 56.63828461 -13.27290344 57.842453 C-13.70983017 58.92400162 -14.1467569 60.00555023 -14.59692383 61.11987305 C-14.97585281 62.07218307 -15.3547818 63.0244931 -15.74519348 64.00566101 C-17.20095995 66.68308456 -18.44506264 67.87391141 -21.0546875 69.4140625 C-24.0546875 69.9140625 -24.0546875 69.9140625 -27.0546875 69.4140625 C-29.88186535 66.88448232 -30.97641838 65.39745473 -31.27949524 61.58952332 C-31.04239404 58.24041453 -30.32634339 55.84145065 -29.08276367 52.73168945 C-28.43660347 51.09518181 -28.43660347 51.09518181 -27.77738953 49.4256134 C-27.30557755 48.26293442 -26.83376556 47.10025543 -26.34765625 45.90234375 C-25.86645828 44.69716599 -25.38526031 43.49198822 -24.88948059 42.25028992 C-23.87288691 39.70673487 -22.84917403 37.16620324 -21.82006836 34.62768555 C-20.50300624 31.37767554 -19.20219815 28.12145468 -17.90641308 24.86291218 C-16.66557246 21.74786098 -15.41247491 18.63779883 -14.16015625 15.52734375 C-13.69441696 14.35859207 -13.22867767 13.18984039 -12.74882507 11.985672 C-12.30859512 10.90412338 -11.86836517 9.82257477 -11.41479492 8.70825195 C-11.03062912 7.75594193 -10.64646332 6.8036319 -10.25065613 5.82246399 C-7.79850788 0.88441013 -5.67057469 -0.23017093 0 0 Z " fill="#040404" transform="translate(422.0546875,296.5859375)"/>
<path d="M0 0 C0.88945312 -0.00257813 1.77890625 -0.00515625 2.6953125 -0.0078125 C7.56186937 0.06482268 11.10506251 0.27450489 15 3.5 C17.96571002 7.94856503 17.32933637 12.14225615 17.3125 17.375 C17.33666992 18.86580078 17.33666992 18.86580078 17.36132812 20.38671875 C17.36759185 29.74471699 17.36759185 29.74471699 14 33.5 C9.51466245 36.20262631 5.16472592 35.90453515 0.0625 35.9375 C-1.27844727 35.98680664 -1.27844727 35.98680664 -2.64648438 36.03710938 C-6.84195968 36.07137087 -9.39005216 35.84468607 -13.08984375 33.75390625 C-16.07817663 28.66335147 -15.72431488 23.7933681 -15.625 18 C-15.64433594 16.87207031 -15.66367188 15.74414062 -15.68359375 14.58203125 C-15.65496407 9.74361573 -15.56888717 6.4659472 -13.0859375 2.25 C-8.67628216 -0.25066531 -4.98384581 -0.15890523 0 0 Z " fill="#96E1F7" transform="translate(244,177.5)"/>
<path d="M0 0 C1.31484375 -0.02900391 1.31484375 -0.02900391 2.65625 -0.05859375 C7.43413524 -0.0226157 11.45346015 0.3063814 14.97167969 3.78369141 C17.32739482 8.00183089 16.76486132 12.9368484 16.625 17.625 C16.63466797 19.24535156 16.63466797 19.24535156 16.64453125 20.8984375 C16.53819377 28.72874261 16.53819377 28.72874261 14.0859375 32.8125 C9.72971775 36.59767971 5.23186049 35.95480646 -0.3125 36.0625 C-1.26318359 36.10826172 -2.21386719 36.15402344 -3.19335938 36.20117188 C-7.87922927 36.27648635 -10.25774927 36.16498741 -14.125 33.3515625 C-17.23178619 28.64019542 -16.76266564 22.99730273 -16.6875 17.5625 C-16.71521484 16.48677734 -16.74292969 15.41105469 -16.77148438 14.30273438 C-16.7487132 6.95675369 -16.7487132 6.95675369 -14.96728516 3.78808594 C-10.79286416 -0.34072102 -5.54947172 -0.12241482 0 0 Z " fill="#97E3F9" transform="translate(161,177.375)"/>
<path d="M0 0 C3.125 0.5 3.125 0.5 6.0625 2.5625 C8.125 5.5 8.125 5.5 8.10546875 8.61328125 C7.0594646 14.46031397 3.14949011 19.17490371 -0.1015625 24.00390625 C-0.5965625 24.76832031 -1.0915625 25.53273438 -1.6015625 26.3203125 C-2.06127441 27.00367676 -2.52098633 27.68704102 -2.99462891 28.39111328 C-4.16762114 31.20095991 -3.79117834 32.62409383 -2.875 35.5 C-1.75808007 37.73802157 -1.75808007 37.73802157 -0.3359375 39.8984375 C0.16164063 40.70796875 0.65921875 41.5175 1.171875 42.3515625 C2.22265813 44.03177513 3.28256305 45.70631793 4.3515625 47.375 C6.82495749 51.43291365 8.14555062 53.62745513 8.03125 58.48046875 C6.65487634 63.06640341 6.65487634 63.06640341 4.125 64.5 C0.6875 64.9375 0.6875 64.9375 -2.875 64.5 C-7.74530016 60.44758097 -10.4704356 54.78207795 -13.58544922 49.36450195 C-14.62400166 47.56423056 -15.68044655 45.77532049 -16.73828125 43.98632812 C-17.72634766 42.27799805 -17.72634766 42.27799805 -18.734375 40.53515625 C-19.33733398 39.4975415 -19.94029297 38.45992676 -20.56152344 37.39086914 C-21.95922007 34.31463758 -22.41604411 32.81450152 -21.875 29.5 C-20.45385742 26.59326172 -20.45385742 26.59326172 -18.48046875 23.4296875 C-17.9584362 22.58532639 -17.9584362 22.58532639 -17.42585754 21.72390747 C-16.69041838 20.53907723 -15.94963168 19.35755155 -15.20385742 18.17919922 C-14.06600943 16.38054752 -12.94484629 14.57234405 -11.82617188 12.76171875 C-4.34462632 0.75558719 -4.34462632 0.75558719 0 0 Z " fill="#040404" transform="translate(368.875,298.5)"/>
<path d="M0 0 C5.69458823 2.16001623 7.56675126 6.28597739 10.625 11.375 C11.5115749 12.76394484 12.39969661 14.15190312 13.2890625 15.5390625 C14.21600113 17.02450975 15.14047927 18.5114952 16.0625 20 C16.51214111 20.70382812 16.96178223 21.40765625 17.42504883 22.1328125 C20.27960456 26.88173005 21.85509832 30.82778788 20.625 36.375 C19.37763487 39.39109129 17.75693038 42.06807727 16 44.8125 C15.54431641 45.55314697 15.08863281 46.29379395 14.61914062 47.05688477 C13.30729457 49.17607437 11.97179368 51.27789469 10.625 53.375 C9.98820312 54.3753125 9.35140625 55.375625 8.6953125 56.40625 C6.80790675 59.29839414 5.07018552 61.92981448 2.625 64.375 C-1.26701406 64.80744601 -3.50730302 64.95346465 -6.8125 62.75 C-8.83055525 59.68255602 -8.67757832 58.00537998 -8.375 54.375 C-7.25756836 51.82958984 -7.25756836 51.82958984 -5.71484375 49.3359375 C-4.8959668 47.97082031 -4.8959668 47.97082031 -4.06054688 46.578125 C-3.48369141 45.64484375 -2.90683594 44.7115625 -2.3125 43.75 C-1.16448723 41.88973514 -0.02721813 40.0227844 1.09765625 38.1484375 C1.60562744 37.32778809 2.11359863 36.50713867 2.63696289 35.66162109 C3.79742258 33.47696138 3.79742258 33.47696138 3.43945312 31.34765625 C2.5098079 29.09599756 1.40273529 27.11189955 0.12109375 25.0390625 C-0.37197266 24.22179687 -0.86503906 23.40453125 -1.37304688 22.5625 C-2.41360884 20.85810886 -3.46046916 19.15754659 -4.51367188 17.4609375 C-9.31028185 9.46449204 -9.31028185 9.46449204 -8.375 4.375 C-5.69809738 1.21138781 -4.11915112 0.45768346 0 0 Z " fill="#030303" transform="translate(452.375,298.625)"/>
<path d="M0 0 C16 4 16 4 17 5 C17.09365006 6.7492872 17.11744438 8.50236254 17.11352539 10.25415039 C17.11344986 11.37523697 17.11337433 12.49632355 17.11329651 13.65138245 C17.10813522 14.8711528 17.10297394 16.09092316 17.09765625 17.34765625 C17.0962413 18.58921982 17.09482635 19.83078339 17.09336853 21.10997009 C17.08870591 24.41605491 17.07971497 27.72207146 17.06866455 31.02813721 C17.05844827 34.3996115 17.05387045 37.77109283 17.04882812 41.14257812 C17.03777395 47.76174018 17.0204966 54.38086071 17 61 C11.39 61 5.78 61 0 61 C0 40.87 0 20.74 0 0 Z " fill="#5FD4F3" transform="translate(374,424)"/>
<path d="M0 0 C13.36041587 -0.06945316 26.72078892 -0.12278754 40.08134842 -0.15543652 C46.28492857 -0.1711049 52.48838538 -0.1923648 58.69189453 -0.22631836 C64.67652349 -0.25886964 70.66103368 -0.27684418 76.64574432 -0.28463173 C78.93114848 -0.29018282 81.21654601 -0.30102248 83.50189972 -0.31719017 C86.69835048 -0.33890786 89.89430787 -0.34196925 93.09082031 -0.34057617 C94.03956528 -0.351362 94.98831024 -0.36214783 95.96580505 -0.3732605 C102.40978997 -0.34279011 102.40978997 -0.34279011 105.61932373 1.52128601 C106.0749469 2.00926163 106.53057007 2.49723724 107 3 C106.40356262 6.94074698 105.16125274 9.82988225 103.25 13.3125 C100.71979779 18.23267634 98.81671142 23.10685113 97.1875 28.375 C96.98092773 29.04055908 96.77435547 29.70611816 96.56152344 30.3918457 C94.63174666 36.8484896 93.88156124 42.57843274 94.11328125 49.3125 C94.14545419 50.73303814 94.17599867 52.15361392 94.20507812 53.57421875 C94.25398599 55.77531606 94.31149465 57.97434481 94.39770508 60.17431641 C94.81288191 71.25991419 93.22150876 79.11135763 88 89 C87.67 89 87.34 89 87 89 C86.67 59.96 86.34 30.92 86 1 C57.62 1 29.24 1 0 1 C0 0.67 0 0.34 0 0 Z " fill="#645A64" transform="translate(215,271)"/>
<path d="M0 0 C4.76506238 2.15052441 7.6885682 4.39535161 9.8359375 9.31640625 C10.60650118 14.70232529 10.53849134 18.91129856 8.0859375 23.81640625 C4.71436875 27.56259375 1.94295739 29.95540013 -3.21484375 30.5546875 C-8.75303008 30.73642418 -11.81161405 30.06153631 -16.1640625 26.31640625 C-20.21234924 21.83046689 -21.53511549 18.49282861 -21.4453125 12.375 C-20.81559505 7.76581813 -17.89285975 4.95844193 -14.5390625 2.00390625 C-9.92403886 -1.27518949 -5.38152101 -1.69993895 0 0 Z " fill="#776A76" transform="translate(208.1640625,342.68359375)"/>
<path d="M0 0 C14 0 14 0 21 1 C21 11.89 21 22.78 21 34 C14.07 34 7.14 34 0 34 C0 22.78 0 11.56 0 0 Z " fill="#675D67" transform="translate(302,410)"/>
<path d="M0 0 C0.33 14.52 0.66 29.04 1 44 C-6.028833 42.82852783 -11.12779042 40.5987496 -15.65234375 34.9296875 C-20.36569515 27.52494414 -20.82585928 20.70101738 -20 12 C-18.27321057 6.81082155 -14.66737112 4.58427365 -10 2.0625 C-6.12145283 0.17776848 -4.56863143 0 0 0 Z " fill="#EDA368" transform="translate(84,178)"/>
<path d="M0 0 C7.38826023 0.76692115 11.76628633 2.26656315 16.8125 8.0625 C20.74732405 13.34640658 20.71871251 18.62351579 20 25 C17.69344991 32.44778558 13.33727387 37.58194118 7 42 C3.48740111 43.83613124 2.06107431 44 -2 44 C-1.84152588 43.02603271 -1.68305176 42.05206543 -1.51977539 41.04858398 C-0.91150424 36.77460652 -0.77678908 32.53432325 -0.68359375 28.22265625 C-0.66281265 27.41130722 -0.64203156 26.59995819 -0.62062073 25.76402283 C-0.55574357 23.19692661 -0.49653078 20.62973663 -0.4375 18.0625 C-0.39425582 16.31183964 -0.35063974 14.56118842 -0.30664062 12.81054688 C-0.2001265 8.54045829 -0.09868886 4.27027632 0 0 Z " fill="#F2A66A" transform="translate(322,178)"/>
<path d="M0 0 C7.26 0 14.52 0 22 0 C22.64252534 16.70565878 22.64252534 16.70565878 18 22 C11.71400548 27.65577913 2.87086338 26.36894672 -5 26 C-4.35546875 24.8759375 -3.7109375 23.751875 -3.046875 22.59375 C-0.69118899 17.88237798 -0.3446902 13.69829898 -0.25 8.5 C-0.1675 5.695 -0.085 2.89 0 0 Z " fill="#423E42" transform="translate(323,459)"/>
</svg>
